<?xml version="1.0" encoding="utf-8"?>
<!-- Generator: Adobe Illustrator 19.0.0, SVG Export Plug-In . SVG Version: 6.00 Build 0)  -->
<svg version="1.1" id="icons" xmlns="http://www.w3.org/2000/svg" xmlns:xlink="http://www.w3.org/1999/xlink" x="0px" y="0px"
	 width="18px" height="18px" viewBox="-190 192 18 18" style="enable-background:new -190 192 18 18;" xml:space="preserve">
<style type="text/css">
	.st0{clip-path:url(#SVGID_2_);fill:#FFFFFF;}
</style>
<g>
	<g>
		<defs>
			<path id="SVGID_1_" d="M-182.4,201l-4.2,4.2c-0.4,0.4-0.4,1,0,1.4c0.4,0.4,1,0.4,1.4,0l4.2-4.2l4.2,4.2c0.4,0.4,1,0.4,1.4,0
				c0.4-0.4,0.4-1,0-1.4l-4.2-4.2l4.2-4.2c0.4-0.4,0.4-1,0-1.4c-0.4-0.4-1-0.4-1.4,0l-4.2,4.2l-4.2-4.2c-0.4-0.4-1-0.4-1.4,0
				c-0.4,0.4-0.4,1,0,1.4L-182.4,201z"/>
		</defs>
		<clipPath id="SVGID_2_">
			<use xlink:href="#SVGID_1_"  style="overflow:visible;"/>
		</clipPath>
		<rect x="-194" y="188" class="st0" width="26" height="26"/>
	</g>
</g>
</svg>
