<?xml version="1.0" encoding="utf-8"?>
<!-- Generator: Adobe Illustrator 19.0.0, SVG Export Plug-In . SVG Version: 6.00 Build 0)  -->
<svg version="1.1" id="icons" xmlns="http://www.w3.org/2000/svg" xmlns:xlink="http://www.w3.org/1999/xlink" x="0px" y="0px"
	 width="18px" height="18px" viewBox="-190 192 18 18" style="enable-background:new -190 192 18 18;" xml:space="preserve">
<style type="text/css">
	.st0{clip-path:url(#SVGID_2_);fill:#66C6BC;}
</style>
<g>
	<defs>
		<path id="SVGID_1_" d="M-177.4,199.4l-4.9,4.7c-0.1,0.1-0.4,0.1-0.5,0l-1.9-1.8c-0.1-0.1-0.1-0.4,0-0.5s0.4-0.1,0.5,0l1.6,1.5
			l4.6-4.5c0.1-0.1,0.4-0.1,0.5,0S-177.2,199.3-177.4,199.4z M-181,195c-3.3,0-6,2.7-6,6s2.7,6,6,6s6-2.7,6-6S-177.7,195-181,195z"
			/>
	</defs>
	<clipPath id="SVGID_2_">
		<use xlink:href="#SVGID_1_"  style="overflow:visible;"/>
	</clipPath>
	<rect x="-192" y="190" class="st0" width="22" height="22"/>
</g>
</svg>
