<?xml version="1.0" encoding="UTF-8"?>
<svg width="18px" height="18px" viewBox="0 0 18 18" version="1.1" xmlns="http://www.w3.org/2000/svg" xmlns:xlink="http://www.w3.org/1999/xlink">
    <!-- Generator: Sketch 42 (36781) - http://www.bohemiancoding.com/sketch -->
    <title>dianhua</title>
    <desc>Created with Sketch.</desc>
    <defs></defs>
    <g id="Page-1" stroke="none" stroke-width="1" fill="none" fill-rule="evenodd">
        <g id="dianhua" fill="#5DA4F3">
            <g id="电话" transform="translate(1.000000, 1.000000)">
                <path d="M4.16100584,7.56895653 C5.35928913,9.20060728 6.79875636,10.6407109 8.43104347,11.8389942 C8.68813664,12.0273595 9.04768526,11.9942683 9.27295997,11.7689935 L10.7207,10.3218899 C10.9956115,10.0469784 11.4079788,9.96234126 11.7694365,10.1067971 L14.3887323,11.1542609 C15.0365562,11.4138995 15.2083759,12.2513614 14.7151897,12.7445476 L14.1749123,13.2848251 C11.9444381,15.5152993 8.33049712,15.5846635 6.04720428,13.4089171 C4.8673757,12.2844526 3.714911,11.1326243 2.59108292,9.95279572 C0.415336474,7.66950288 0.484700721,4.05556194 2.71517492,1.82508774 L3.25545241,1.28481025 C3.74863857,0.791624091 4.5861005,0.963443786 4.84573915,1.61126768 L5.89320292,4.23056348 C6.03765874,4.59202121 5.95302163,5.00438848 5.67811012,5.2793 L4.23100646,6.72640366 C4.00573175,6.95231474 3.97264055,7.31186336 4.16100584,7.56895653" id="Icon"></path>
            </g>
        </g>
    </g>
</svg>