<?xml version="1.0" encoding="utf-8"?>
<!-- Generator: Adobe Illustrator 19.0.0, SVG Export Plug-In . SVG Version: 6.00 Build 0)  -->
<svg version="1.1" id="icons" xmlns="http://www.w3.org/2000/svg" xmlns:xlink="http://www.w3.org/1999/xlink" x="0px" y="0px"
	 width="140px" height="60px" viewBox="-350 268.3 140 60" style="enable-background:new -350 268.3 140 60;" xml:space="preserve">
<style type="text/css">
	.st0{clip-path:url(#SVGID_2_);}
	.st1{clip-path:url(#SVGID_4_);fill:#FFFFFF;}
	.st2{clip-path:url(#SVGID_6_);}
	.st3{clip-path:url(#SVGID_8_);fill:#FFFFFF;}
	.st4{clip-path:url(#SVGID_10_);}
	.st5{clip-path:url(#SVGID_12_);fill:#FFFFFF;}
</style>
<g>
	<g>
		<defs>
			<path id="SVGID_1_" d="M-345,290.7v6.1h3.8v12.6l-2,1.3v7.6l14.6-8.8v-7.8l-6,3.9v-14.8H-345z M-330.3,280v6.1h14.7v26h-9v6h15.5
				v-32h6V280H-330.3z M-343,278.2v7.8l10.4,3.8V282L-343,278.2z"/>
		</defs>
		<clipPath id="SVGID_2_">
			<use xlink:href="#SVGID_1_"  style="overflow:visible;"/>
		</clipPath>
		<g class="st0">
			<defs>
				<rect id="SVGID_3_" x="-363.5" y="248.1" width="2147.2" height="1838.5"/>
			</defs>
			<clipPath id="SVGID_4_">
				<use xlink:href="#SVGID_3_"  style="overflow:visible;"/>
			</clipPath>
			<rect x="-353.4" y="269.9" class="st1" width="58.9" height="56.8"/>
		</g>
	</g>
	<g>
		<defs>
			<path id="SVGID_5_" d="M-283.5,304.2v4.8l-16.5,3.5v5.8l19.9-4.4l20.2,4.4v-6l-16.9-3.5v-4.7H-283.5z M-299.1,297v12.7h6.6v-6.9
				h25v6.6h6.6V297H-299.1z M-294.8,278.9l-5.8,9.8h3.1v7.1h6.6v-10h-0.8l4.2-6.9H-294.8z M-279.9,278.9v5.1l-9,2.3v5.9l9-2.3v5.7
				h17.8l2.8-8.2h-6.3l-1,2.4h-6.7v-1.7l12.3-3.1v-5.9l-12.3,3.1v-3.4H-279.9z"/>
		</defs>
		<clipPath id="SVGID_6_">
			<use xlink:href="#SVGID_5_"  style="overflow:visible;"/>
		</clipPath>
		<g class="st2">
			<defs>
				<rect id="SVGID_7_" x="-363.5" y="248.1" width="2147.2" height="1838.5"/>
			</defs>
			<clipPath id="SVGID_8_">
				<use xlink:href="#SVGID_7_"  style="overflow:visible;"/>
			</clipPath>
			<rect x="-308.9" y="270.5" class="st3" width="58.1" height="56.2"/>
		</g>
	</g>
	<g>
		<defs>
			<path id="SVGID_9_" d="M-231.9,287.2l-24.4,30.4h41.3l-6.3-15.1h-7l3.7,9.3H-243l19.4-24.6H-231.9z M-239.5,279.3l-18.7,23.4h8.1
				l19-23.4H-239.5z"/>
		</defs>
		<clipPath id="SVGID_10_">
			<use xlink:href="#SVGID_9_"  style="overflow:visible;"/>
		</clipPath>
		<g class="st4">
			<defs>
				<rect id="SVGID_11_" x="-363.5" y="248.1" width="2147.2" height="1838.5"/>
			</defs>
			<clipPath id="SVGID_12_">
				<use xlink:href="#SVGID_11_"  style="overflow:visible;"/>
			</clipPath>
			<rect x="-266.6" y="270.9" class="st5" width="60" height="55"/>
		</g>
	</g>
</g>
</svg>
