<?xml version="1.0" encoding="UTF-8"?>
<svg width="80px" height="80px" viewBox="0 0 80 80" version="1.1" xmlns="http://www.w3.org/2000/svg" xmlns:xlink="http://www.w3.org/1999/xlink">
    <!-- Generator: Sketch 42 (36781) - http://www.bohemiancoding.com/sketch -->
    <title>moren</title>
    <desc>Created with Sketch.</desc>
    <defs></defs>
    <g id="Page-1" stroke="none" stroke-width="1" fill="none" fill-rule="evenodd">
        <g id="moren" fill="#E6E6E6">
            <g id="Page-1" transform="translate(9.000000, 30.000000)">
                <path d="M0.967699329,-4.18822149e-05 L0.967699329,3.68433657 L5.89024966,5.46307423 L5.89024966,1.77827696 L0.967699329,-4.18822149e-05 Z M6.98419597,0.804515467 L6.98419597,3.68433657 L13.9689745,3.68433657 L13.9689745,15.9654585 L9.7192698,15.9654585 L9.7192698,18.7820374 L17.082706,18.7820374 L17.082706,3.68433657 L19.9434443,3.68433657 L19.9434443,0.804515467 L6.98419597,0.804515467 Z M-0.000166442953,5.88650343 L-0.000166442953,8.76632453 L1.80906846,8.76632453 L1.80906846,14.6951709 L0.88322953,15.3305241 L0.88322953,18.9089405 L7.78395436,14.7374719 L7.78395436,11.0535123 L4.9228,12.874551 L4.9228,5.88650343 L-0.000166442953,5.88650343 Z" id="Fill-1"></path>
                <path d="M30.8630174,0.296232906 L30.8630174,2.71032378 L26.6133128,3.81140721 L26.6133128,6.60662623 L30.8630174,5.50512398 L30.8630174,8.21574093 L39.277957,8.21574093 L40.6240644,4.36173951 L37.6372456,4.36173951 L37.1745342,5.50512398 L33.976749,5.50512398 L33.976749,4.70056663 L39.7826953,3.21835504 L39.7826953,0.423136018 L33.976749,1.90576643 L33.976749,0.296232906 L30.8630174,0.296232906 Z M23.7941852,0.296232906 L21.0595275,4.91249064 L22.5321315,4.91249064 L22.5321315,8.25804197 L25.645447,8.25804197 L25.645447,3.55718216 L25.2667893,3.55718216 L27.2445477,0.296232906 L23.7941852,0.296232906 Z M21.7323732,8.85109413 L21.7323732,14.8222415 L24.8461047,14.8222415 L24.8461047,11.5612923 L36.7114067,11.5612923 L36.7114067,14.6526185 L39.8251383,14.6526185 L39.8251383,8.85109413 L21.7323732,8.85109413 Z M29.1378362,12.2389465 L29.1378362,14.5257154 L21.3116886,16.17755 L21.3116886,18.909108 L30.7369369,16.8552042 L40.3298765,18.909108 L40.3298765,16.0925291 L32.3356215,14.4411134 L32.3356215,12.2389465 L29.1378362,12.2389465 Z" id="Fill-2"></path>
                <path d="M49.9870631,0.508073149 L41.1094121,11.5616273 L44.9380161,11.5616273 L53.9421638,0.508073149 L49.9870631,0.508073149 Z M53.6055329,4.23475263 L42.0348349,18.5701972 L61.5997879,18.5701972 L58.612553,11.4343054 L55.2882711,11.4343054 L57.0554792,15.8386391 L48.3459356,15.8386391 L57.5606336,4.23475263 L53.6055329,4.23475263 Z" id="Fill-3"></path>
            </g>
        </g>
    </g>
</svg>