<?xml version="1.0" encoding="UTF-8"?>
<svg width="80px" height="80px" viewBox="0 0 80 80" version="1.1" xmlns="http://www.w3.org/2000/svg" xmlns:xlink="http://www.w3.org/1999/xlink">
    <!-- Generator: Sketch 42 (36781) - http://www.bohemiancoding.com/sketch -->
    <title>qq</title>
    <desc>Created with Sketch.</desc>
    <defs></defs>
    <g id="Page-1" stroke="none" stroke-width="1" fill="none" fill-rule="evenodd">
        <g id="qq">
            <g id="企鹅" transform="translate(11.000000, 5.000000)">
                <path d="M29.3523737,65.6806391 C27.4061325,64.1716627 24.1391384,62.8844302 19.1231156,63.348229 C9.8162026,64.2087783 7.5175953,66.81927 7.5175953,68.3843247 C7.5175953,69.9493794 12.7371497,69.8615504 19.1231156,69.8615504 C22.7484355,69.8615504 26.1022087,69.7428861 28.3243653,69.3791453 C29.0665062,69.2576656 29.7976208,69.2739361 30.3900548,69.2917998 C32.6003983,69.7043034 36.122583,69.8363558 39.9469516,69.8363558 C46.3329174,69.8363558 51.5524718,69.9241849 51.5524718,68.3591302 C51.5524718,67.0602584 49.2538645,64.1835838 39.9469516,63.3230345 C34.1474738,62.7867947 30.9435672,64.1965499 29.3523737,65.6806391 Z" id="Foot" fill="#F9AE08"></path>
                <path d="M19.2681719,2.41103804 C5.90851236,9.77308354 7.60981175,29.3726101 7.60981175,29.3726101 C7.60981175,29.3726101 5.76002743,33.5762718 4.9529067,35.6919584 C4.00875929,38.1668298 2.35600733,43.144284 2.35600733,43.144284 C2.35600733,43.144284 1.17811224,46.1102729 0.454567761,50.2517842 C-0.268976718,54.3932955 0.112306618,57.6387567 0.979202654,57.4385322 C2.68571372,57.0443841 7.06519911,49.8022568 7.06519911,49.8022568 C7.06519911,49.8022568 6.70545361,58.9970254 14.6699435,64.6169159 C21.2115221,69.5803258 29.0195194,69.2413186 29.0195194,69.2413186 L29.8936937,69.2413186 C29.8936937,69.2413186 37.8321975,69.6457057 44.3737761,64.6822959 C52.338266,59.0624054 51.9785205,49.8676368 51.9785205,49.8676368 C51.9785205,49.8676368 56.3580058,57.1097641 58.0645169,57.5039122 C58.931413,57.7041367 59.3126963,54.4586755 58.5891518,50.3171642 C57.8656073,46.1756528 56.6877122,43.209664 56.6877122,43.209664 C56.6877122,43.209664 55.0349603,38.2322097 54.0908129,35.7573384 C53.2836921,33.6416518 51.4339078,29.4379901 51.4339078,29.4379901 C51.4339078,29.4379901 53.1352072,9.83846351 39.7755477,2.47641801 C38.9517131,2.1099063 38.1823372,1.75120758 37.3924919,1.48006216 C33.2601968,-0.118250303 26.7968174,-1.10259533 19.2681719,2.41103804 Z" id="Body" fill="#000000"></path>
                <path d="M13.7568997,55.9745019 C15.9429306,62.4656966 20.9130188,66.7510547 29.5741206,66.7510549 C42.8868758,66.2392245 46.6959799,56.8663711 46.6959799,44.6729958 C46.6959799,42.0077567 46.3297302,39.4528214 45.6585881,37.0873081 C39.520179,36.8758603 23.490151,36.8758603 13.5506037,36.8758602 C12.8407158,39.3003 12.4522613,41.9281523 12.4522613,44.6729958 C12.4522613,48.7753271 12.6485356,52.6833283 13.7568997,55.9745019 Z" id="Oval-7" fill="#FFFFFF"></path>
                <ellipse id="Eye-Left-Bg" fill="#FFFFFF" cx="23.718593" cy="14.3987342" rx="3.85427136" ry="5.53797468"></ellipse>
                <ellipse id="Eye-Right-Bg" fill="#FFFFFF" cx="35.281407" cy="14.3987342" rx="3.85427136" ry="5.53797468"></ellipse>
                <ellipse id="Eye-Left" fill="#000000" cx="24.9045226" cy="14.7679325" rx="1.63065327" ry="2.21518987"></ellipse>
                <path d="M32.3082588,15.0282461 C32.3082588,15.0282461 32.2417747,15.8140545 32.9904,15.7314896 C33.857336,14.4888705 35.0885053,14.5966735 35.0885053,14.5966735 C35.0885053,14.5966735 36.4182243,14.5923469 36.8132208,15.1368784 C37.5841766,15.1368785 37.684681,14.321289 37.684681,14.321289 C37.684681,14.321289 37.0074616,13.1609464 34.9931039,13.3717211 C33.1063944,13.6285375 32.3082588,15.0282461 32.3082588,15.0282461 Z" id="Eye-Right" fill="#000000"></path>
                <path d="M16.3949852,24.8105592 C16.3949852,24.8105592 15.645817,24.3753811 16.5750027,23.7943265 C17.5041884,23.2132718 20.4166795,21.6583844 29.4753168,21.574089 C37.9833668,21.494917 41.5822109,23.0635025 42.6083451,23.9836127 C42.975329,24.2582761 42.8872022,24.4138874 42.8426864,24.5547885 C42.6083451,25.3370274 35.4050378,28.8538579 29.6906579,28.7001211 C21.6642074,28.7001211 16.3949852,24.8105592 16.3949852,24.8105592 Z" id="Mouth" fill="#F9AE08"></path>
                <path d="M28.1788582,32.4744528 C15.7161736,32.0126665 7.54973353,29.3610727 7.54973353,29.3610727 C7.54973353,29.3610727 6.37902522,32.0560496 5.86768805,33.3146674 C5.32092466,34.6604841 4.37543185,37.1743762 4.37543185,37.1743762 C4.37543185,37.1743762 11.2949955,39.3171685 15.7161736,39.8300081 L15.7161736,49.986644 C15.7161736,49.986644 20.6767529,50.9287439 25.29105,50.2429869 L25.29105,40.9294869 C25.29105,40.9294869 40.3815415,42.0157775 54.5840334,37.1743762 C53.9626943,35.4097236 53.4277094,34.0916124 52.9617767,32.9561412 C52.0074621,30.6304909 51.4136405,29.4483246 51.4136405,29.4483246 C51.4136405,29.4483246 39.3122939,32.9676787 28.1788582,32.4744528 Z" id="Round" fill="#E82220"></path>
            </g>
        </g>
    </g>
</svg>