<?xml version="1.0" encoding="utf-8"?>
<!-- Generator: Adobe Illustrator 19.0.0, SVG Export Plug-In . SVG Version: 6.00 Build 0)  -->
<svg version="1.1" id="icons" xmlns="http://www.w3.org/2000/svg" xmlns:xlink="http://www.w3.org/1999/xlink" x="0px" y="0px"
	 width="18px" height="18px" viewBox="-190 192 18 18" style="enable-background:new -190 192 18 18;" xml:space="preserve">
<style type="text/css">
	.st0{clip-path:url(#SVGID_2_);fill:#FFFFFF;}
</style>
<g>
	<defs>
		<path id="SVGID_1_" d="M-180,201v5c0,0.6,0.4,1,1,1c0.6,0,1-0.4,1-1v-5c0-0.6-0.4-1-1-1C-179.6,200-180,200.4-180,201z M-184,201
			v5c0,0.6,0.4,1,1,1c0.6,0,1-0.4,1-1v-5c0-0.6-0.4-1-1-1C-183.6,200-184,200.4-184,201z M-176,208c0,0.5-0.5,1-1,1h-8
			c-0.5,0-1-0.4-1-1v-9c0-0.5,0.5-1,1-1h8c0.5,0,1,0.4,1,1V208z M-183,195h-4c-0.6,0-1,0.4-1,1c0,0.6,0.5,1,1,1h12c0.6,0,1-0.4,1-1
			c0-0.6-0.5-1-1-1h-4c0-1.1-0.9-2-2-2S-183,193.9-183,195z"/>
	</defs>
	<clipPath id="SVGID_2_">
		<use xlink:href="#SVGID_1_"  style="overflow:visible;"/>
	</clipPath>
	<rect x="-193" y="188" class="st0" width="24" height="26"/>
</g>
</svg>
