<?xml version="1.0" encoding="UTF-8"?>
<svg width="40px" height="40px" viewBox="0 0 40 40" version="1.1" xmlns="http://www.w3.org/2000/svg" xmlns:xlink="http://www.w3.org/1999/xlink">
    <!-- Generator: Sketch 42 (36781) - http://www.bohemiancoding.com/sketch -->
    <title>shangchuan</title>
    <desc>Created with Sketch.</desc>
    <defs></defs>
    <g id="Page-1" stroke="none" stroke-width="1" fill="none" fill-rule="evenodd">
        <g id="shangchuan" fill="#E6E6E6">
            <path d="M22.0895522,35 L30.4477612,35 L30.4477612,34.9955413 C35.7500842,34.8369424 40,30.4672633 40,25.1 C40,19.632381 35.5896707,15.2 30.1492537,15.2 C30.0478616,15.2 29.9468273,15.2015395 29.8461726,15.2045965 C29.8492144,15.1034386 29.8507463,15.0018991 29.8507463,14.9 C29.8507463,9.43238098 25.4404169,5 20,5 C14.5595831,5 10.1492537,9.43238098 10.1492537,14.9 C10.1492537,15.0018991 10.1507856,15.1034386 10.1538274,15.2045965 C10.0531727,15.2015395 9.95213838,15.2 9.85074627,15.2 C4.41032933,15.2 0,19.632381 0,25.1 C0,30.4672633 4.24991578,34.8369424 9.55223881,34.9955413 L9.55223881,35 L18.5074627,35 L18.5074627,28.2939453 L16.1823006,28.2939453 C14.5199347,28.2939453 13.9197955,27.1676977 14.8315423,25.7784009 L19.2019458,19.1188902 C19.8092704,18.1934642 20.7894551,18.1960702 21.3950694,19.1188902 L25.7654727,25.7784009 C26.6814127,27.1740871 26.0724644,28.2939453 24.4147143,28.2939453 L22.0895522,28.2939453 L22.0895522,35 Z" id="Cloud-Icon"></path>
        </g>
    </g>
</svg>