<?xml version="1.0" encoding="UTF-8"?>
<svg width="130px" height="20px" viewBox="0 0 130 20" version="1.1" xmlns="http://www.w3.org/2000/svg" xmlns:xlink="http://www.w3.org/1999/xlink">
    <!-- Generator: Sketch 42 (36781) - http://www.bohemiancoding.com/sketch -->
    <title>slogan</title>
    <desc>Created with Sketch.</desc>
    <defs></defs>
    <g id="Page-1" stroke="none" stroke-width="1" fill="none" fill-rule="evenodd">
        <g id="slogan" fill="#4DA1FF">
            <g id="Page-1" transform="translate(2.000000, 1.000000)">
                <path d="M81.9761216,13.8013552 L81.9761216,3.84692683 L76.3586899,3.84692683 L76.3586899,1.51311664 L86.7811362,1.51311664 L86.7811362,3.84692683 L84.4802622,3.84692683 L84.4802622,16.083786 L78.5582554,16.083786 L78.5582554,13.8013552 L81.9761216,13.8013552 Z M71.5192563,3.84692683 L71.5192563,0.860993558 L75.4787339,2.30225145 L75.4787339,5.28884343 L71.5192563,3.84692683 Z M74.7000864,5.63203144 L74.7000864,11.2956216 L77.0016099,9.8201108 L77.0016099,12.8060441 L71.4517173,16.1872035 L71.4517173,13.2862438 L72.1959458,12.7717911 L72.1959458,7.96650034 L70.7412583,7.96650034 L70.7412583,5.63203144 L74.7000864,5.63203144 Z" id="Fill-1"></path>
                <path d="M100.639892,5.32303049 L101.012006,4.39622526 L103.414838,4.39622526 L102.331616,7.51982896 L95.5634224,7.51982896 L95.5634224,5.32303049 L92.1455562,6.21558279 L92.1455562,3.95027846 L95.5634224,3.05772616 L95.5634224,1.10135691 L98.0682124,1.10135691 L98.0682124,2.40560307 L102.738149,1.20411569 L102.738149,3.46942003 L98.0682124,4.6709074 L98.0682124,5.32303049 L100.639892,5.32303049 Z M102.771918,8.03494033 L102.771918,12.7374723 L100.267778,12.7374723 L100.267778,10.2317388 L90.7246382,10.2317388 L90.7246382,12.8744841 L88.2204976,12.8744841 L88.2204976,8.03494033 L102.771918,8.03494033 Z M87.8821528,13.9732127 L94.1762739,12.6340548 L94.1762739,10.7804444 L96.7479536,10.7804444 L96.7479536,12.565549 L103.177802,13.9040481 L103.177802,16.1871376 L95.4621138,14.522577 L87.8821528,16.1871376 L87.8821528,13.9732127 Z M89.8784517,1.10135691 L92.6533979,1.10135691 L91.0629829,3.74410217 L91.3675581,3.74410217 L91.3675581,7.55408189 L88.8634175,7.55408189 L88.8634175,4.84283076 L87.6788862,4.84283076 L89.8784517,1.10135691 Z" id="Fill-2"></path>
                <path d="M115.208977,10.1286507 L117.882615,10.1286507 L120.284797,15.9121261 L104.548845,15.9121261 L113.855598,4.29313711 L117.036428,4.29313711 L109.625315,13.6982012 L116.630544,13.6982012 L115.208977,10.1286507 Z M110.944924,1.27295091 L114.126404,1.27295091 L106.884138,10.2314094 L103.804617,10.2314094 L110.944924,1.27295091 Z" id="Fill-3"></path>
                <path d="M1.29869824,1.46279118 L4.51264844,5.04090492 L4.51264844,3.9276847 L1.29869824,0.35022968 L1.29869824,1.46279118 Z M5.6101582,1.46279118 L5.6101582,2.17815045 L13.3706562,2.17815045 L13.3706562,16.0934031 L9.29493359,16.0934031 L9.68653027,16.8087624 L14.154499,16.8087624 L14.154499,2.17815045 L17.5262568,2.17815045 L17.5262568,1.46279118 L5.6101582,1.46279118 Z M3.02289258,6.23317035 L0.0446796875,6.23317035 L0.0446796875,6.94984704 L2.31762891,6.94984704 L2.31762891,15.2192947 L1.84745312,15.616497 L1.84745312,16.4906054 L6.08033398,13.0725582 L6.08033398,12.1174284 L3.10147168,14.5836394 L3.10147168,6.23317035 L3.02289258,6.23317035 Z" id="Fill-4"></path>
                <path d="M33.4524224,17.0480718 L26.3186089,14.5034744 L26.3186089,13.6287072 L33.4524224,16.0936007 L33.4524224,17.0480718 Z M33.8446685,3.53002136 L33.7660894,6.47247976 L27.2596099,6.47247976 L27.2596099,4.08663147 L22.9475005,5.99491488 L22.9475005,5.12014775 L27.2596099,3.21186434 L27.2596099,0.428813805 L28.0434526,0.428813805 L28.0434526,2.8146621 L33.6875103,0.349768583 L33.6875103,1.22453571 L28.0434526,3.68942923 L28.0434526,5.7571205 L33.0608257,5.7571205 L33.1394048,3.13281912 L33.8446685,3.53002136 Z M20.0472173,6.71093285 L20.8310601,6.71093285 L20.8310601,2.73495817 L20.0472173,2.73495817 L20.0472173,6.71093285 Z M32.7471587,8.38076317 L32.7471587,13.9468642 L31.9633159,13.9468642 L31.9633159,9.09612244 L19.8121294,9.09612244 L19.8121294,13.9468642 L19.0282866,13.9468642 L19.0282866,8.38076317 L32.7471587,8.38076317 Z M18.5574614,16.9677092 L26.3186089,13.6287072 L26.3186089,9.65273254 L25.5347661,9.65273254 L25.5347661,13.1511423 L18.5574614,16.0936007 L18.5574614,16.9677092 Z M22.0850786,1.22453571 L18.009356,4.48383371 L18.009356,3.45031743 L22.0850786,0.27006465 L22.0850786,1.22453571 Z" id="Fill-5"></path>
                <path d="M49.6919951,0.190887686 L51.3389092,3.05298345 L50.3979082,3.05298345 L48.7509941,0.190887686 L49.6919951,0.190887686 Z M51.8870146,12.5950592 L51.6519268,16.729783 L47.4190459,16.729783 L47.6534844,5.67662612 L46.4780449,5.67662612 L43.9693584,16.6500791 L43.1855156,16.6500791 L45.6942021,5.67662612 L42.7939189,5.67662612 L42.7939189,4.96126686 L45.7721318,4.96126686 L45.7721318,0.190887686 L46.556624,0.190887686 L46.556624,4.96126686 L51.7305059,4.96126686 L51.7305059,5.67662612 L48.4379766,5.67662612 L48.2028887,16.0144238 L50.868084,16.0144238 L51.1031719,11.7993373 L51.8870146,12.5950592 Z M41.225584,10.8455249 L42.7939189,14.3439347 L41.9314971,14.3439347 L40.3631621,10.8455249 L41.225584,10.8455249 Z M36.0517021,8.69878845 L41.0690752,8.69878845 L41.0690752,4.88222163 L36.0517021,4.88222163 L36.0517021,8.69878845 Z M35.8951934,16.0144238 L38.5603887,16.0144238 L38.5603887,9.41480642 L35.2678594,9.41480642 L35.2678594,4.08649973 L35.4250176,4.08649973 L41.852918,4.08649973 L41.852918,9.41480642 L39.3442314,9.41480642 L39.3442314,16.6500791 L39.3442314,16.729783 L36.4439482,16.729783 L35.8951934,16.0144238 Z M36.2088604,10.8455249 L34.6405254,15.8550159 L35.4250176,15.8550159 L37.0706328,10.8455249 L36.2088604,10.8455249 Z M34.2489287,1.70131014 L38.4818096,1.70131014 L37.7765459,0.190887686 L38.7168975,0.190887686 L39.4221611,1.70131014 L43.1855156,1.70131014 L43.1855156,2.41666941 L34.2489287,2.41666941 L34.2489287,1.70131014 Z" id="Fill-6"></path>
                <path d="M60.7585303,11.4018057 L67.1864307,11.4018057 L67.1864307,6.79017569 L60.7585303,6.79017569 L60.7585303,11.4018057 Z M60.7585303,5.99511249 L67.1864307,5.99511249 L67.1864307,1.70098079 L60.7585303,1.70098079 L60.7585303,5.99511249 Z M53.8598047,11.4024644 L59.9746875,11.4024644 L59.9746875,6.7908344 L53.8598047,6.7908344 L53.8598047,11.4024644 Z M53.8598047,5.99511249 L59.9746875,5.99511249 L59.9746875,1.70098079 L53.8598047,1.70098079 L53.8598047,5.99511249 Z M60.7585303,12.1178237 L60.7585303,16.7301124 L59.9746875,16.7301124 L59.9746875,12.1178237 L53.8598047,12.1178237 L53.3896289,16.7301124 L52.6057861,16.7301124 L53.0759619,11.8793706 L53.0759619,0.985621526 L67.9702734,0.985621526 L67.9702734,16.7301124 L67.9702734,16.8091576 L65.1485693,16.8091576 L64.6783936,16.0931396 L67.1864307,16.0931396 L67.1864307,12.1178237 L60.7585303,12.1178237 Z" id="Fill-7"></path>
                <path d="M123.67909,0.826081919 L123.914827,12.5155529 L124.855179,12.5155529 L125.168846,0.826081919 L123.67909,0.826081919 Z M123.757669,16.649618 L125.168846,16.649618 L125.168846,15.0594916 L123.757669,15.0594916 L123.757669,16.649618 Z" id="Fill-8"></path>
            </g>
        </g>
    </g>
</svg>