<?xml version="1.0" encoding="UTF-8"?>
<svg width="500px" height="60px" viewBox="0 0 500 60" version="1.1" xmlns="http://www.w3.org/2000/svg" xmlns:xlink="http://www.w3.org/1999/xlink" style="background: #FFFFFF;">
    <!-- Generator: Sketch 42 (36781) - http://www.bohemiancoding.com/sketch -->
    <title>wenzu-1</title>
    <desc>Created with Sketch.</desc>
    <defs></defs>
    <g id="Page-1" stroke="none" stroke-width="1" fill="none" fill-rule="evenodd">
        <g id="wenzu-1" fill="#FFFFFF">
            <path d="M24.484375,8.046875 L54.75,8.046875 L54.75,15.96875 L46.828125,15.96875 L46.828125,45.015625 C47.0989597,50.4323187 44.3229458,53.2083327 38.5,53.34375 L34.84375,53.34375 C32.6770725,53.4791673 30.9843811,53.546875 29.765625,53.546875 C29.765625,53.2760403 29.6302097,52.7343791 29.359375,51.921875 C28.6822883,48.9426934 28.2083347,46.9114637 27.9375,45.828125 C30.3750122,45.9635423 32.7447802,46.03125 35.046875,46.03125 C37.3489698,46.1666673 38.4322923,45.0156372 38.296875,42.578125 L38.296875,15.96875 L24.484375,15.96875 L24.484375,8.046875 Z M24.078125,34.65625 C24.8906291,38.0416836 25.7031209,41.0885281 26.515625,43.796875 C19.7447578,48.536482 15.4791755,51.9895725 13.71875,54.15625 L8.234375,47.65625 C9.85938312,46.1666592 10.6041673,44.3385525 10.46875,42.171875 L10.46875,28.765625 L6,28.765625 L6,20.84375 L19,20.84375 L19,38.921875 C19.9479214,38.2447883 21.6406128,36.8229275 24.078125,34.65625 Z M14.9375,5 C15.343752,5.54166937 16.0208286,6.28645359 16.96875,7.234375 C19.4062622,9.94272188 21.2343689,12.1093669 22.453125,13.734375 L15.34375,18.8125 C13.4479072,15.9687358 11.0781392,12.9218912 8.234375,9.671875 L14.9375,5 Z M105.30125,6.625 L108.754375,12.515625 C106.587697,13.3281291 104.48876,14.0052056 102.4575,14.546875 C103.270004,14.8177097 104.82728,15.3593709 107.129375,16.171875 C108.618966,16.7135444 109.566873,17.0520827 109.973125,17.1875 C109.566873,19.2187602 109.160627,20.8437439 108.754375,22.0625 C107.806454,25.1770989 105.368978,26.6666673 101.441875,26.53125 L90.066875,26.53125 C85.73352,26.6666673 83.6345826,24.4323147 83.77,19.828125 C82.1449919,20.234377 80.3845928,20.640623 78.48875,21.046875 C78.2179153,20.5052056 77.5408387,19.0833448 76.4575,16.78125 C76.0512479,15.6979113 75.7127097,14.8854194 75.441875,14.34375 C78.4210565,13.6666633 81.1970704,13.0572944 83.77,12.515625 L83.77,5.40625 L91.895,5.40625 L91.895,10.484375 C93.9262601,10.078123 96.905397,9.26563109 100.8325,8.046875 C102.728343,7.36978828 104.217911,6.89583469 105.30125,6.625 Z M65.691875,43.796875 L65.691875,27.953125 L105.30125,27.953125 L105.30125,43.1875 L97.17625,43.1875 L97.17625,34.65625 L73.816875,34.65625 L73.816875,43.796875 L65.691875,43.796875 Z M81.535625,35.875 L89.86375,35.875 C89.7283326,37.0937561 89.5252097,38.2447863 89.254375,39.328125 C89.254375,39.8697944 89.1189597,40.4791633 88.848125,41.15625 C90.2022984,41.562502 92.4366511,42.2395786 95.55125,43.1875 C102.051282,45.0833428 106.723111,46.5052036 109.566875,47.453125 L106.11375,53.953125 C99.0720481,51.3801955 92.1658672,49.1458428 85.395,47.25 C81.874149,50.5000162 74.7648451,52.7343689 64.066875,53.953125 C63.2543709,51.9218648 62.1710484,49.6198045 60.816875,47.046875 C73.81694,46.5052056 80.5877056,43.9323147 81.129375,39.328125 C81.4002097,38.2447863 81.535625,37.0937561 81.535625,35.875 Z M75.23875,26.9375 L67.316875,26.9375 L67.316875,19.828125 C67.0460403,20.0989597 66.5720867,20.437498 65.895,20.84375 C64.6762439,21.5208367 63.7960444,22.062498 63.254375,22.46875 L62.645,20.640625 C61.9679133,17.9322781 61.3585444,15.9010484 60.816875,14.546875 C65.6918994,12.1093628 69.5512358,8.99481063 72.395,5.203125 L80.11375,7.84375 C78.4887419,9.87501016 76.8637581,11.7031169 75.23875,13.328125 L75.23875,26.9375 Z M102.4575,14.546875 C98.8012317,15.7656311 95.2804336,16.8489536 91.895,17.796875 L91.895,18 C91.895,19.3541734 92.6397842,20.03125 94.129375,20.03125 L99.2075,20.03125 C100.832508,20.1666673 101.780415,19.4895908 102.05125,18 C102.186667,17.593748 102.254375,17.0520867 102.254375,16.375 C102.389792,15.5624959 102.4575,14.953127 102.4575,14.546875 Z M151.79,31.40625 C156.258772,37.5000305 160.65977,43.3228889 164.993125,48.875 L157.07125,53.75 C156.394163,52.5312439 155.649379,51.3125061 154.836875,50.09375 C153.888954,50.09375 152.399385,50.1614577 150.368125,50.296875 C139.670155,50.8385444 132.899389,51.2447903 130.055625,51.515625 C128.430617,51.515625 125.790018,51.8541633 122.13375,52.53125 L117.868125,44.8125 C119.493133,44.2708306 121.659778,42.7812622 124.368125,40.34375 C133.441087,31.9478747 141.972252,22.4688028 149.961875,11.90625 L158.086875,17.390625 C149.284748,27.6823431 140.685875,36.4843384 132.29,43.796875 C134.727512,43.796875 138.857679,43.6614597 144.680625,43.390625 C147.118137,43.2552077 148.946244,43.1875 150.165,43.1875 C149.623331,42.2395786 148.743131,40.8854255 147.524375,39.125 C146.441036,37.3645745 145.628544,36.1458367 145.086875,35.46875 L151.79,31.40625 Z M135.13375,5.40625 L143.055625,10.484375 C136.961844,18.0677462 129.920248,25.1770502 121.930625,31.8125 C119.493113,29.1041531 117.394175,26.8698005 115.63375,25.109375 C123.081704,19.4218466 129.581639,12.8542039 135.13375,5.40625 Z M173.4975,7.640625 L217.3725,7.640625 L217.3725,15.15625 L199.700625,15.15625 L199.700625,31.609375 L219.81,31.609375 L219.81,39.53125 L199.700625,39.53125 L199.700625,53.953125 L191.169375,53.953125 L191.169375,39.53125 L171.06,39.53125 L171.06,31.609375 L191.169375,31.609375 L191.169375,15.15625 L173.4975,15.15625 L173.4975,7.640625 Z M179.388125,16.375 C183.179811,20.1666856 186.226655,23.2812378 188.52875,25.71875 L182.231875,31 C179.388111,27.4791491 176.476682,24.2291816 173.4975,21.25 L179.388125,16.375 Z M210.8725,16.375 L217.169375,21.046875 C214.461028,24.2968912 211.414184,27.6145664 208.02875,31 L202.34125,25.71875 C205.726684,22.3333164 208.570405,19.2187642 210.8725,16.375 Z M230.54875,53.953125 L230.54875,30.1875 L270.158125,30.1875 L270.158125,53.953125 L261.83,53.953125 L261.83,51.109375 L238.876875,51.109375 L238.876875,53.953125 L230.54875,53.953125 Z M260.61125,10.28125 C266.840448,16.1041958 271.647691,20.8437317 275.033125,24.5 L268.533125,29.375 C268.126873,28.968748 267.585212,28.3593791 266.908125,27.546875 L265.283125,25.921875 C262.574778,25.921875 258.241488,26.0572903 252.283125,26.328125 C246.324762,26.4635423 241.991472,26.5989577 239.283125,26.734375 C235.762274,27.0052097 232.783137,27.343748 230.345625,27.75 L226.48625,20.234375 C229.330014,18.7447842 231.699782,17.2552158 233.595625,15.765625 C237.387311,12.7864434 241.178939,9.19793766 244.970625,5 L254.11125,8.65625 C249.642478,12.4479356 245.106065,16.0364414 240.501875,19.421875 C243.074804,19.2864577 248.288294,19.0833347 256.1425,18.8125 C255.194579,18.9479173 256.074778,18.9479173 258.783125,18.8125 C257.564369,17.3229092 256.210216,15.9010484 254.720625,14.546875 L260.61125,10.28125 Z M238.876875,37.5 L238.876875,44.203125 L261.83,44.203125 L261.83,37.5 L238.876875,37.5 Z M281.50625,51.921875 L281.50625,44.203125 L294.50625,44.203125 L294.50625,36.28125 L288.81875,38.3125 C287.193742,33.1666409 284.688558,25.7187988 281.303125,15.96875 L288.615625,13.53125 L290.44375,18.40625 C292.204175,23.5521091 293.558328,27.4791531 294.50625,30.1875 L294.50625,5.8125 L302.834375,5.8125 L302.834375,44.203125 L308.115625,44.203125 L308.115625,5.8125 L316.44375,5.8125 L316.44375,29.78125 C316.985419,28.4270766 317.797911,26.2604316 318.88125,23.28125 C320.506258,18.947895 321.657288,15.7656352 322.334375,13.734375 L329.85,16.375 C326.870818,24.7708753 324.162512,31.9478869 321.725,37.90625 L316.44375,35.875 L316.44375,44.203125 L329.240625,44.203125 L329.240625,51.921875 L281.50625,51.921875 Z M381.010625,44.203125 C381.010625,50.2969055 377.557534,53.2760423 370.65125,53.140625 C368.890824,53.2760423 365.708565,53.34375 361.104375,53.34375 C361.104375,53.0729153 361.036667,52.734377 360.90125,52.328125 C360.359581,49.4843608 359.885627,47.3854234 359.479375,46.03125 C363.541895,46.1666673 366.85957,46.234375 369.4325,46.234375 C371.599177,46.3697923 372.6825,45.4895928 372.6825,43.59375 C372.6825,43.187498 372.750208,42.6458367 372.885625,41.96875 L372.885625,40.34375 L360.08875,40.34375 C358.599159,46.3021131 351.963809,50.9062338 340.1825,54.15625 C338.963744,51.7187378 337.541883,49.4166775 335.916875,47.25 C344.448168,45.3541572 349.458534,43.0520969 350.948125,40.34375 L338.5575,40.34375 L338.5575,33.4375 L353.385625,33.4375 C353.385625,32.7604133 353.52104,31.6770908 353.791875,30.1875 C353.52104,31.1354214 353.52104,30.9322984 353.791875,29.578125 C349.45852,30.5260464 344.24503,31.4062459 338.15125,32.21875 C338.015833,31.812498 337.609587,30.8645908 336.9325,29.375 C336.119996,27.4791572 335.578335,26.1250041 335.3075,25.3125 C342.213784,24.4999959 347.698105,23.6197964 351.760625,22.671875 C350.948121,22.1302056 349.729383,21.1822984 348.104375,19.828125 C347.427288,19.2864556 346.885627,18.8802097 346.479375,18.609375 C345.937706,19.015627 345.057506,19.6249959 343.83875,20.4375 C342.890828,21.1145867 342.146044,21.656248 341.604375,22.0625 C339.437697,19.6249878 337.609591,17.6614658 336.12,16.171875 C342.078363,12.6510241 346.817899,9.06251828 350.33875,5.40625 L359.479375,5.8125 C358.802288,6.89583875 358.057504,7.84374594 357.245,8.65625 L380.604375,8.65625 L380.604375,15.5625 C377.625193,18.2708469 374.646056,20.5729072 371.666875,22.46875 C375.593978,23.2812541 380.198098,23.890623 385.479375,24.296875 C385.20854,24.9739617 384.802294,26.1249919 384.260625,27.75 C383.583538,29.6458428 383.109585,30.9322883 382.83875,31.609375 C373.224118,30.3906189 366.047107,28.9687581 361.3075,27.34375 C359.140822,28.1562541 356.703347,28.8333306 353.995,29.375 L362.12,29.375 C362.12,30.8645908 361.984585,32.2187439 361.71375,33.4375 L381.62,33.4375 C381.484583,37.5000203 381.28146,41.0885261 381.010625,44.203125 Z M353.385625,15.15625 C355.823137,17.0520928 358.599151,18.5416613 361.71375,19.625 C364.557514,18.4062439 367.26582,16.9166755 369.83875,15.15625 L353.385625,15.15625 Z M402.10875,32.015625 L402.10875,27.140625 C400.07749,28.7656331 397.843137,30.1874939 395.405625,31.40625 C393.645199,28.2916511 392.020216,25.7864678 390.530625,23.890625 C400.551508,18.4739313 407.593105,12.2448269 411.655625,5.203125 L421.811875,5.609375 C421.405623,6.42187906 420.931669,7.23437094 420.39,8.046875 C425.129607,14.1406555 431.900373,19.0833144 440.7025,22.875 C438.806657,25.4479295 437.046258,28.0885281 435.42125,30.796875 C433.119155,29.4427016 430.95251,28.0885484 428.92125,26.734375 L428.92125,53.34375 L420.186875,53.34375 L420.186875,26.328125 L428.311875,26.328125 C423.166016,22.8072741 419.035849,18.9479377 415.92125,14.75 C412.535816,18.9479377 408.270234,22.8749817 403.124375,26.53125 L410.64,26.53125 L410.64,31.8125 C411.181669,41.6979661 407.796286,49.2135159 400.48375,54.359375 C398.45249,52.3281148 396.218137,50.2968852 393.780625,48.265625 C399.874405,44.6093567 402.650419,39.1927442 402.10875,32.015625 Z M473.581875,53.75 L465.66,53.75 L465.66,30.796875 L493.285,30.796875 L493.285,53.75 L485.363125,53.75 L485.363125,51.3125 L473.581875,51.3125 L473.581875,53.75 Z M476.670881,21.6584643 C479.223124,21.7924054 481.172602,21.859375 482.519375,21.859375 C484.415218,21.859375 485.363125,20.9114678 485.363125,19.015625 C485.363125,17.2551995 485.430833,15.6302158 485.56625,14.140625 L478.66,14.140625 C478.550486,16.8237117 477.887449,19.3296544 476.670881,21.6584643 L476.670881,21.6584643 Z M476.645529,21.7068176 C474.850629,25.1175846 471.865877,28.1475922 467.69125,30.796875 C467.420415,30.390623 466.946462,29.8489617 466.269375,29.171875 C465.727705,28.3593709 464.44126,26.9375102 462.41,24.90625 C467.826694,21.7916511 470.602708,18.2031453 470.738125,14.140625 L465.050625,14.140625 L465.050625,7.234375 L493.69125,7.234375 L493.69125,8.65625 C493.420415,15.1562825 493.217292,19.3541572 493.081875,21.25 C493.081875,26.2604417 490.441276,28.765625 485.16,28.765625 C483.399574,28.9010423 481.165222,28.96875 478.456875,28.96875 L477.8475,26.53125 C477.446841,24.5279546 477.046188,22.9198261 476.645529,21.7068176 L476.645529,21.7068176 Z M476.645529,21.7068176 C476.654006,21.6907083 476.662457,21.6745905 476.670881,21.6584643 C476.656856,21.6577282 476.642812,21.6569901 476.62875,21.65625 C476.634343,21.6730289 476.639936,21.6898847 476.645529,21.7068176 L476.645529,21.7068176 Z M456.31625,33.4375 C456.993337,33.3020827 458.212074,33.1666673 459.9725,33.03125 C461.732925,32.7604153 462.951663,32.625 463.62875,32.625 C463.62875,32.8958347 463.561042,33.3697883 463.425625,34.046875 C463.290208,36.4843872 463.2225,38.3124939 463.2225,39.53125 C459.701649,39.8020847 456.180851,40.140623 452.66,40.546875 C451.170409,40.6822923 449.816256,40.8854153 448.5975,41.15625 L446.56625,34.453125 C447.920423,33.5052036 449.139161,32.2187581 450.2225,30.59375 C451.035004,29.5104113 451.982911,28.1562581 453.06625,26.53125 C451.712076,26.6666673 450.1548,26.8020827 448.394375,26.9375 C448.66521,26.9375 448.394379,27.0052077 447.581875,27.140625 L445.550625,20.4375 C446.769381,19.4895786 447.920411,17.8645948 449.00375,15.5625 C450.493341,12.5833184 451.915201,9.06252031 453.269375,5 L461.394375,7.4375 C458.821445,12.3125244 456.451677,16.3749838 454.285,19.625 L457.12875,19.625 C457.264167,19.3541653 457.534998,18.9479194 457.94125,18.40625 C458.347502,17.7291633 458.956871,16.5781331 459.769375,14.953125 L466.4725,18.203125 C462.951649,23.7552361 459.566266,28.8333103 456.31625,33.4375 Z M446.9725,51.515625 L445.75375,44 C451.712113,43.593748 457.941217,42.9843791 464.44125,42.171875 L464.44125,43.1875 C464.170415,45.8958469 464.035,47.9270766 464.035,49.28125 C459.701645,49.687502 454.014202,50.4322863 446.9725,51.515625 Z M473.581875,37.90625 L473.581875,44.609375 L485.363125,44.609375 L485.363125,37.90625 L473.581875,37.90625 Z" id="华奕优选平台业务介绍"></path>
        </g>
    </g>
</svg>