<?xml version="1.0" encoding="utf-8"?>
<!-- Generator: Adobe Illustrator 19.0.0, SVG Export Plug-In . SVG Version: 6.00 Build 0)  -->
<svg version="1.1" id="图层_1" xmlns="http://www.w3.org/2000/svg" xmlns:xlink="http://www.w3.org/1999/xlink" x="0px" y="0px"
	 width="18px" height="18px" viewBox="-411 289.3 18 18" style="enable-background:new -411 289.3 18 18;" xml:space="preserve">
<style type="text/css">
	.st0{clip-path:url(#SVGID_2_);}
	.st1{clip-path:url(#SVGID_4_);fill:#999999;}
</style>
<title>zixun</title>
<desc>Created with Sketch.</desc>
<g>
	<defs>
		<path id="SVGID_1_" d="M-409.9,292.4c0-0.5,0.5-0.9,1-1c4.6-0.2,9-0.2,13.7,0c0.5,0,1,0.4,1,1c0.2,3.2,0.2,6.4,0,9.6
			c0,0.5-0.5,0.9-1,1c-3.4,0.2-6.6,0.2-10-0.1l-3.1,2.2c-0.7,0.5-1.6,0-1.7-0.8C-410,300.4-410,296.3-409.9,292.4z"/>
	</defs>
	<clipPath id="SVGID_2_">
		<use xlink:href="#SVGID_1_"  style="overflow:visible;"/>
	</clipPath>
	<g class="st0">
		<defs>
			<rect id="SVGID_3_" x="-1402" y="-718.7" width="1280" height="1865"/>
		</defs>
		<clipPath id="SVGID_4_">
			<use xlink:href="#SVGID_3_"  style="overflow:visible;"/>
		</clipPath>
		<rect x="-415" y="286.3" class="st1" width="26" height="24"/>
	</g>
</g>
</svg>
