<?xml version="1.0" encoding="utf-8"?>
<!-- Generator: Adobe Illustrator 19.0.0, SVG Export Plug-In . SVG Version: 6.00 Build 0)  -->
<svg version="1.1" id="icons" xmlns="http://www.w3.org/2000/svg" xmlns:xlink="http://www.w3.org/1999/xlink" x="0px" y="0px"
	 width="32px" height="32px" viewBox="-404 282.3 32 32" style="enable-background:new -404 282.3 32 32;" xml:space="preserve">
<style type="text/css">
	.st0{clip-path:url(#SVGID_2_);fill:#FFFFFF;}
	.st1{clip-path:url(#SVGID_4_);fill:#FFFFFF;}
	.st2{clip-path:url(#SVGID_6_);fill:#FFFFFF;}
</style>
<g>
	<defs>
		<path id="SVGID_1_" d="M-390,286.3c-6.7,0.5-12,6.1-12,13c0,7.2,5.8,13,13,13c1.2,0,2.3-0.2,3.4-0.5l-4.4-12.4V286.3z"/>
	</defs>
	<clipPath id="SVGID_2_">
		<use xlink:href="#SVGID_1_"  style="overflow:visible;"/>
	</clipPath>
	<rect x="-407" y="281.3" class="st0" width="26.4" height="36"/>
</g>
<g>
	<defs>
		<path id="SVGID_3_" d="M-383.3,312.2c4.9-2,8.2-6.6,8.6-11.9h-12.9L-383.3,312.2z"/>
	</defs>
	<clipPath id="SVGID_4_">
		<use xlink:href="#SVGID_3_"  style="overflow:visible;"/>
	</clipPath>
	<rect x="-392.6" y="295.3" class="st1" width="22.9" height="21.9"/>
</g>
<g>
	<defs>
		<path id="SVGID_5_" d="M-388,284.3c7.5,0.5,13.5,6.5,14,14h-14V284.3z"/>
	</defs>
	<clipPath id="SVGID_6_">
		<use xlink:href="#SVGID_5_"  style="overflow:visible;"/>
	</clipPath>
	<rect x="-393" y="279.3" class="st2" width="24" height="24"/>
</g>
</svg>
