<?xml version="1.0" encoding="utf-8"?>
<!-- Generator: Adobe Illustrator 19.0.0, SVG Export Plug-In . SVG Version: 6.00 Build 0)  -->
<svg version="1.1" id="icons" xmlns="http://www.w3.org/2000/svg" xmlns:xlink="http://www.w3.org/1999/xlink" x="0px" y="0px"
	 width="18px" height="18px" viewBox="-411 289.3 18 18" style="enable-background:new -411 289.3 18 18;" xml:space="preserve">
<style type="text/css">
	.st0{clip-path:url(#SVGID_2_);fill:#4DA1FF;}
</style>
<g>
	<defs>
		<path id="SVGID_1_" d="M-407,303.5h10v-3c0-0.6,0.4-1,1-1s1,0.4,1,1v5h-14v-5c0-0.6,0.4-1,1-1s1,0.4,1,1V303.5z M-401,294.9v5.6
			c0,0.6-0.4,1-1,1c-0.6,0-1-0.5-1-1v-5.6l-2.3,2.3c-0.4,0.4-1,0.4-1.4,0c-0.4-0.4-0.4-1,0-1.4l4.7-4.7l4.7,4.7c0.4,0.4,0.4,1,0,1.4
			c-0.4,0.4-1,0.4-1.4,0L-401,294.9z"/>
	</defs>
	<clipPath id="SVGID_2_">
		<use xlink:href="#SVGID_1_"  style="overflow:visible;"/>
	</clipPath>
	<rect x="-414" y="286.1" class="st0" width="24" height="24.4"/>
</g>
</svg>
