<?xml version="1.0" encoding="utf-8"?>
<!-- Generator: Adobe Illustrator 19.0.0, SVG Export Plug-In . SVG Version: 6.00 Build 0)  -->
<svg version="1.1" id="icons" xmlns="http://www.w3.org/2000/svg" xmlns:xlink="http://www.w3.org/1999/xlink" x="0px" y="0px"
	 width="32px" height="32px" viewBox="-183 185 32 32" style="enable-background:new -183 185 32 32;" xml:space="preserve">
<style type="text/css">
	.st0{clip-path:url(#SVGID_2_);fill:#FFFFFF;}
</style>
<g>
	<defs>
		<path id="SVGID_1_" d="M-166.7,208.9l8.5-9l-3.5-1l0.5,1l-5,5l-6-6.5l0.5-1.5l-5,1L-166.7,208.9z M-159.8,191.1l6.1,6.1
			c0.4,0.4,0.4,1,0,1.5l-12.7,14c-0.4,0.4-1,0.4-1.4,0l-12.6-14c-0.4-0.4-0.4-1.1,0-1.5l5.9-5.9l7.2,4.3L-159.8,191.1z
			 M-162.3,190.3l-4.9,2.9l-4.9-2.9l3.6-1.1c0.5-0.2,1.4-0.2,1.9,0L-162.3,190.3z"/>
	</defs>
	<clipPath id="SVGID_2_">
		<use xlink:href="#SVGID_1_"  style="overflow:visible;"/>
	</clipPath>
	<rect x="-185.6" y="184" class="st0" width="37.2" height="33.9"/>
</g>
</svg>
