<?xml version="1.0" encoding="utf-8"?>
<!-- Generator: Adobe Illustrator 19.0.0, SVG Export Plug-In . SVG Version: 6.00 Build 0)  -->
<svg version="1.1" id="icons" xmlns="http://www.w3.org/2000/svg" xmlns:xlink="http://www.w3.org/1999/xlink" x="0px" y="0px"
	 width="32px" height="32px" viewBox="-183 185 32 32" style="enable-background:new -183 185 32 32;" xml:space="preserve">
<style type="text/css">
	.st0{clip-path:url(#SVGID_2_);fill:#FFFFFF;}
	.st1{clip-path:url(#SVGID_4_);fill:#FFFFFF;}
	.st2{clip-path:url(#SVGID_6_);fill:#FFFFFF;}
</style>
<g>
	<defs>
		<path id="SVGID_1_" d="M-179,214c0-0.6,0.4-1,1-1h22c0.6,0,1,0.4,1,1v1h-24V214z"/>
	</defs>
	<clipPath id="SVGID_2_">
		<use xlink:href="#SVGID_1_"  style="overflow:visible;"/>
	</clipPath>
	<rect x="-184" y="208" class="st0" width="34" height="12"/>
</g>
<g>
	<defs>
		<path id="SVGID_3_" d="M-170,208v1c0,0.6,0.4,1,1,1h1c0.6,0,1-0.4,1-1v-1c0-0.6-0.4-1-1-1h-1C-169.6,207-170,207.4-170,208z
			 M-170,202v1c0,0.6,0.4,1,1,1h1c0.6,0,1-0.4,1-1v-1c0-0.6-0.4-1-1-1h-1C-169.6,201-170,201.4-170,202z M-170,196v1
			c0,0.6,0.4,1,1,1h1c0.6,0,1-0.4,1-1v-1c0-0.6-0.4-1-1-1h-1C-169.6,195-170,195.4-170,196z M-170,190v1c0,0.6,0.4,1,1,1h1
			c0.6,0,1-0.4,1-1v-1c0-0.6-0.4-1-1-1h-1C-169.6,189-170,189.4-170,190z M-175,208v1c0,0.6,0.4,1,1,1h1c0.6,0,1-0.4,1-1v-1
			c0-0.6-0.4-1-1-1h-1C-174.6,207-175,207.4-175,208z M-175,202v1c0,0.6,0.4,1,1,1h1c0.6,0,1-0.4,1-1v-1c0-0.6-0.4-1-1-1h-1
			C-174.6,201-175,201.4-175,202z M-175,196v1c0,0.6,0.4,1,1,1h1c0.6,0,1-0.4,1-1v-1c0-0.6-0.4-1-1-1h-1
			C-174.6,195-175,195.4-175,196z M-175,190v1c0,0.6,0.4,1,1,1h1c0.6,0,1-0.4,1-1v-1c0-0.6-0.4-1-1-1h-1
			C-174.6,189-175,189.4-175,190z M-177,188c0-0.6,0.5-1,1-1h10c0.6,0,1,0.5,1,1v25h-12V188z"/>
	</defs>
	<clipPath id="SVGID_4_">
		<use xlink:href="#SVGID_3_"  style="overflow:visible;"/>
	</clipPath>
	<rect x="-182" y="182" class="st1" width="22" height="36"/>
</g>
<g>
	<defs>
		<path id="SVGID_5_" d="M-163,207c0,0.6,0.5,1,1,1h2c0.6,0,1-0.4,1-1c0-0.6-0.5-1-1-1h-2C-162.6,206-163,206.4-163,207z M-163,202
			c0,0.6,0.5,1,1,1h2c0.6,0,1-0.4,1-1c0-0.6-0.5-1-1-1h-2C-162.6,201-163,201.4-163,202z M-163,197c0,0.6,0.5,1,1,1h2
			c0.6,0,1-0.4,1-1c0-0.6-0.5-1-1-1h-2C-162.6,196-163,196.4-163,197z M-165,193h7c0.6,0,1,0.5,1,1v19h-8V193z"/>
	</defs>
	<clipPath id="SVGID_6_">
		<use xlink:href="#SVGID_5_"  style="overflow:visible;"/>
	</clipPath>
	<rect x="-170" y="188" class="st2" width="18" height="30"/>
</g>
</svg>
