<?xml version="1.0" encoding="utf-8"?>
<!-- Generator: Adobe Illustrator 19.0.0, SVG Export Plug-In . SVG Version: 6.00 Build 0)  -->
<svg version="1.1" id="icons" xmlns="http://www.w3.org/2000/svg" xmlns:xlink="http://www.w3.org/1999/xlink" x="0px" y="0px"
	 width="32px" height="32px" viewBox="-183 185 32 32" style="enable-background:new -183 185 32 32;" xml:space="preserve">
<style type="text/css">
	.st0{clip-path:url(#SVGID_2_);fill:#FFFFFF;}
</style>
<g>
	<defs>
		<path id="SVGID_1_" d="M-166,201.9l5.9-9.4c0.3-0.5,0.2-1.1-0.3-1.4c-0.5-0.3-1.1-0.2-1.4,0.3l-4.1,6.6l-3-5l-4.9,7.3
			c-0.3,0.5-0.2,1.1,0.3,1.4c0.5,0.3,1.1,0.2,1.4-0.3l3.1-4.7L-166,201.9z M-179,188c0-0.6,0.4-1,1-1h22c0.6,0,1,0.4,1,1v1h-24V188z
			 M-160.8,205h5.8v1c0,0.6-0.4,1-1,1h-6.6l6.2,6.2c0.4,0.4,0.4,1,0,1.4c-0.4,0.4-1,0.4-1.4,0l-7.6-7.6h-0.6v5c0,0.6-0.4,1-1,1
			c-0.6,0-1-0.4-1-1v-5h-0.3l-7.6,7.6c-0.4,0.4-1,0.4-1.4,0c-0.4-0.4-0.4-1,0-1.4l6.2-6.2h-6.9c-0.6,0-1-0.4-1-1v-1h5.9h-3.9v-16h20
			v16H-160.8z"/>
	</defs>
	<clipPath id="SVGID_2_">
		<use xlink:href="#SVGID_1_"  style="overflow:visible;"/>
	</clipPath>
	<rect x="-184" y="182" class="st0" width="34" height="37.9"/>
</g>
</svg>
