<?xml version="1.0" encoding="utf-8"?>
<!-- Generator: Adobe Illustrator 19.0.0, SVG Export Plug-In . SVG Version: 6.00 Build 0)  -->
<svg version="1.1" id="icons" xmlns="http://www.w3.org/2000/svg" xmlns:xlink="http://www.w3.org/1999/xlink" x="0px" y="0px"
	 width="32px" height="32px" viewBox="-183 185 32 32" style="enable-background:new -183 185 32 32;" xml:space="preserve">
<style type="text/css">
	.st0{clip-path:url(#SVGID_2_);fill:#FFFFFF;}
</style>
<g>
	<defs>
		<path id="SVGID_1_" d="M-181,197v-6c0-0.6,0.4-1,1-1h26c0.6,0,1,0.4,1,1v6c-2.2,0-4,1.8-4,4s1.8,4,4,4v6c0,0.6-0.4,1-1,1h-26
			c-0.6,0-1-0.4-1-1v-6c2.2,0,4-1.8,4-4S-178.8,197-181,197z M-168.4,199h-2.6c-0.5,0-1,0.4-1,1c0,0.6,0.4,1,1,1h3v1h-2
			c-0.5,0-1,0.4-1,1c0,0.6,0.4,1,1,1h2v2c0,0.6,0.4,1,1,1c0.6,0,1-0.4,1-1v-2h2c0.5,0,1-0.4,1-1c0-0.6-0.4-1-1-1h-2v-1h3
			c0.5,0,1-0.4,1-1c0-0.6-0.4-1-1-1h-2.6l2.3-2.3c0.4-0.4,0.4-1,0-1.4c-0.4-0.4-1-0.4-1.4,0l-2.3,2.3l-2.3-2.3c-0.4-0.4-1-0.4-1.4,0
			c-0.4,0.4-0.4,1,0,1.4L-168.4,199z"/>
	</defs>
	<clipPath id="SVGID_2_">
		<use xlink:href="#SVGID_1_"  style="overflow:visible;"/>
	</clipPath>
	<rect x="-186" y="185" class="st0" width="38" height="32"/>
</g>
</svg>
