<?xml version="1.0" encoding="UTF-8"?>
<svg width="120px" height="120px" viewBox="0 0 120 120" version="1.1" xmlns="http://www.w3.org/2000/svg" xmlns:xlink="http://www.w3.org/1999/xlink">
    <!-- Generator: Sketch 42 (36781) - http://www.bohemiancoding.com/sketch -->
    <title>drwc-a_icon</title>
    <desc>Created with Sketch.</desc>
    <defs>
        <linearGradient x1="50%" y1="-2.48949813e-15%" x2="50%" y2="100%" id="linearGradient-1">
            <stop stop-color="#F3F8FF" offset="0%"></stop>
            <stop stop-color="#C0DAFF" offset="100%"></stop>
        </linearGradient>
    </defs>
    <g id="Page-1" stroke="none" stroke-width="1" fill="none" fill-rule="evenodd">
        <g id="drwc-a_icon">
            <g id="3">
                <path d="M56.5302211,2.0032778 C58.4465271,0.896898021 61.5551052,0.89784041 63.4697789,2.0032778 L108.491745,27.9967222 C110.408051,29.103102 111.961524,31.7956808 111.961524,34.0065556 L111.961524,85.9934444 C111.961524,88.206204 110.406419,90.8978404 108.491745,92.0032778 L63.4697789,117.996722 C61.5534729,119.103102 58.4448948,119.10216 56.5302211,117.996722 L11.5082547,92.0032778 C9.59194871,90.896898 8.03847577,88.2043192 8.03847577,85.9934444 L8.03847577,34.0065556 C8.03847577,31.793796 9.59358098,29.1021596 11.5082547,27.9967222 L56.5302211,2.0032778 Z" id="Polygon-Copy-2" fill="url(#linearGradient-1)"></path>
                <path d="M56.556,54.36 C57.0040022,54.4160003 57.3819985,54.444 57.69,54.444 L58.488,54.444 C60.5600104,54.444 62.2399936,53.8280062 63.528,52.596 C64.8160064,51.3639938 65.46,49.7680098 65.46,47.808 C65.46,45.9039905 64.858006,44.3640059 63.654,43.188 C62.449994,42.0119941 60.8960095,41.424 58.992,41.424 C56.9759899,41.424 55.3520062,42.0959933 54.12,43.44 C52.8879938,44.7840067 52.272,46.5199894 52.272,48.648 L37.068,48.648 C37.460002,45.3439835 38.2859937,42.4040129 39.546,39.828 C40.8060063,37.2519871 42.4159902,35.0820088 44.376,33.318 C46.3360098,31.5539912 48.6319868,30.2100046 51.264,29.286 C53.8960132,28.3619954 56.807984,27.9 60,27.9 C63.1360157,27.9 65.9779873,28.3339957 68.526,29.202 C71.0740127,30.0700043 73.2579909,31.301992 75.078,32.898 C76.8980091,34.494008 78.2979951,36.4259887 79.278,38.694 C80.2580049,40.9620113 80.748,43.495986 80.748,46.296 C80.748,49.3200151 80.1740057,51.7979903 79.026,53.73 C77.8779943,55.6620097 76.2400106,57.327993 74.112,58.728 C77.3600162,59.736005 79.8939909,61.541987 81.714,64.146 C83.5340091,66.750013 84.444,69.955981 84.444,73.764 C84.444,76.9000157 83.8280062,79.7559871 82.596,82.332 C81.3639938,84.9080129 79.6420111,87.1199908 77.43,88.968 C75.2179889,90.8160092 72.5860153,92.243995 69.534,93.252 C66.4819847,94.260005 63.1360182,94.764 59.496,94.764 C54.6239756,94.764 50.2280196,93.8120095 46.308,91.908 C42.3879804,90.0039905 39.2520118,86.9800207 36.9,82.836 C35.8359947,80.9879908 35.1220018,79.1400092 34.758,77.292 C34.3939982,75.4439908 34.212,73.5680095 34.212,71.664 L50.508,71.664 C50.6200006,74.6320148 51.4879919,76.8859923 53.112,78.426 C54.7360081,79.9660077 56.9199863,80.736 59.664,80.736 C62.5760146,80.736 64.7039933,79.9520078 66.048,78.384 C67.3920067,76.8159922 68.064,74.8840115 68.064,72.588 C68.064,69.8439863 67.2520081,67.772007 65.628,66.372 C64.0039919,64.971993 62.0720112,64.272 59.832,64.272 C59.2719972,64.272 58.7400025,64.3139996 58.236,64.398 C57.7319975,64.4820004 57.1720031,64.5799994 56.556,64.692 L56.556,54.36 Z" fill="#FFFFFF" opacity="0.300000012"></path>
                <path d="M25.22,61.978 L36.02,61.978 L36.02,61.168 L37.91,61.168 L37.91,61.978 L41.762,61.978 L41.762,63.814 L37.91,63.814 L37.91,67.144 C37.91,68.332 37.262,68.926 35.966,68.926 L33.716,68.926 L33.284,67.09 C34.004,67.162 34.67,67.216 35.318,67.216 C35.786,67.216 36.02,67.036 36.02,66.676 L36.02,63.814 L25.22,63.814 L25.22,61.978 Z M39.17,52.78 L39.17,57.442 L28.892,57.442 L28.892,58.216 C28.892,58.702 29.144,58.954 29.684,58.954 L38.99,58.954 C39.26,58.936 39.44,58.846 39.548,58.666 C39.62,58.54 39.692,58.126 39.782,57.424 L41.564,58.018 C41.438,58.846 41.312,59.422 41.186,59.782 C40.97,60.358 40.43,60.646 39.602,60.682 L28.928,60.682 C27.632,60.682 27.002,60.106 27.002,58.972 L27.002,52.78 L39.17,52.78 Z M28.892,55.75 L37.28,55.75 L37.28,54.472 L28.892,54.472 L28.892,55.75 Z M29.846,63.904 C30.998,64.804 31.988,65.704 32.78,66.604 L31.376,68.008 C30.692,67.144 29.738,66.208 28.496,65.2 L29.846,63.904 Z M50.438,56.578 C49.25,61.114 46.784,64.588 43.058,67.036 L44.21,68.656 C47.81,66.316 50.204,63.004 51.428,58.738 L51.482,58.9 C53.408,63.724 55.766,66.982 58.556,68.638 L59.726,67.144 C57.026,65.416 54.83,62.464 53.12,58.288 C51.932,55.282 50.6,53.248 49.124,52.204 L47.558,53.212 C48.674,54.004 49.628,55.12 50.438,56.578 Z M77.276,53.932 L77.276,58.27 L75.386,58.27 L75.386,55.75 L63.578,55.75 L63.578,58.27 L61.688,58.27 L61.688,53.932 L68.33,53.932 C68.15,53.428 67.952,52.978 67.736,52.564 L69.878,52.204 C70.076,52.726 70.274,53.302 70.454,53.932 L77.276,53.932 Z M64.334,57.334 L74.594,57.334 L74.594,59.134 L64.334,59.134 L64.334,57.334 Z M61.598,60.664 L61.598,62.482 L66.26,62.482 C66.188,63.724 65.828,64.732 65.162,65.524 C64.496,66.244 63.2,66.838 61.274,67.324 L62.354,69.016 C64.334,68.476 65.756,67.702 66.638,66.73 C67.538,65.668 68.042,64.246 68.132,62.482 L70.706,62.482 L70.706,66.424 C70.706,67.9 71.354,68.638 72.65,68.638 L75.8,68.638 C76.394,68.638 76.844,68.458 77.132,68.134 C77.456,67.792 77.672,66.694 77.798,64.858 L76.016,64.3 C75.98,65.524 75.908,66.262 75.836,66.496 C75.746,66.73 75.62,66.856 75.44,66.856 L73.226,66.856 C72.794,66.856 72.578,66.586 72.578,66.046 L72.578,62.482 L77.42,62.482 L77.42,60.664 L61.598,60.664 Z M92.162,52.06 L90.974,53.194 C91.676,53.734 92.252,54.274 92.702,54.778 L90.164,54.778 C90.128,53.95 90.11,53.086 90.11,52.168 L88.202,52.168 C88.202,53.068 88.202,53.95 88.238,54.778 L80.822,54.778 L80.822,60.772 C80.768,63.688 80.192,65.974 79.076,67.612 L80.498,68.89 C81.884,66.856 82.622,64.174 82.712,60.826 L85.25,60.826 C85.214,62.662 85.16,63.796 85.052,64.21 C84.962,64.57 84.764,64.75 84.476,64.768 C83.972,64.768 83.378,64.732 82.658,64.678 L83.234,66.388 C83.774,66.442 84.26,66.478 84.692,66.478 C85.664,66.46 86.294,66.082 86.582,65.326 C86.888,64.498 87.068,62.41 87.122,59.062 L82.712,59.062 L82.712,56.56 L88.328,56.56 C88.472,58.72 88.724,60.538 89.12,61.978 C89.318,62.716 89.534,63.4 89.786,64.03 C88.598,65.47 87.158,66.568 85.466,67.324 L86.546,68.908 C88.094,68.224 89.462,67.234 90.65,65.938 C90.866,66.334 91.118,66.694 91.37,67.018 C92.252,68.08 93.08,68.62 93.872,68.62 C94.772,68.62 95.438,67.342 95.906,64.804 L94.214,63.886 C93.98,65.614 93.764,66.478 93.584,66.478 C93.314,66.478 92.918,66.082 92.414,65.308 C92.234,65.038 92.054,64.714 91.892,64.354 C92.99,62.752 93.89,60.808 94.592,58.522 L92.882,57.784 C92.414,59.404 91.82,60.862 91.1,62.122 C91.028,61.87 90.956,61.636 90.902,61.384 C90.614,60.268 90.398,58.648 90.254,56.56 L95.546,56.56 L95.546,54.778 L93.404,54.778 L94.232,53.932 C93.656,53.302 92.972,52.672 92.162,52.06 Z" id="导入完成" fill="#FFFFFF"></path>
            </g>
        </g>
    </g>
</svg>