<?xml version="1.0" encoding="UTF-8"?>
<svg width="120px" height="120px" viewBox="0 0 120 120" version="1.1" xmlns="http://www.w3.org/2000/svg" xmlns:xlink="http://www.w3.org/1999/xlink">
    <!-- Generator: Sketch 42 (36781) - http://www.bohemiancoding.com/sketch -->
    <title>drwj_icon</title>
    <desc>Created with Sketch.</desc>
    <defs>
        <linearGradient x1="50%" y1="100%" x2="50%" y2="3.061617e-15%" id="linearGradient-1">
            <stop stop-color="#FF4A08" offset="0%"></stop>
            <stop stop-color="#FF9974" offset="100%"></stop>
        </linearGradient>
    </defs>
    <g id="Page-1" stroke="none" stroke-width="1" fill="none" fill-rule="evenodd">
        <g id="drwj_icon">
            <g id="1">
                <path d="M56.5302211,2.0032778 C58.4465271,0.896898021 61.5551052,0.89784041 63.4697789,2.0032778 L108.491745,27.9967222 C110.408051,29.103102 111.961524,31.7956808 111.961524,34.0065556 L111.961524,85.9934444 C111.961524,88.206204 110.406419,90.8978404 108.491745,92.0032778 L63.4697789,117.996722 C61.5534729,119.103102 58.4448948,119.10216 56.5302211,117.996722 L11.5082547,92.0032778 C9.59194871,90.896898 8.03847577,88.2043192 8.03847577,85.9934444 L8.03847577,34.0065556 C8.03847577,31.793796 9.59358098,29.1021596 11.5082547,27.9967222 L56.5302211,2.0032778 Z" id="Polygon" fill="url(#linearGradient-1)"></path>
                <polygon fill="#FFFFFF" opacity="0.300000012" points="53.7 43.608 44.46 43.608 44.46 29.664 70.164 29.664 70.164 93 53.7 93"></polygon>
                <path d="M25.22,61.978 L36.02,61.978 L36.02,61.168 L37.91,61.168 L37.91,61.978 L41.762,61.978 L41.762,63.814 L37.91,63.814 L37.91,67.144 C37.91,68.332 37.262,68.926 35.966,68.926 L33.716,68.926 L33.284,67.09 C34.004,67.162 34.67,67.216 35.318,67.216 C35.786,67.216 36.02,67.036 36.02,66.676 L36.02,63.814 L25.22,63.814 L25.22,61.978 Z M39.17,52.78 L39.17,57.442 L28.892,57.442 L28.892,58.216 C28.892,58.702 29.144,58.954 29.684,58.954 L38.99,58.954 C39.26,58.936 39.44,58.846 39.548,58.666 C39.62,58.54 39.692,58.126 39.782,57.424 L41.564,58.018 C41.438,58.846 41.312,59.422 41.186,59.782 C40.97,60.358 40.43,60.646 39.602,60.682 L28.928,60.682 C27.632,60.682 27.002,60.106 27.002,58.972 L27.002,52.78 L39.17,52.78 Z M28.892,55.75 L37.28,55.75 L37.28,54.472 L28.892,54.472 L28.892,55.75 Z M29.846,63.904 C30.998,64.804 31.988,65.704 32.78,66.604 L31.376,68.008 C30.692,67.144 29.738,66.208 28.496,65.2 L29.846,63.904 Z M50.438,56.578 C49.25,61.114 46.784,64.588 43.058,67.036 L44.21,68.656 C47.81,66.316 50.204,63.004 51.428,58.738 L51.482,58.9 C53.408,63.724 55.766,66.982 58.556,68.638 L59.726,67.144 C57.026,65.416 54.83,62.464 53.12,58.288 C51.932,55.282 50.6,53.248 49.124,52.204 L47.558,53.212 C48.674,54.004 49.628,55.12 50.438,56.578 Z M61.526,55.048 L68.654,55.048 C68.204,54.22 67.646,53.446 66.998,52.708 L68.888,52.024 C69.536,52.87 70.13,53.878 70.67,55.048 L77.474,55.048 L77.474,56.92 L74.756,56.92 C73.892,59.62 72.632,61.87 70.976,63.688 C72.83,65.164 75.134,66.388 77.87,67.396 L76.826,68.998 C73.946,67.918 71.552,66.586 69.644,65.002 C67.628,66.784 65.144,68.098 62.21,68.926 L61.202,67.27 C64.064,66.532 66.44,65.38 68.312,63.796 C66.368,61.816 65.018,59.53 64.262,56.92 L61.526,56.92 L61.526,55.048 Z M66.062,56.92 C66.8,59.044 67.988,60.898 69.644,62.518 C71.048,60.97 72.11,59.098 72.812,56.92 L66.062,56.92 Z M82.928,52.042 L84.692,52.888 C84.242,54.292 83.666,55.606 82.946,56.866 L82.946,68.872 L81.092,68.872 L81.092,59.602 C80.624,60.178 80.138,60.736 79.634,61.276 L79.004,59.26 C80.768,57.226 82.082,54.814 82.928,52.042 Z M85.97,53.41 L87.806,53.644 C87.68,54.4 87.518,55.138 87.32,55.84 L89.282,55.84 L89.282,52.294 L91.172,52.294 L91.172,55.84 L95.078,55.84 L95.078,57.676 L91.172,57.676 L91.172,61.366 L95.762,61.366 L95.762,63.184 L91.172,63.184 L91.172,68.818 L89.282,68.818 L89.282,63.184 L84.26,63.184 L84.26,61.366 L89.282,61.366 L89.282,57.676 L86.708,57.676 C86.258,58.792 85.718,59.818 85.088,60.736 L83.882,59.17 C84.908,57.604 85.61,55.678 85.97,53.41 Z" id="导入文件" fill="#FFFFFF"></path>
            </g>
        </g>
    </g>
</svg>