<?xml version="1.0" encoding="UTF-8"?>
<svg width="120px" height="120px" viewBox="0 0 120 120" version="1.1" xmlns="http://www.w3.org/2000/svg" xmlns:xlink="http://www.w3.org/1999/xlink">
    <!-- Generator: Sketch 42 (36781) - http://www.bohemiancoding.com/sketch -->
    <title>dryl-a_icon</title>
    <desc>Created with Sketch.</desc>
    <defs>
        <linearGradient x1="50%" y1="-2.48949813e-15%" x2="50%" y2="100%" id="linearGradient-1">
            <stop stop-color="#F3F8FF" offset="0%"></stop>
            <stop stop-color="#C0DAFF" offset="100%"></stop>
        </linearGradient>
    </defs>
    <g id="Page-1" stroke="none" stroke-width="1" fill="none" fill-rule="evenodd">
        <g id="dryl-a_icon">
            <g id="2">
                <path d="M56.5302211,2.0032778 C58.4465271,0.896898021 61.5551052,0.89784041 63.4697789,2.0032778 L108.491745,27.9967222 C110.408051,29.103102 111.961524,31.7956808 111.961524,34.0065556 L111.961524,85.9934444 C111.961524,88.206204 110.406419,90.8978404 108.491745,92.0032778 L63.4697789,117.996722 C61.5534729,119.103102 58.4448948,119.10216 56.5302211,117.996722 L11.5082547,92.0032778 C9.59194871,90.896898 8.03847577,88.2043192 8.03847577,85.9934444 L8.03847577,34.0065556 C8.03847577,31.793796 9.59358098,29.1021596 11.5082547,27.9967222 L56.5302211,2.0032778 Z" id="Polygon-Copy" fill="url(#linearGradient-1)"></path>
                <path d="M84.78,93 L33.792,93 L49.5,76.704 C53.6440207,72.3919784 56.8919882,68.738015 59.244,65.742 C61.5960118,62.745985 63.3459943,60.2120104 64.494,58.14 C65.6420057,56.0679896 66.3559986,54.3880064 66.636,53.1 C66.9160014,51.8119936 67.056,50.7200045 67.056,49.824 C67.056,48.8719952 66.9020015,47.9480045 66.594,47.052 C66.2859985,46.1559955 65.8240031,45.3580035 65.208,44.658 C64.5919969,43.9579965 63.8500043,43.3980021 62.982,42.978 C62.1139957,42.5579979 61.0920059,42.348 59.916,42.348 C57.6759888,42.348 55.9260063,43.0759927 54.666,44.532 C53.4059937,45.9880073 52.776,47.8079891 52.776,49.992 C52.776,50.6080031 52.8599992,51.5039941 53.028,52.68 L35.052,52.68 C35.052,48.9839815 35.653994,45.6240151 36.858,42.6 C38.062006,39.5759849 39.7559891,36.9720109 41.94,34.788 C44.1240109,32.6039891 46.713985,30.9240059 49.71,29.748 C52.706015,28.5719941 55.9959821,27.984 59.58,27.984 C63.1080176,27.984 66.369985,28.5439944 69.366,29.664 C72.362015,30.7840056 74.9519891,32.3519899 77.136,34.368 C79.3200109,36.3840101 81.0279938,38.7779861 82.26,41.55 C83.4920062,44.3220139 84.108,47.3319838 84.108,50.58 C84.108,54.0520174 83.3660074,57.2579853 81.882,60.198 C80.3979926,63.1380147 78.0320162,66.1479846 74.784,69.228 L64.284,79.056 L84.78,79.056 L84.78,93 Z" fill="#FFFFFF" opacity="0.300000012"></path>
                <path d="M25.22,61.978 L36.02,61.978 L36.02,61.168 L37.91,61.168 L37.91,61.978 L41.762,61.978 L41.762,63.814 L37.91,63.814 L37.91,67.144 C37.91,68.332 37.262,68.926 35.966,68.926 L33.716,68.926 L33.284,67.09 C34.004,67.162 34.67,67.216 35.318,67.216 C35.786,67.216 36.02,67.036 36.02,66.676 L36.02,63.814 L25.22,63.814 L25.22,61.978 Z M39.17,52.78 L39.17,57.442 L28.892,57.442 L28.892,58.216 C28.892,58.702 29.144,58.954 29.684,58.954 L38.99,58.954 C39.26,58.936 39.44,58.846 39.548,58.666 C39.62,58.54 39.692,58.126 39.782,57.424 L41.564,58.018 C41.438,58.846 41.312,59.422 41.186,59.782 C40.97,60.358 40.43,60.646 39.602,60.682 L28.928,60.682 C27.632,60.682 27.002,60.106 27.002,58.972 L27.002,52.78 L39.17,52.78 Z M28.892,55.75 L37.28,55.75 L37.28,54.472 L28.892,54.472 L28.892,55.75 Z M29.846,63.904 C30.998,64.804 31.988,65.704 32.78,66.604 L31.376,68.008 C30.692,67.144 29.738,66.208 28.496,65.2 L29.846,63.904 Z M50.438,56.578 C49.25,61.114 46.784,64.588 43.058,67.036 L44.21,68.656 C47.81,66.316 50.204,63.004 51.428,58.738 L51.482,58.9 C53.408,63.724 55.766,66.982 58.556,68.638 L59.726,67.144 C57.026,65.416 54.83,62.464 53.12,58.288 C51.932,55.282 50.6,53.248 49.124,52.204 L47.558,53.212 C48.674,54.004 49.628,55.12 50.438,56.578 Z M68.744,52.78 L77.744,52.78 L77.744,54.544 L74.27,54.544 C74.198,55.048 74.108,55.552 74,56.02 L77.258,56.02 L77.258,64.786 L75.494,64.786 L75.494,57.676 L70.976,57.676 L70.976,64.786 L69.212,64.786 L69.212,56.02 L72.182,56.02 C72.29,55.552 72.362,55.048 72.434,54.544 L68.744,54.544 L68.744,52.78 Z M74.792,64.66 C76.016,65.632 77.078,66.604 77.942,67.558 L76.628,68.872 C75.908,67.936 74.9,66.91 73.586,65.83 L74.792,64.66 Z M72.29,58.522 L74.09,58.522 L74.09,61.69 C74.018,63.634 73.568,65.2 72.758,66.352 C71.948,67.432 70.652,68.278 68.888,68.854 L67.862,67.252 C69.554,66.694 70.706,66.01 71.318,65.182 C71.894,64.282 72.218,63.13 72.29,61.69 L72.29,58.522 Z M63.416,55.156 C63.848,55.57 64.226,55.966 64.586,56.362 C65.072,55.822 65.522,55.192 65.954,54.508 L61.724,54.508 L61.724,52.78 L67.952,52.78 L67.952,54.238 C67.25,55.534 66.476,56.65 65.648,57.568 C65.882,57.838 66.098,58.108 66.296,58.36 L68.438,58.36 L68.438,59.494 C68.15,60.898 67.826,61.996 67.448,62.788 L65.918,62.194 C66.206,61.6 66.458,60.898 66.692,60.088 L65.396,60.088 L65.396,67.072 C65.396,68.206 64.856,68.782 63.812,68.782 L62.048,68.782 L61.652,67.09 C62.192,67.162 62.696,67.198 63.182,67.198 C63.47,67.198 63.614,67 63.614,66.622 L63.614,60.088 L61.22,60.088 L61.22,58.36 L64.262,58.36 C63.614,57.622 62.876,56.848 62.048,56.02 L63.416,55.156 Z M92.54,58.666 L92.54,65.29 L90.686,65.29 L90.686,60.376 L84.134,60.376 L84.134,65.29 L82.28,65.29 L82.28,58.666 L92.54,58.666 Z M86.294,61.312 L88.148,61.312 L88.148,62.59 C88.13,62.842 88.094,63.094 88.058,63.346 L89.57,63.346 L89.57,66.154 C89.57,66.622 89.804,66.874 90.29,66.874 L92.918,66.874 C93.17,66.874 93.35,66.766 93.494,66.586 C93.638,66.37 93.728,65.74 93.8,64.714 L95.528,65.272 C95.384,66.892 95.15,67.846 94.79,68.152 C94.448,68.44 93.944,68.584 93.26,68.584 L89.75,68.584 C88.418,68.584 87.752,67.9 87.752,66.55 L87.752,64.534 C87.428,65.416 86.924,66.172 86.24,66.784 C85.088,67.756 83.252,68.494 80.696,69.016 L79.616,67.342 C82.172,66.856 83.918,66.262 84.818,65.56 C85.7,64.786 86.186,63.796 86.294,62.59 L86.294,61.312 Z M83.918,52.24 L83.918,58.162 L85.772,58.162 L85.772,52.24 L83.918,52.24 Z M80.39,52.978 L80.39,57.55 L82.208,57.55 L82.208,52.978 L80.39,52.978 Z M89.624,55.102 C89.084,56.11 88.454,56.956 87.734,57.622 L86.312,56.308 C87.5,55.102 88.364,53.698 88.868,52.096 L90.668,52.582 L90.398,53.392 L95.276,53.392 L95.276,55.102 L89.624,55.102 Z M91.262,55.282 C92.27,55.858 93.188,56.542 94.052,57.316 L92.882,58.648 C92.018,57.766 91.1,57.01 90.092,56.38 L91.262,55.282 Z" id="导入预览" fill="#FFFFFF"></path>
            </g>
        </g>
    </g>
</svg>