<?xml version="1.0" encoding="utf-8"?>
<!-- Generator: Adobe Illustrator 19.0.0, SVG Export Plug-In . SVG Version: 6.00 Build 0)  -->
<svg version="1.1" id="icons" xmlns="http://www.w3.org/2000/svg" xmlns:xlink="http://www.w3.org/1999/xlink" x="0px" y="0px"
	 width="18px" height="18px" viewBox="-411 289.3 18 18" style="enable-background:new -411 289.3 18 18;" xml:space="preserve">
<style type="text/css">
	.st0{clip-path:url(#SVGID_2_);fill:#FFFFFF;}
</style>
<g>
	<defs>
		<path id="SVGID_1_" d="M-403,297.3h-4.5c-0.3,0-0.5,0.2-0.5,0.5v1v2.5h-1c-0.6,0-1,0.4-1,1v3c0,0.6,0.4,1,1,1h4c0.6,0,1-0.4,1-1
			v-3c0-0.6-0.4-1-1-1h-1v-2h8v2h-1c-0.6,0-1,0.4-1,1v3c0,0.6,0.4,1,1,1h4c0.6,0,1-0.4,1-1v-3c0-0.6-0.4-1-1-1h-1v-2.5v-1
			c0-0.3-0.2-0.5-0.5-0.5h-4.5v-2h1c0.6,0,1-0.4,1-1v-3c0-0.6-0.4-1-1-1h-4c-0.6,0-1,0.4-1,1v3c0,0.6,0.4,1,1,1h1V297.3z"/>
	</defs>
	<clipPath id="SVGID_2_">
		<use xlink:href="#SVGID_1_"  style="overflow:visible;"/>
	</clipPath>
	<rect x="-415" y="285.3" class="st0" width="26" height="26"/>
</g>
</svg>
