<?xml version="1.0" encoding="utf-8"?>
<!-- Generator: Adobe Illustrator 19.0.0, SVG Export Plug-In . SVG Version: 6.00 Build 0)  -->
<svg version="1.1" id="图层_1" xmlns="http://www.w3.org/2000/svg" xmlns:xlink="http://www.w3.org/1999/xlink" x="0px" y="0px"
	 width="16px" height="16px" viewBox="-412 290.3 16 16" style="enable-background:new -412 290.3 16 16;" xml:space="preserve">
<style type="text/css">
	.st0{fill:#999999;}
</style>
<title>_icon</title>
<desc>Created with Sketch.</desc>
<g id="Page-1">
	<g id="_icon">
		<path id="icon-pic-copy" class="st0" d="M-409,292.3c-1.1,0-2,0.9-2,2v8c0,1.1,0.9,2,2,2h10c1.1,0,2-0.9,2-2v-8c0-1.1-0.9-2-2-2
			H-409z M-400.8,297.6c0,0-0.2-0.3-0.7-0.3c-0.6,0-0.8,0.3-0.8,0.3l-2.4,3.9c0,0-0.1,0.3-0.5,0.3c-0.3,0-0.5-0.3-0.5-0.3l-1.3-1.5
			c0,0-0.3-0.5-0.7-0.5s-0.8,0.5-0.8,0.5l-1,1.2v-6.5c0-0.6,0.4-1,1-1h9c0.5,0,1,0.4,1,1v6L-400.8,297.6z M-404.5,296.8
			c0,0.8-0.7,1.5-1.5,1.5s-1.5-0.7-1.5-1.5s0.7-1.5,1.5-1.5S-404.5,296-404.5,296.8L-404.5,296.8L-404.5,296.8z"/>
	</g>
</g>
</svg>
