<?xml version="1.0" encoding="utf-8"?>
<!-- Generator: Adobe Illustrator 19.0.0, SVG Export Plug-In . SVG Version: 6.00 Build 0)  -->
<svg version="1.1" id="icons" xmlns="http://www.w3.org/2000/svg" xmlns:xlink="http://www.w3.org/1999/xlink" x="0px" y="0px"
	 width="32px" height="32px" viewBox="-404 282.3 32 32" style="enable-background:new -404 282.3 32 32;" xml:space="preserve">
<style type="text/css">
	.st0{clip-path:url(#SVGID_2_);fill:#FFFFFF;}
</style>
<g>
	<defs>
		<path id="SVGID_1_" d="M-381,298.9c2.1,0,3.8-1.7,3.8-3.8c0-2.1-1.7-3.8-3.8-3.8c-2.1,0-3.8,1.7-3.8,3.8S-383.1,298.9-381,298.9
			L-381,298.9z M-392.1,298.3c1.4,0,2.8-0.6,3.8-1.6c1-1,1.6-2.4,1.6-3.8c0-3-2.4-5.4-5.4-5.4c-3,0-5.4,2.4-5.4,5.4
			C-397.5,295.9-395.1,298.3-392.1,298.3L-392.1,298.3z M-374.8,302.2c-0.7-1.1-1.7-2.3-3-2.3c-1,0.1-1.1,0.8-4.5,0.8
			c1.3,1.6,1.9,3.9,1.8,5.3c0,0.5-0.2,1.1-0.5,1.5c1.3,0,2.7-0.2,4-0.5c1.9-0.6,2.8-1.1,3-1.7C-373.9,304.8-374.1,303.3-374.8,302.2
			z M-387.3,299.5c-1.7,0-1.9,1.2-4.8,1.2c-2.9,0-3.1-1.2-4.8-1.2c-1.6,0-2.7,0.9-3.4,1.7c-1,1.2-1.8,3.3-1.7,4.7
			c0.1,1.2,0.7,3.6,9.9,3.6c9.5,0,9.8-2.6,9.8-3.7c0.1-1.3-0.6-3.6-1.9-5C-385.2,299.9-386.1,299.5-387.3,299.5z"/>
	</defs>
	<clipPath id="SVGID_2_">
		<use xlink:href="#SVGID_1_"  style="overflow:visible;"/>
	</clipPath>
	<rect x="-407" y="282.6" class="st0" width="38" height="32"/>
</g>
</svg>
