<?xml version="1.0" encoding="utf-8"?>
<!-- Generator: Adobe Illustrator 19.0.0, SVG Export Plug-In . SVG Version: 6.00 Build 0)  -->
<svg version="1.1" id="icons" xmlns="http://www.w3.org/2000/svg" xmlns:xlink="http://www.w3.org/1999/xlink" x="0px" y="0px"
	 width="200px" height="240px" viewBox="-299 181 200 240" style="enable-background:new -299 181 200 240;" xml:space="preserve">
<style type="text/css">
	.st0{fill:#FFFFFF;}
	.st1{fill:url(#XMLID_2_);}
	.st2{fill:url(#XMLID_3_);}
	.st3{fill:url(#XMLID_4_);}
</style>
<g id="XMLID_63_">
	<g id="XMLID_27_">
		<g id="XMLID_29_">
			<path id="XMLID_268_" class="st0" d="M-162.2,264.4v-34v-9.8c0-0.5-0.3-1-0.7-1.2l-8.5-4.9c-0.4-0.3-1-0.3-1.4,0l-8.5,4.9
				c-0.4,0.3-0.7,0.7-0.7,1.2v9.8v19.7l-14.6-8.4c-1.5-0.9-3.4-0.9-4.9,0l-31.9,18.4c-1.5,0.9-2.4,2.5-2.4,4.2v36.9
				c0,1.7,0.9,3.4,2.4,4.2l31.9,18.4c1.5,0.9,3.4,0.9,4.9,0l31.9-18.4c1.5-0.9,2.4-2.5,2.4-4.2L-162.2,264.4L-162.2,264.4z"/>
			<linearGradient id="XMLID_2_" gradientUnits="userSpaceOnUse" x1="-219.4077" y1="288.731" x2="-199" y2="288.731">
				<stop  offset="0" style="stop-color:#FF9974"/>
				<stop  offset="1" style="stop-color:#F2774B"/>
			</linearGradient>
			<polygon id="XMLID_267_" class="st1" points="-219.4,271.1 -199,282.8 -199,306.4 -219.4,294.6 			"/>
			<linearGradient id="XMLID_3_" gradientUnits="userSpaceOnUse" x1="-199" y1="288.731" x2="-178.5923" y2="288.731">
				<stop  offset="0" style="stop-color:#FF9974"/>
				<stop  offset="1" style="stop-color:#F2774B"/>
			</linearGradient>
			<polygon id="XMLID_257_" class="st2" points="-178.6,271.1 -199,282.8 -199,306.4 -178.6,294.6 			"/>
			<linearGradient id="XMLID_4_" gradientUnits="userSpaceOnUse" x1="-219.4077" y1="271.0574" x2="-178.5923" y2="271.0574">
				<stop  offset="0" style="stop-color:#FF9974"/>
				<stop  offset="1" style="stop-color:#F2774B"/>
			</linearGradient>
			<polygon id="XMLID_30_" class="st3" points="-219.4,271.1 -199,259.3 -178.6,271.1 -199,282.8 			"/>
		</g>
	</g>
	<g id="XMLID_284_">
		<g id="XMLID_293_">
			<path id="XMLID_297_" class="st0" d="M-277.5,351.1c-0.3,0-0.6-0.2-0.6-0.6v-0.9c0-2.8,2.3-5.2,5.2-5.2h4.6
				c0.3,0,0.6,0.2,0.6,0.6v5.5c0,0.3-0.2,0.6-0.6,0.6H-277.5z"/>
			<path id="XMLID_295_" class="st0" d="M-273.8,386.1c-0.3,0-0.6-0.2-0.6-0.6v-24.3h-6.8c-0.3,0-0.6-0.2-0.6-0.6v-0.9
				c0-2.8,2.3-5.2,5.2-5.2h8.3c0.3,0,0.6,0.2,0.6,0.6v24.3h5c0.3,0,0.6,0.2,0.6,0.6v0.9c0,2.8-2.3,5.2-5.2,5.2H-273.8z"/>
			<path id="XMLID_294_" class="st0" d="M-251.1,386.1c-0.2,0-0.4-0.1-0.5-0.3l-2.8-5.5c-0.1-0.2-0.1-0.4,0-0.5
				c0.1-0.2,0.3-0.3,0.5-0.3h5.9c2.2,0,4.1-1.8,4.1-4.1v-24.3h-17.9c-0.3,0-0.6-0.2-0.6-0.6v-0.9c0-2.8,2.3-5.2,5.2-5.2h24.9
				c0.3,0,0.6,0.2,0.6,0.6v5.5c0,0.3-0.2,0.6-0.6,0.6h-5v24.3c0,5.9-4.8,10.7-10.7,10.7H-251.1z"/>
		</g>
		<g id="XMLID_288_">
			<path id="XMLID_292_" class="st0" d="M-220,359.4c-0.3,0-0.6-0.2-0.6-0.6v-8.7h-3.1c-0.3,0-0.6-0.2-0.6-0.6v-0.9
				c0-2.8,2.3-5.2,5.2-5.2h6.5c0.3,0,0.6,0.2,0.6,0.6v5.5c0,0.3-0.2,0.6-0.6,0.6h-1.3v8.7c0,0.3-0.2,0.6-0.6,0.6H-220z"/>
			<path id="XMLID_291_" class="st0" d="M-201.3,359.4c-0.3,0-0.6-0.2-0.6-0.6v-8.7h-3.4c-0.3,0-0.6-0.2-0.6-0.6v-0.9
				c0-2.8,2.3-5.2,5.2-5.2h24.9c0.3,0,0.6,0.2,0.6,0.6v5.5c0,0.3-0.2,0.6-0.6,0.6h-19.5v2.6h19.5c0.3,0,0.6,0.2,0.6,0.6v5.5
				c0,0.3-0.2,0.6-0.6,0.6H-201.3z"/>
			<path id="XMLID_290_" class="st0" d="M-181.3,376.9c-0.3,0-0.6-0.2-0.6-0.6v-7.7h-32.1v7.7c0,0.3-0.2,0.6-0.6,0.6h-5.5
				c-0.3,0-0.6-0.2-0.6-0.6v-13.8c0-0.3,0.2-0.6,0.6-0.6h44.3c0.3,0,0.6,0.2,0.6,0.6v13.8c0,0.3-0.2,0.6-0.6,0.6H-181.3z"/>
			<path id="XMLID_289_" class="st0" d="M-190.5,386.1c-2.6,0-5.2-1-7.1-2.7l-0.2-0.2l-0.2,0.2c-2,1.8-4.5,2.7-7.1,2.7h-13.3
				c-0.2,0-0.4-0.1-0.5-0.3l-2.8-5.5c-0.1-0.2-0.1-0.4,0-0.5s0.3-0.3,0.5-0.3h16c2.2,0,4.1-1.8,4.1-4.1v-3.9c0-0.3,0.2-0.6,0.6-0.6
				h5.5c0.3,0,0.6,0.2,0.6,0.6v3.9c0,2.2,1.8,4.1,4.1,4.1h16c0.2,0,0.4,0.1,0.5,0.3c0.1,0.2,0.1,0.4,0,0.5l-2.8,5.5
				c-0.1,0.2-0.3,0.3-0.5,0.3H-190.5z"/>
		</g>
		<g id="XMLID_285_">
			<path id="XMLID_287_" class="st0" d="M-162,368.8c-0.1,0-0.3-0.1-0.4-0.2l-3.9-3.9c-0.1-0.1-0.2-0.2-0.2-0.4s0.1-0.3,0.2-0.4
				l18.9-18.9c1-1,2.3-1.5,3.7-1.5c1.4,0,2.7,0.5,3.7,1.5l0.7,0.7c0.1,0.1,0.2,0.2,0.2,0.4c0,0.1-0.1,0.3-0.2,0.4l-22.2,22.2
				C-161.7,368.7-161.9,368.8-162,368.8z"/>
			<path id="XMLID_286_" class="st0" d="M-164.8,386.1c-0.3,0-0.6-0.2-0.6-0.6c0-0.1,0-0.2,0-0.3c0.1-2.8,1.3-5.4,3.4-7.2l0,0
				l28.7-28.7c1-1,2.3-1.5,3.7-1.5c1.4,0,2.7,0.5,3.7,1.5l0.7,0.7c0.2,0.2,0.2,0.6,0,0.8l-28.7,28.7h31.1v-5.3
				c0-0.3,0.3-0.6,0.6-0.6c0.1,0,0.2,0,0.2,0.1l5.5,2.8c0.2,0.1,0.3,0.3,0.3,0.5v8.7c0,0.3-0.2,0.6-0.6,0.6H-164.8z"/>
		</g>
	</g>
</g>
</svg>
