<?xml version="1.0" encoding="utf-8"?>
<!-- Generator: Adobe Illustrator 19.0.0, SVG Export Plug-In . SVG Version: 6.00 Build 0)  -->
<svg version="1.1" id="icons" xmlns="http://www.w3.org/2000/svg" xmlns:xlink="http://www.w3.org/1999/xlink" x="0px" y="0px"
	 width="18px" height="18px" viewBox="-411 289.3 18 18" style="enable-background:new -411 289.3 18 18;" xml:space="preserve">
<style type="text/css">
	.st0{clip-path:url(#SVGID_2_);fill:#BBBBBB;}
	.st1{clip-path:url(#SVGID_4_);fill:#BBBBBB;}
</style>
<g>
	<defs>
		<path id="SVGID_1_" d="M-409,298.3c0-0.6,0.4-1,1-1h12c0.6,0,1,0.5,1,1v6c0,0.6-0.4,1-1,1h-12c-0.6,0-1-0.5-1-1V298.3z
			 M-403,301.6c-0.3,0.2-0.5,0.4-0.5,0.7c0,0.6,0.9,1,1.5,1s1.5-0.4,1.5-1c0-0.3-0.2-0.5-0.5-0.7c0-0.1,0-0.2,0-0.3v-1
			c0-0.6-0.4-1-1-1c-0.6,0-1,0.4-1,1v1C-403,301.4-403,301.5-403,301.6z"/>
	</defs>
	<clipPath id="SVGID_2_">
		<use xlink:href="#SVGID_1_"  style="overflow:visible;"/>
	</clipPath>
	<rect x="-414" y="292.3" class="st0" width="24" height="18"/>
</g>
<g>
	<defs>
		<path id="SVGID_3_" d="M-407,296.3c0-2.8,2.2-5,5-5c2.8,0,5,2.2,5,5v4c0,2.8-2.2,5-5,5c-2.8,0-5-2.2-5-5V296.3z M-405,296.3v4
			c0,1.7,1.3,3,3,3c1.7,0,3-1.3,3-3v-4c0-1.7-1.3-3-3-3C-403.7,293.3-405,294.6-405,296.3z"/>
	</defs>
	<clipPath id="SVGID_4_">
		<use xlink:href="#SVGID_3_"  style="overflow:visible;"/>
	</clipPath>
	<rect x="-412" y="286.3" class="st1" width="20" height="24"/>
</g>
</svg>
