<?xml version="1.0" encoding="utf-8"?>
<!-- Generator: Adobe Illustrator 19.0.0, SVG Export Plug-In . SVG Version: 6.00 Build 0)  -->
<svg version="1.1" id="icons" xmlns="http://www.w3.org/2000/svg" xmlns:xlink="http://www.w3.org/1999/xlink" x="0px" y="0px"
	 width="18px" height="18px" viewBox="-411 289.3 18 18" style="enable-background:new -411 289.3 18 18;" xml:space="preserve">
<style type="text/css">
	.st0{clip-path:url(#SVGID_2_);fill:#999999;}
</style>
<g>
	<defs>
		<path id="SVGID_1_" d="M-406,305.3c-2.2,0-4-1.8-4-4c0-1.5,0.8-2.8,2-3.5c0-0.2,0-0.3,0-0.5c0-3.3,2.7-6,6-6c3.2,0,5.9,2.6,6,5.8
			c1.2,0.8,2,2.2,2,3.7c0,2.3-1.8,4.2-4,4.5v0H-406z M-401,299.7l2.3,2.3c0.4,0.4,1,0.4,1.4,0c0.4-0.4,0.4-1,0-1.4l-4.7-4.7
			l-4.7,4.7c-0.4,0.4-0.4,1,0,1.4c0.4,0.4,1,0.4,1.4,0l2.3-2.3v5.6h2V299.7z"/>
	</defs>
	<clipPath id="SVGID_2_">
		<use xlink:href="#SVGID_1_"  style="overflow:visible;"/>
	</clipPath>
	<rect x="-415" y="286.3" class="st0" width="26" height="24"/>
</g>
</svg>
