<?xml version="1.0" encoding="utf-8"?>
<!-- Generator: Adobe Illustrator 19.0.0, SVG Export Plug-In . SVG Version: 6.00 Build 0)  -->
<svg version="1.1" id="icons" xmlns="http://www.w3.org/2000/svg" xmlns:xlink="http://www.w3.org/1999/xlink" x="0px" y="0px"
	 width="18px" height="18px" viewBox="-190 192 18 18" style="enable-background:new -190 192 18 18;" xml:space="preserve">
<style type="text/css">
	.st0{clip-path:url(#SVGID_2_);fill:#66C6BC;}
</style>
<g>
	<defs>
		<path id="SVGID_1_" d="M-185.3,199.3c-0.4-0.4-1-0.4-1.4,0s-0.4,1,0,1.4l4.7,4.7l6.7-6.7c0.4-0.4,0.4-1,0-1.4
			c-0.4-0.4-1-0.4-1.4,0l-5.3,5.3L-185.3,199.3z M-189,201c0-4.4,3.6-8,8-8c4.4,0,8,3.6,8,8c0,4.4-3.6,8-8,8
			C-185.4,209-189,205.4-189,201z"/>
	</defs>
	<clipPath id="SVGID_2_">
		<use xlink:href="#SVGID_1_"  style="overflow:visible;"/>
	</clipPath>
	<rect x="-194" y="188" class="st0" width="26" height="26"/>
</g>
</svg>
