<?xml version="1.0" encoding="utf-8"?>
<!-- Generator: Adobe Illustrator 19.0.0, SVG Export Plug-In . SVG Version: 6.00 Build 0)  -->
<svg version="1.1" id="图层_1" xmlns="http://www.w3.org/2000/svg" xmlns:xlink="http://www.w3.org/1999/xlink" x="0px" y="0px"
	 width="16px" height="16px" viewBox="-412 290.3 16 16" style="enable-background:new -412 290.3 16 16;" xml:space="preserve">
<style type="text/css">
	.st0{fill:#999999;}
</style>
<title>_icon</title>
<desc>Created with Sketch.</desc>
<g id="Page-1">
	<g id="_icon">
		<path id="icon-file" class="st0" d="M-405,291.3l-5,5v7.1c0,1,0.9,1.9,2,1.9h8.1c1.1,0,2-0.9,2-1.9v-10.2c0-1-0.9-1.9-2-1.9
			L-405,291.3L-405,291.3z M-399.5,302.8c0,0.5-0.4,1-1,1h-7c-0.6,0-1-0.4-1-1v-5.5h3.5c0.6,0,1-0.4,1-1v-3.5h3.5c0.6,0,1,0.4,1,1
			V302.8z"/>
	</g>
</g>
</svg>
