<?xml version="1.0" encoding="utf-8"?>
<!-- Generator: Adobe Illustrator 19.0.0, SVG Export Plug-In . SVG Version: 6.00 Build 0)  -->
<svg version="1.1" id="icons" xmlns="http://www.w3.org/2000/svg" xmlns:xlink="http://www.w3.org/1999/xlink" x="0px" y="0px"
	 width="18px" height="18px" viewBox="-411 289.3 18 18" style="enable-background:new -411 289.3 18 18;" xml:space="preserve">
<style type="text/css">
	.st0{clip-path:url(#SVGID_2_);fill:#BBBBBB;}
	.st1{clip-path:url(#SVGID_4_);fill:#BBBBBB;}
</style>
<g>
	<defs>
		<path id="SVGID_1_" d="M-402,301.3c2.2,0,4-3.5,4-5.8c0-2.3-1.8-4.2-4-4.2s-4,1.9-4,4.2C-406,297.7-404.2,301.3-402,301.3z"/>
	</defs>
	<clipPath id="SVGID_2_">
		<use xlink:href="#SVGID_1_"  style="overflow:visible;"/>
	</clipPath>
	<rect x="-411" y="286.3" class="st0" width="18" height="20"/>
</g>
<g>
	<defs>
		<path id="SVGID_3_" d="M-408.8,302.2c-0.1-0.5,0.2-1.1,0.7-1.2c0,0,4.5-0.8,5-1.8c0.1-0.2,0.7,0,1,0c0.3,0,0.9-0.2,1,0
			c0.5,1,5,1.8,5,1.8c0.5,0.1,0.9,0.6,0.7,1.2l-0.5,2.1c-0.1,0.5-0.7,1-1.2,1h-5h-5c-0.6,0-1.1-0.4-1.2-1L-408.8,302.2z"/>
	</defs>
	<clipPath id="SVGID_4_">
		<use xlink:href="#SVGID_3_"  style="overflow:visible;"/>
	</clipPath>
	<rect x="-413.8" y="294.2" class="st1" width="23.6" height="16.1"/>
</g>
</svg>
