<?xml version="1.0" encoding="utf-8"?>
<!-- Generator: Adobe Illustrator 19.0.0, SVG Export Plug-In . SVG Version: 6.00 Build 0)  -->
<svg version="1.1" id="icons" xmlns="http://www.w3.org/2000/svg" xmlns:xlink="http://www.w3.org/1999/xlink" x="0px" y="0px"
	 width="24px" height="24px" viewBox="-378 286.3 24 24" style="enable-background:new -378 286.3 24 24;" xml:space="preserve">
<style type="text/css">
	.st0{clip-path:url(#SVGID_2_);}
	.st1{clip-path:url(#SVGID_4_);fill:#DDDDDD;}
</style>
<g>
	<defs>
		<path id="SVGID_1_" d="M-378,298.3c0-6.6,5.4-12,12-12c6.6,0,12,5.4,12,12c0,6.6-5.4,12-12,12C-372.6,310.3-378,304.9-378,298.3z
			 M-366,296.2l-3.5-3.5c-0.4-0.4-1-0.4-1.4,0l-0.7,0.7c-0.4,0.4-0.4,1,0,1.4l3.5,3.5l-3.5,3.5c-0.4,0.4-0.4,1,0,1.4l0.7,0.7
			c0.4,0.4,1,0.4,1.4,0l3.5-3.5l3.5,3.5c0.4,0.4,1,0.4,1.4,0l0.7-0.7c0.4-0.4,0.4-1,0-1.4l-3.5-3.5l3.5-3.5c0.4-0.4,0.4-1,0-1.4
			l-0.7-0.7c-0.4-0.4-1-0.4-1.4,0L-366,296.2z"/>
	</defs>
	<clipPath id="SVGID_2_">
		<use xlink:href="#SVGID_1_"  style="overflow:visible;"/>
	</clipPath>
	<g class="st0">
		<defs>
			<rect id="SVGID_3_" x="-1009" y="-74.7" width="750" height="1334"/>
		</defs>
		<clipPath id="SVGID_4_">
			<use xlink:href="#SVGID_3_"  style="overflow:visible;"/>
		</clipPath>
		<rect x="-383" y="281.3" class="st1" width="34" height="34"/>
	</g>
</g>
</svg>
