<?xml version="1.0" encoding="UTF-8"?>
<svg width="44px" height="44px" viewBox="0 0 44 44" version="1.1" xmlns="http://www.w3.org/2000/svg" xmlns:xlink="http://www.w3.org/1999/xlink">
    <!-- Generator: Sketch 46.2 (44496) - http://www.bohemiancoding.com/sketch -->
    <title>Artboard</title>
    <desc>Created with Sketch.</desc>
    <defs>
        <linearGradient x1="3.061617e-15%" y1="50%" x2="100%" y2="50%" id="linearGradient-1">
            <stop stop-color="#00C2F8" offset="0%"></stop>
            <stop stop-color="#4DA1FF" offset="100%"></stop>
        </linearGradient>
    </defs>
    <g id="Page-1" stroke="none" stroke-width="1" fill="none" fill-rule="evenodd">
        <g id="Artboard" fill="url(#linearGradient-1)">
            <g id="contacts-copy-2">
                <path d="M6,2 L20,2 L20,2 C29.9411255,2 38,10.0588745 38,20 L38,42 L6,42 L6,2 Z M14,32 C12.8954305,32 12,32.8954305 12,34 C12,35.1045695 12.8954305,36 14,36 L30,36 C31.1045695,36 32,35.1045695 32,34 C32,32.8954305 31.1045695,32 30,32 L14,32 Z M14,12 C12.8954305,12 12,12.8954305 12,14 C12,15.1045695 12.8954305,16 14,16 L20,16 C21.1045695,16 22,15.1045695 22,14 C22,12.8954305 21.1045695,12 20,12 L14,12 Z M14,22 C12.8954305,22 12,22.8954305 12,24 C12,25.1045695 12.8954305,26 14,26 L28,26 C29.1045695,26 30,25.1045695 30,24 C30,22.8954305 29.1045695,22 28,22 L14,22 Z" id="Combined-Shape"></path>
            </g>
        </g>
    </g>
</svg>