<?xml version="1.0" encoding="UTF-8"?>
<svg width="44px" height="44px" viewBox="0 0 44 44" version="1.1" xmlns="http://www.w3.org/2000/svg" xmlns:xlink="http://www.w3.org/1999/xlink">
    <!-- Generator: Sketch 46.2 (44496) - http://www.bohemiancoding.com/sketch -->
    <title>Artboard</title>
    <desc>Created with Sketch.</desc>
    <defs>
        <linearGradient x1="3.061617e-15%" y1="50%" x2="100%" y2="50%" id="linearGradient-1">
            <stop stop-color="#00C2F8" offset="0%"></stop>
            <stop stop-color="#4DA1FF" offset="100%"></stop>
        </linearGradient>
    </defs>
    <g id="Page-1" stroke="none" stroke-width="1" fill="none" fill-rule="evenodd">
        <g id="Artboard">
            <g id="contacts-copy-2">
                <rect id="Rectangle-3" x="0" y="0" width="44" height="44"></rect>
                <path d="M22,22 C16.477,22 12,17.523 12,12 C12,6.477 16.477,2 22,2 C27.523,2 32,6.477 32,12 C32,17.523 27.523,22 22,22 Z M16,26 L28,26 C34.627,26 40,31.373 40,38 C40,40.2105899 38.2135362,42 36.0098214,42 L7.99017859,42 C5.7852456,42 4,40.209139 4,38 C4,31.373 9.373,26 16,26 Z" id="icon" fill="url(#linearGradient-1)"></path>
            </g>
        </g>
    </g>
</svg>