<?xml version="1.0" encoding="utf-8"?>
<!-- Generator: Adobe Illustrator 19.0.0, SVG Export Plug-In . SVG Version: 6.00 Build 0)  -->
<svg version="1.1" id="icons" xmlns="http://www.w3.org/2000/svg" xmlns:xlink="http://www.w3.org/1999/xlink" x="0px" y="0px"
	 width="44px" height="44px" viewBox="-398 276.3 44 44" style="enable-background:new -398 276.3 44 44;" xml:space="preserve">
<style type="text/css">
	.st0{clip-path:url(#SVGID_2_);}
	.st1{clip-path:url(#SVGID_4_);fill:#DDDDDD;}
</style>
<g>
	<defs>
		<path id="SVGID_1_" d="M-358,298.4c-0.1-1.4-1.2-2.5-2.6-2.6c-0.4,0-2.2,0-2.6,0v-5.8c0-7.1-5.7-12.8-12.8-12.8
			c-7.1,0-12.8,5.7-12.8,12.8v5.8c-0.4,0-2.2,0-2.6,0c-1.4,0.1-2.5,1.2-2.6,2.6c-0.4,6.3-0.4,11.7,0,17.9c0.1,1.4,1.2,2.5,2.6,2.6
			c9.3,0.4,21.4,0.4,30.7,0c1.4-0.1,2.5-1.2,2.6-2.6C-357.6,310.1-357.6,304.7-358,298.4z M-372.3,309.2c0,2-1.6,3.7-3.7,3.7
			c-2,0-3.7-1.6-3.7-3.7v-5.5c0-2,1.6-3.7,3.7-3.7c2,0,3.7,1.6,3.7,3.7V309.2z M-370.5,295.6c-3.7-0.1-7.3-0.1-11,0v-5.5
			c0-3,2.5-5.5,5.5-5.5c3,0,5.5,2.5,5.5,5.5V295.6z"/>
	</defs>
	<clipPath id="SVGID_2_">
		<use xlink:href="#SVGID_1_"  style="overflow:visible;"/>
	</clipPath>
	<g class="st0">
		<defs>
			<rect id="SVGID_3_" x="-501.3" y="-184.7" width="750" height="1334"/>
		</defs>
		<clipPath id="SVGID_4_">
			<use xlink:href="#SVGID_3_"  style="overflow:visible;"/>
		</clipPath>
		<rect x="-399.3" y="272.3" class="st1" width="46.5" height="52"/>
	</g>
</g>
</svg>
