<?xml version="1.0" encoding="utf-8"?>
<!-- Generator: Adobe Illustrator 19.0.0, SVG Export Plug-In . SVG Version: 6.00 Build 0)  -->
<svg version="1.1" id="icons" xmlns="http://www.w3.org/2000/svg" xmlns:xlink="http://www.w3.org/1999/xlink" x="0px" y="0px"
	 width="44px" height="44px" viewBox="-398 276.3 44 44" style="enable-background:new -398 276.3 44 44;" xml:space="preserve">
<style type="text/css">
	.st0{clip-path:url(#SVGID_2_);}
	.st1{clip-path:url(#SVGID_4_);fill:none;stroke:#333333;stroke-width:8;stroke-miterlimit:10;}
	.st2{clip-path:url(#SVGID_6_);}
	.st3{clip-path:url(#SVGID_8_);fill:#333333;}
	.st4{clip-path:url(#SVGID_10_);}
	.st5{clip-path:url(#SVGID_12_);fill:#333333;}
	.st6{clip-path:url(#SVGID_14_);}
	.st7{clip-path:url(#SVGID_16_);fill:#333333;}
	.st8{clip-path:url(#SVGID_18_);}
	.st9{clip-path:url(#SVGID_20_);fill:#333333;}
	.st10{clip-path:url(#SVGID_22_);}
	.st11{clip-path:url(#SVGID_24_);fill:#333333;}
	.st12{clip-path:url(#SVGID_26_);}
	.st13{clip-path:url(#SVGID_28_);fill:#333333;}
</style>
<g>
	<defs>
		<path id="SVGID_1_" d="M-392,283.3h32c1.1,0,2,0.9,2,2v29c0,1.1-0.9,2-2,2h-32c-1.1,0-2-0.9-2-2v-29
			C-394,284.2-393.1,283.3-392,283.3z"/>
	</defs>
	<clipPath id="SVGID_2_">
		<use xlink:href="#SVGID_1_"  style="overflow:visible;"/>
	</clipPath>
	<g class="st0">
		<defs>
			<rect id="SVGID_3_" x="-1075" y="21.3" width="750" height="1334"/>
		</defs>
		<clipPath id="SVGID_4_">
			<use xlink:href="#SVGID_3_"  style="overflow:visible;"/>
		</clipPath>
		<path class="st1" d="M-392,283.3h32c1.1,0,2,0.9,2,2v29c0,1.1-0.9,2-2,2h-32c-1.1,0-2-0.9-2-2v-29
			C-394,284.2-393.1,283.3-392,283.3z"/>
	</g>
</g>
<g>
	<defs>
		<path id="SVGID_5_" d="M-392,291.3h32c1.1,0,2,0.9,2,2s-0.9,2-2,2h-32c-1.1,0-2-0.9-2-2S-393.1,291.3-392,291.3z"/>
	</defs>
	<clipPath id="SVGID_6_">
		<use xlink:href="#SVGID_5_"  style="overflow:visible;"/>
	</clipPath>
	<g class="st2">
		<defs>
			<rect id="SVGID_7_" x="-1075" y="21.3" width="750" height="1334"/>
		</defs>
		<clipPath id="SVGID_8_">
			<use xlink:href="#SVGID_7_"  style="overflow:visible;"/>
		</clipPath>
		<rect x="-399" y="286.3" class="st3" width="46" height="14"/>
	</g>
</g>
<g>
	<defs>
		<path id="SVGID_9_" d="M-374,282.3v5c0,1.1-0.9,2-2,2s-2-0.9-2-2v-5c0-1.1,0.9-2,2-2S-374,281.2-374,282.3z"/>
	</defs>
	<clipPath id="SVGID_10_">
		<use xlink:href="#SVGID_9_"  style="overflow:visible;"/>
	</clipPath>
	<g class="st4">
		<defs>
			<rect id="SVGID_11_" x="-1075" y="21.3" width="750" height="1334"/>
		</defs>
		<clipPath id="SVGID_12_">
			<use xlink:href="#SVGID_11_"  style="overflow:visible;"/>
		</clipPath>
		<rect x="-383" y="275.3" class="st5" width="14" height="19"/>
	</g>
</g>
<g>
	<defs>
		<path id="SVGID_13_" d="M-365,282.3v5c0,1.1-0.9,2-2,2s-2-0.9-2-2v-5c0-1.1,0.9-2,2-2S-365,281.2-365,282.3z"/>
	</defs>
	<clipPath id="SVGID_14_">
		<use xlink:href="#SVGID_13_"  style="overflow:visible;"/>
	</clipPath>
	<g class="st6">
		<defs>
			<rect id="SVGID_15_" x="-1075" y="21.3" width="750" height="1334"/>
		</defs>
		<clipPath id="SVGID_16_">
			<use xlink:href="#SVGID_15_"  style="overflow:visible;"/>
		</clipPath>
		<rect x="-374" y="275.3" class="st7" width="14" height="19"/>
	</g>
</g>
<g>
	<defs>
		<path id="SVGID_17_" d="M-383,282.3v5c0,1.1-0.9,2-2,2s-2-0.9-2-2v-5c0-1.1,0.9-2,2-2S-383,281.2-383,282.3z"/>
	</defs>
	<clipPath id="SVGID_18_">
		<use xlink:href="#SVGID_17_"  style="overflow:visible;"/>
	</clipPath>
	<g class="st8">
		<defs>
			<rect id="SVGID_19_" x="-1075" y="21.3" width="750" height="1334"/>
		</defs>
		<clipPath id="SVGID_20_">
			<use xlink:href="#SVGID_19_"  style="overflow:visible;"/>
		</clipPath>
		<rect x="-392" y="275.3" class="st9" width="14" height="19"/>
	</g>
</g>
<g>
	<defs>
		<path id="SVGID_21_" d="M-386,298.3h20c1.1,0,2,0.9,2,2s-0.9,2-2,2h-20c-1.1,0-2-0.9-2-2S-387.1,298.3-386,298.3z"/>
	</defs>
	<clipPath id="SVGID_22_">
		<use xlink:href="#SVGID_21_"  style="overflow:visible;"/>
	</clipPath>
	<g class="st10">
		<defs>
			<rect id="SVGID_23_" x="-1075" y="21.3" width="750" height="1334"/>
		</defs>
		<clipPath id="SVGID_24_">
			<use xlink:href="#SVGID_23_"  style="overflow:visible;"/>
		</clipPath>
		<rect x="-393" y="293.3" class="st11" width="34" height="14"/>
	</g>
</g>
<g>
	<defs>
		<path id="SVGID_25_" d="M-386,305.3h14c1.1,0,2,0.9,2,2s-0.9,2-2,2h-14c-1.1,0-2-0.9-2-2S-387.1,305.3-386,305.3z"/>
	</defs>
	<clipPath id="SVGID_26_">
		<use xlink:href="#SVGID_25_"  style="overflow:visible;"/>
	</clipPath>
	<g class="st12">
		<defs>
			<rect id="SVGID_27_" x="-1075" y="21.3" width="750" height="1334"/>
		</defs>
		<clipPath id="SVGID_28_">
			<use xlink:href="#SVGID_27_"  style="overflow:visible;"/>
		</clipPath>
		<rect x="-393" y="300.3" class="st13" width="28" height="14"/>
	</g>
</g>
</svg>
