<?xml version="1.0" encoding="UTF-8"?>
<svg width="44px" height="44px" viewBox="0 0 44 44" version="1.1" xmlns="http://www.w3.org/2000/svg" xmlns:xlink="http://www.w3.org/1999/xlink">
    <!-- Generator: Sketch 46.2 (44496) - http://www.bohemiancoding.com/sketch -->
    <title>Artboard</title>
    <desc>Created with Sketch.</desc>
    <defs>
        <linearGradient x1="3.061617e-15%" y1="50%" x2="100%" y2="50%" id="linearGradient-1">
            <stop stop-color="#00C2F8" offset="0%"></stop>
            <stop stop-color="#4DA1FF" offset="100%"></stop>
        </linearGradient>
    </defs>
    <g id="Page-1" stroke="none" stroke-width="1" fill="none" fill-rule="evenodd">
        <g id="Artboard" fill="url(#linearGradient-1)">
            <g id="contacts-copy-2">
                <path d="M9.85561711,2 L34.1443829,2 L34.1443829,2 C35.1909263,2 36.0605106,2.80680778 36.1387815,3.8504201 L38.8387815,39.8504201 C38.9213922,40.951896 38.0954387,41.9117879 36.9939628,41.9943986 C36.9441902,41.9981316 36.8942953,42 36.8443829,42 L7.15561711,42 C6.05104761,42 5.15561711,41.1045695 5.15561711,40 C5.15561711,39.9500876 5.15748555,39.9001927 5.16121849,39.8504201 L7.86121849,3.8504201 L7.86121849,3.8504201 C7.93948942,2.80680778 8.80907375,2 9.85561711,2 L9.85561711,2 Z M12,12 L12,15 C12,20.5228475 16.4771525,25 22,25 C27.5228475,25 32,20.5228475 32,15 L32,12 C32,10.8954305 31.1045695,10 30,10 C28.8954305,10 28,10.8954305 28,12 L28,15 C28,18.3137085 25.3137085,21 22,21 C18.6862915,21 16,18.3137085 16,15 L16,12 C16,10.8954305 15.1045695,10 14,10 C12.8954305,10 12,10.8954305 12,12 Z" id="Combined-Shape"></path>
            </g>
        </g>
    </g>
</svg>