<?xml version="1.0" encoding="utf-8"?>
<!-- Generator: Adobe Illustrator 19.0.0, SVG Export Plug-In . SVG Version: 6.00 Build 0)  -->
<svg version="1.1" id="icons" xmlns="http://www.w3.org/2000/svg" xmlns:xlink="http://www.w3.org/1999/xlink" x="0px" y="0px"
	 width="44px" height="44px" viewBox="-398 276.3 44 44" style="enable-background:new -398 276.3 44 44;" xml:space="preserve">
<style type="text/css">
	.st0{clip-path:url(#SVGID_2_);}
	.st1{clip-path:url(#SVGID_4_);fill:#DDDDDD;}
</style>
<g>
	<defs>
		<path id="SVGID_1_" d="M-376,307.3c-0.7,0.7-1.3,1.2-2,1.5s-1.3,0.5-2,0.5v8h4h4v-8c-0.7,0-1.3-0.2-2-0.5S-375.3,307.9-376,307.3z
			 M-389,301.8c1,0.1,2,0.1,3,0c1-0.1,2-0.4,3-1l7-4.5l7,4.5c1,0.6,2,0.9,3,1s2,0.1,3,0v13.5c0,1.1-0.9,2-2,2h-22c-1.1,0-2-0.9-2-2
			V301.8z M-376,279.3l19,11c-0.1,1.2-0.5,2.3-1.1,3.3c-2.1,3.5-6.7,4.6-10.2,2.5l-7.7-4.7l-7.7,4.7c-1,0.6-2.1,1-3.3,1.1
			c-4.1,0.3-7.7-2.7-8-6.8L-376,279.3z"/>
	</defs>
	<clipPath id="SVGID_2_">
		<use xlink:href="#SVGID_1_"  style="overflow:visible;"/>
	</clipPath>
	<g class="st0">
		<defs>
			<rect id="SVGID_3_" x="-451" y="-582.7" width="750" height="1334"/>
		</defs>
		<clipPath id="SVGID_4_">
			<use xlink:href="#SVGID_3_"  style="overflow:visible;"/>
		</clipPath>
		<rect x="-400" y="274.3" class="st1" width="48" height="48"/>
	</g>
</g>
</svg>
