<?xml version="1.0" encoding="utf-8"?>
<!-- Generator: Adobe Illustrator 19.0.0, SVG Export Plug-In . SVG Version: 6.00 Build 0)  -->
<svg version="1.1" id="icons" xmlns="http://www.w3.org/2000/svg" xmlns:xlink="http://www.w3.org/1999/xlink" x="0px" y="0px"
	 width="44px" height="44px" viewBox="-398 276.3 44 44" style="enable-background:new -398 276.3 44 44;" xml:space="preserve">
<style type="text/css">
	.st0{clip-path:url(#SVGID_2_);fill:none;stroke:#333333;stroke-width:8;stroke-miterlimit:10;}
	.st1{clip-path:url(#SVGID_4_);fill:#333333;}
	.st2{clip-path:url(#SVGID_6_);fill:#333333;}
	.st3{clip-path:url(#SVGID_8_);fill:#333333;}
	.st4{clip-path:url(#SVGID_10_);fill:#333333;}
</style>
<g>
	<defs>
		<path id="SVGID_1_" d="M-366,285.3l6,6v24c0,1.1-0.9,2-2,2h-28c-1.1,0-2-0.9-2-2v-34c0-1.1,0.9-2,2-2h18L-366,285.3z"/>
	</defs>
	<clipPath id="SVGID_2_">
		<use xlink:href="#SVGID_1_"  style="overflow:visible;"/>
	</clipPath>
	<path class="st0" d="M-366,285.3l6,6v24c0,1.1-0.9,2-2,2h-28c-1.1,0-2-0.9-2-2v-34c0-1.1,0.9-2,2-2h18L-366,285.3z"/>
</g>
<g>
	<defs>
		<polygon id="SVGID_3_" points="-371,281.3 -375,281.3 -375,294.3 -362,294.3 -362,290.3 -371,290.3 		"/>
	</defs>
	<clipPath id="SVGID_4_">
		<use xlink:href="#SVGID_3_"  style="overflow:visible;"/>
	</clipPath>
	<rect x="-380" y="276.3" class="st1" width="23" height="23"/>
</g>
<g>
	<defs>
		<path id="SVGID_5_" d="M-383,290.3h3c1.1,0,2,0.9,2,2s-0.9,2-2,2h-3c-1.1,0-2-0.9-2-2S-384.1,290.3-383,290.3z"/>
	</defs>
	<clipPath id="SVGID_6_">
		<use xlink:href="#SVGID_5_"  style="overflow:visible;"/>
	</clipPath>
	<rect x="-390" y="285.3" class="st2" width="17" height="14"/>
</g>
<g>
	<defs>
		<path id="SVGID_7_" d="M-383,298.3h14c1.1,0,2,0.9,2,2s-0.9,2-2,2h-14c-1.1,0-2-0.9-2-2S-384.1,298.3-383,298.3z"/>
	</defs>
	<clipPath id="SVGID_8_">
		<use xlink:href="#SVGID_7_"  style="overflow:visible;"/>
	</clipPath>
	<rect x="-390" y="293.3" class="st3" width="28" height="14"/>
</g>
<g>
	<defs>
		<path id="SVGID_9_" d="M-383,305.3h14c1.1,0,2,0.9,2,2s-0.9,2-2,2h-14c-1.1,0-2-0.9-2-2S-384.1,305.3-383,305.3z"/>
	</defs>
	<clipPath id="SVGID_10_">
		<use xlink:href="#SVGID_9_"  style="overflow:visible;"/>
	</clipPath>
	<rect x="-390" y="300.3" class="st4" width="28" height="14"/>
</g>
</svg>
