<?xml version="1.0" encoding="utf-8"?>
<!-- Generator: Adobe Illustrator 19.0.0, SVG Export Plug-In . SVG Version: 6.00 Build 0)  -->
<svg version="1.1" id="icons" xmlns="http://www.w3.org/2000/svg" xmlns:xlink="http://www.w3.org/1999/xlink" x="0px" y="0px"
	 width="18px" height="18px" viewBox="-190 192 18 18" style="enable-background:new -190 192 18 18;" xml:space="preserve">
<style type="text/css">
	.st0{clip-path:url(#SVGID_2_);fill:#F56262;}
</style>
<g>
	<defs>
		<path id="SVGID_1_" d="M-178.2,203.2c0.1,0.1,0.1,0.4,0,0.5c-0.1,0.1-0.4,0.1-0.5,0l-2.3-2.3l-2.3,2.3c-0.1,0.1-0.4,0.1-0.5,0
			c-0.1-0.1-0.1-0.4,0-0.5l2.3-2.2l-2.3-2.2c-0.1-0.1-0.1-0.4,0-0.5c0.1-0.1,0.4-0.1,0.5,0l2.3,2.3l2.3-2.3c0.1-0.1,0.4-0.1,0.5,0
			c0.1,0.1,0.1,0.4,0,0.5l-2.3,2.2L-178.2,203.2z M-181,195c-3.3,0-6,2.7-6,6s2.7,6,6,6s6-2.7,6-6S-177.7,195-181,195z"/>
	</defs>
	<clipPath id="SVGID_2_">
		<use xlink:href="#SVGID_1_"  style="overflow:visible;"/>
	</clipPath>
	<rect x="-192" y="190" class="st0" width="22" height="22"/>
</g>
</svg>
