<?xml version="1.0" encoding="utf-8"?>
<!-- Generator: Adobe Illustrator 19.0.0, SVG Export Plug-In . SVG Version: 6.00 Build 0)  -->
<svg version="1.1" id="icons" xmlns="http://www.w3.org/2000/svg" xmlns:xlink="http://www.w3.org/1999/xlink" x="0px" y="0px"
	 width="44px" height="44px" viewBox="-398 276.3 44 44" style="enable-background:new -398 276.3 44 44;" xml:space="preserve">
<style type="text/css">
	.st0{clip-path:url(#SVGID_2_);fill:#4DA1FF;}
	.st1{clip-path:url(#SVGID_4_);fill:#FFFFFF;}
</style>
<g>
	<defs>
		<circle id="SVGID_1_" cx="-376" cy="298.3" r="14"/>
	</defs>
	<clipPath id="SVGID_2_">
		<use xlink:href="#SVGID_1_"  style="overflow:visible;"/>
	</clipPath>
	<rect x="-395" y="279.3" class="st0" width="38" height="38"/>
</g>
<g>
	<defs>
		<path id="SVGID_3_" d="M-376,309.8c-1.4,0-2.5-1.1-2.5-2.5s1.1-2.5,2.5-2.5s2.5,1.1,2.5,2.5S-374.6,309.8-376,309.8z
			 M-377.4,297.9c0.4-0.4,0.9-0.6,1.4-0.6c0.9,0,1.7-0.4,2.3-1c0.5-0.5,0.7-1.2,0.7-2c0-1.7-1.3-3-3-3s-3,1.3-3,3c0,1.1-0.9,2-2,2
			s-2-0.9-2-2c0-3.9,3.1-7,7-7s7,3.1,7,7c0,1.7-0.6,3.4-1.7,4.6c-0.9,1-2,1.7-3.3,2.1v0.3c0,1.1-0.9,2-2,2s-2-0.9-2-2v-2
			C-378,298.7-377.8,298.2-377.4,297.9z"/>
	</defs>
	<clipPath id="SVGID_4_">
		<use xlink:href="#SVGID_3_"  style="overflow:visible;"/>
	</clipPath>
	<rect x="-388" y="282.3" class="st1" width="24" height="32.5"/>
</g>
</svg>
