<?xml version="1.0" encoding="utf-8"?>
<!-- Generator: Adobe Illustrator 19.0.0, SVG Export Plug-In . SVG Version: 6.00 Build 0)  -->
<svg version="1.1" id="icons" xmlns="http://www.w3.org/2000/svg" xmlns:xlink="http://www.w3.org/1999/xlink" x="0px" y="0px"
	 width="18px" height="18px" viewBox="-411 289.3 18 18" style="enable-background:new -411 289.3 18 18;" xml:space="preserve">
<style type="text/css">
	.st0{clip-path:url(#SVGID_2_);fill:#4DA1FF;}
	.st1{clip-path:url(#SVGID_4_);fill:#4DA1FF;}
</style>
<g>
	<defs>
		<path id="SVGID_1_" d="M-407,303.5v-3c0-0.6-0.4-1-1-1s-1,0.4-1,1v5h14v-5c0-0.6-0.4-1-1-1s-1,0.4-1,1v3H-407z"/>
	</defs>
	<clipPath id="SVGID_2_">
		<use xlink:href="#SVGID_1_"  style="overflow:visible;"/>
	</clipPath>
	<rect x="-414" y="294.5" class="st0" width="24" height="16"/>
</g>
<g>
	<defs>
		<path id="SVGID_3_" d="M-401,297.7l2.3-2.3c0.4-0.4,1-0.4,1.4,0c0.4,0.4,0.4,1,0,1.4l-4.7,4.7l-4.7-4.7c-0.4-0.4-0.4-1,0-1.4
			c0.4-0.4,1-0.4,1.4,0l2.3,2.3v-5.6c0-0.5,0.4-1,1-1c0.6,0,1,0.4,1,1V297.7z"/>
	</defs>
	<clipPath id="SVGID_4_">
		<use xlink:href="#SVGID_3_"  style="overflow:visible;"/>
	</clipPath>
	<rect x="-412" y="286.1" class="st1" width="20" height="20.4"/>
</g>
</svg>
