<?xml version="1.0" encoding="utf-8"?>
<!-- Generator: Adobe Illustrator 19.0.0, SVG Export Plug-In . SVG Version: 6.00 Build 0)  -->
<svg version="1.1" id="icons" xmlns="http://www.w3.org/2000/svg" xmlns:xlink="http://www.w3.org/1999/xlink" x="0px" y="0px"
	 width="18px" height="18px" viewBox="-411 289.3 18 18" style="enable-background:new -411 289.3 18 18;" xml:space="preserve">
<style type="text/css">
	.st0{clip-path:url(#SVGID_2_);fill:#999999;}
	.st1{clip-path:url(#SVGID_4_);fill:#999999;}
</style>
<g>
	<defs>
		<path id="SVGID_1_" d="M-408,298.3v4h12v-4H-408z M-410,296.3c0-0.6,0.4-1,1-1h14c0.6,0,1,0.4,1,1v6h-16V296.3z M-406,292.3
			c0-0.6,0.5-1,1-1h6c0.6,0,1,0.4,1,1v2h-8V292.3z"/>
	</defs>
	<clipPath id="SVGID_2_">
		<use xlink:href="#SVGID_1_"  style="overflow:visible;"/>
	</clipPath>
	<rect x="-415" y="286.3" class="st0" width="26" height="21"/>
</g>
<g>
	<defs>
		<path id="SVGID_3_" d="M-397,304.3c0,0.5-0.5,1-1,1h-8c-0.5,0-1-0.5-1-1v-5h10V304.3z"/>
	</defs>
	<clipPath id="SVGID_4_">
		<use xlink:href="#SVGID_3_"  style="overflow:visible;"/>
	</clipPath>
	<rect x="-412" y="294.3" class="st1" width="20" height="16"/>
</g>
</svg>
