<?xml version="1.0" encoding="utf-8"?>
<!-- Generator: Adobe Illustrator 19.0.0, SVG Export Plug-In . SVG Version: 6.00 Build 0)  -->
<svg version="1.1" id="icons" xmlns="http://www.w3.org/2000/svg" xmlns:xlink="http://www.w3.org/1999/xlink" x="0px" y="0px"
	 width="32px" height="32px" viewBox="-183 185 32 32" style="enable-background:new -183 185 32 32;" xml:space="preserve">
<style type="text/css">
	.st0{clip-path:url(#SVGID_2_);fill:#FFFFFF;}
</style>
<g>
	<defs>
		<path id="SVGID_1_" d="M-175,209c0,0.6,0.4,1,1,1h14c0.6,0,1-0.4,1-1c0-0.6-0.4-1-1-1h-14C-174.6,208-175,208.4-175,209z
			 M-175,204c0,0.6,0.4,1,1,1h14c0.6,0,1-0.4,1-1c0-0.6-0.4-1-1-1h-14C-174.6,203-175,203.4-175,204z M-175,199c0,0.6,0.4,1,1,1h14
			c0.6,0,1-0.4,1-1c0-0.6-0.4-1-1-1h-14C-174.6,198-175,198.4-175,199z M-175,191v2c0,0.6,0.4,1,1,1h14c0.6,0,1-0.4,1-1v-2h2
			c0.6,0,1,0.4,1,1v22c0,0.6-0.4,1-1,1h-20c-0.6,0-1-0.4-1-1v-22c0-0.6,0.4-1,1-1H-175z M-169,189c0-1.1,0.9-2,2-2s2,0.9,2,2h3
			c0.6,0,1,0.4,1,1v2h-12v-2c0-0.6,0.5-1,1-1H-169z"/>
	</defs>
	<clipPath id="SVGID_2_">
		<use xlink:href="#SVGID_1_"  style="overflow:visible;"/>
	</clipPath>
	<rect x="-183" y="182" class="st0" width="32" height="38"/>
</g>
</svg>
