<?xml version="1.0" encoding="utf-8"?>
<!-- Generator: Adobe Illustrator 19.0.0, SVG Export Plug-In . SVG Version: 6.00 Build 0)  -->
<svg version="1.1" id="icons" xmlns="http://www.w3.org/2000/svg" xmlns:xlink="http://www.w3.org/1999/xlink" x="0px" y="0px"
	 width="32px" height="32px" viewBox="-183 185 32 32" style="enable-background:new -183 185 32 32;" xml:space="preserve">
<style type="text/css">
	.st0{clip-path:url(#SVGID_2_);fill:#FFFFFF;}
</style>
<g>
	<defs>
		<path id="SVGID_1_" d="M-155.7,190c-0.1-0.5-0.6-1-1.1-1h-9.2l0.1,7h11L-155.7,190z M-178.2,190c0.1-0.5,0.6-1,1.1-1h9.2l-0.1,7
			h-11L-178.2,190z M-173,203v1c0,0.6,0.4,1,1,1h10c0.5,0,1-0.4,1-1v-1c0-0.6-0.4-1-1-1h-10C-172.5,202-173,202.4-173,203z
			 M-179,198h24v14c0,0.6-0.4,1-1,1h-22c-0.6,0-1-0.4-1-1V198z"/>
	</defs>
	<use xlink:href="#SVGID_1_"  style="overflow:visible;fill-rule:evenodd;clip-rule:evenodd;fill:#FFFFFF;"/>
	<clipPath id="SVGID_2_">
		<use xlink:href="#SVGID_1_"  style="overflow:visible;"/>
	</clipPath>
	<rect x="-184" y="184" class="st0" width="34.1" height="34"/>
</g>
</svg>
