<?xml version="1.0" encoding="utf-8"?>
<!-- Generator: Adobe Illustrator 19.0.0, SVG Export Plug-In . SVG Version: 6.00 Build 0)  -->
<svg version="1.1" id="icons" xmlns="http://www.w3.org/2000/svg" xmlns:xlink="http://www.w3.org/1999/xlink" x="0px" y="0px"
	 width="32px" height="32px" viewBox="-183 185 32 32" style="enable-background:new -183 185 32 32;" xml:space="preserve">
<style type="text/css">
	.st0{clip-path:url(#SVGID_2_);fill:#FFFFFF;}
</style>
<g>
	<defs>
		<path id="SVGID_1_" d="M-175,211c0,0.6,0.4,1,1,1h14c0.6,0,1-0.4,1-1c0-0.6-0.4-1-1-1h-14C-174.6,210-175,210.4-175,211z
			 M-175,206c0,0.6,0.4,1,1,1h14c0.6,0,1-0.4,1-1c0-0.6-0.4-1-1-1h-14C-174.6,205-175,205.4-175,206z M-175,201c0,0.6,0.4,1,1,1h14
			c0.6,0,1-0.4,1-1c0-0.6-0.4-1-1-1h-14C-174.6,200-175,200.4-175,201z M-164,187h-2v10h10v-2h-8V187z M-156,195v19c0,0.5-0.4,1-1,1
			h-20c-0.6,0-1-0.4-1-1v-26c0-0.6,0.4-1,1-1h13L-156,195z"/>
	</defs>
	<clipPath id="SVGID_2_">
		<use xlink:href="#SVGID_1_"  style="overflow:visible;"/>
	</clipPath>
	<rect x="-183" y="182" class="st0" width="32" height="38"/>
</g>
</svg>
