<?xml version="1.0" encoding="utf-8"?>
<!-- Generator: Adobe Illustrator 19.0.0, SVG Export Plug-In . SVG Version: 6.00 Build 0)  -->
<svg version="1.1" id="icons" xmlns="http://www.w3.org/2000/svg" xmlns:xlink="http://www.w3.org/1999/xlink" x="0px" y="0px"
	 width="32px" height="32px" viewBox="-197 185 32 32" style="enable-background:new -197 185 32 32;" xml:space="preserve">
<style type="text/css">
	.st0{clip-path:url(#SVGID_2_);fill:#FFFFFF;}
</style>
<g>
	<defs>
		<path id="SVGID_1_" d="M-192,189c0-1.1,0.9-2,2-2h18c1.1,0,2,0.9,2,2v24c0,1.1-0.9,2-2,2h-18c-1.1,0-2-0.9-2-2V189z M-174.2,195.9
			c0.7-0.3,1.2-1,1.2-1.9c0-1.1-0.9-2-2-2s-2,0.9-2,2c0,0.6,0.3,1.2,0.8,1.6c-0.7,2-2.5,3.4-4.8,3.4s-4.1-1.4-4.8-3.4
			c0.5-0.4,0.8-0.9,0.8-1.6c0-1.1-0.9-2-2-2s-2,0.9-2,2c0,0.8,0.5,1.6,1.2,1.9c0.8,3,3.5,5.1,6.8,5.1
			C-177.8,201-175.1,198.8-174.2,195.9z"/>
	</defs>
	<clipPath id="SVGID_2_">
		<use xlink:href="#SVGID_1_"  style="overflow:visible;"/>
	</clipPath>
	<rect x="-197" y="182" class="st0" width="32" height="38"/>
</g>
</svg>
