<?xml version="1.0" encoding="utf-8"?>
<!-- Generator: Adobe Illustrator 19.0.0, SVG Export Plug-In . SVG Version: 6.00 Build 0)  -->
<svg version="1.1" id="icons" xmlns="http://www.w3.org/2000/svg" xmlns:xlink="http://www.w3.org/1999/xlink" x="0px" y="0px"
	 width="32px" height="32px" viewBox="-183 185 32 32" style="enable-background:new -183 185 32 32;" xml:space="preserve">
<style type="text/css">
	.st0{clip-path:url(#SVGID_2_);fill:#FFFFFF;}
</style>
<g>
	<defs>
		<path id="SVGID_1_" d="M-167,205c-2.2,0-4-1.8-4-4s1.8-4,4-4s4,1.8,4,4S-164.8,205-167,205z M-167,208c3.9,0,7-3.1,7-7s-3.1-7-7-7
			s-7,3.1-7,7S-170.9,208-167,208z M-163.2,191.9c2.5,1,4.7-2.3,6.1-0.8s-1.9,3.7-0.8,6.1c1,2.5,4.9,1.7,4.9,3.8s-3.9,1.3-4.9,3.8
			c-1,2.5,2.3,4.7,0.8,6.1c-1.5,1.5-3.7-1.9-6.1-0.8c-2.5,1-1.7,4.9-3.8,4.9s-1.3-3.9-3.8-4.9c-2.5-1-4.7,2.3-6.1,0.8
			c-1.5-1.5,1.9-3.7,0.8-6.1c-1-2.5-4.9-1.7-4.9-3.8s3.9-1.3,4.9-3.8c1-2.5-2.3-4.7-0.8-6.1c1.5-1.5,3.7,1.9,6.1,0.8
			c2.5-1,1.7-4.9,3.8-4.9S-165.7,190.9-163.2,191.9z"/>
	</defs>
	<clipPath id="SVGID_2_">
		<use xlink:href="#SVGID_1_"  style="overflow:visible;"/>
	</clipPath>
	<rect x="-186" y="182" class="st0" width="38" height="38"/>
</g>
</svg>
