<?xml version="1.0" encoding="utf-8"?>
<!-- Generator: Adobe Illustrator 19.0.0, SVG Export Plug-In . SVG Version: 6.00 Build 0)  -->
<svg version="1.1" id="icons" xmlns="http://www.w3.org/2000/svg" xmlns:xlink="http://www.w3.org/1999/xlink" x="0px" y="0px"
	 width="32px" height="32px" viewBox="-404 282.3 32 32" style="enable-background:new -404 282.3 32 32;" xml:space="preserve">
<style type="text/css">
	.st0{clip-path:url(#SVGID_2_);fill:#4DA1FF;}
	.st1{clip-path:url(#SVGID_4_);fill:#4DA1FF;}
	.st2{clip-path:url(#SVGID_6_);fill:#4DA1FF;}
	.st3{clip-path:url(#SVGID_8_);fill:#4DA1FF;}
	.st4{clip-path:url(#SVGID_10_);fill:#4DA1FF;}
	.st5{clip-path:url(#SVGID_12_);fill:#4DA1FF;}
	.st6{clip-path:url(#SVGID_14_);fill:#4DA1FF;}
	.st7{clip-path:url(#SVGID_16_);fill:#4DA1FF;}
	.st8{clip-path:url(#SVGID_18_);fill:#4DA1FF;}
	.st9{clip-path:url(#SVGID_20_);fill:#4DA1FF;}
	.st10{clip-path:url(#SVGID_22_);fill:#4DA1FF;}
	.st11{clip-path:url(#SVGID_24_);fill:#4DA1FF;}
</style>
<g>
	<defs>
		<path id="SVGID_1_" d="M-401,288.3c0-1.7,1.3-3,3-3h6c1.7,0,3,1.3,3,3v6c0,1.7-1.3,3-3,3h-6c-1.7,0-3-1.3-3-3V288.3z M-399,288.3
			v6c0,0.6,0.4,1,1,1h6c0.6,0,1-0.4,1-1v-6c0-0.6-0.4-1-1-1h-6C-398.6,287.3-399,287.7-399,288.3z"/>
	</defs>
	<clipPath id="SVGID_2_">
		<use xlink:href="#SVGID_1_"  style="overflow:visible;"/>
	</clipPath>
	<rect x="-406" y="280.3" class="st0" width="22" height="22"/>
</g>
<g>
	<defs>
		<path id="SVGID_3_" d="M-387,288.3c0-1.7,1.3-3,3-3h6c1.7,0,3,1.3,3,3v6c0,1.7-1.3,3-3,3h-6c-1.7,0-3-1.3-3-3V288.3z M-385,288.3
			v6c0,0.6,0.4,1,1,1h6c0.6,0,1-0.4,1-1v-6c0-0.6-0.4-1-1-1h-6C-384.6,287.3-385,287.7-385,288.3z"/>
	</defs>
	<clipPath id="SVGID_4_">
		<use xlink:href="#SVGID_3_"  style="overflow:visible;"/>
	</clipPath>
	<rect x="-392" y="280.3" class="st1" width="22" height="22"/>
</g>
<g>
	<defs>
		<path id="SVGID_5_" d="M-387,300.3c0-0.6,0.4-1,1-1c0.6,0,1,0.5,1,1v10c0,0.6-0.4,1-1,1c-0.6,0-1-0.5-1-1V300.3z"/>
	</defs>
	<clipPath id="SVGID_6_">
		<use xlink:href="#SVGID_5_"  style="overflow:visible;"/>
	</clipPath>
	<rect x="-392" y="294.3" class="st2" width="12" height="22"/>
</g>
<g>
	<defs>
		<path id="SVGID_7_" d="M-387,300.3c0-0.6,0.5-1,1-1h6c0.6,0,1,0.4,1,1v3c0,0.6-0.5,1-1,1h-6c-0.6,0-1-0.4-1-1V300.3z"/>
	</defs>
	<clipPath id="SVGID_8_">
		<use xlink:href="#SVGID_7_"  style="overflow:visible;"/>
	</clipPath>
	<rect x="-392" y="294.3" class="st3" width="18" height="15"/>
</g>
<g>
	<defs>
		<path id="SVGID_9_" d="M-382,304.3c0-0.6,0.4-1,1-1h5c0.6,0,1,0.4,1,1v1c0,0.6-0.4,1-1,1h-5c-0.6,0-1-0.4-1-1V304.3z"/>
	</defs>
	<clipPath id="SVGID_10_">
		<use xlink:href="#SVGID_9_"  style="overflow:visible;"/>
	</clipPath>
	<rect x="-387" y="298.3" class="st4" width="17" height="13"/>
</g>
<g>
	<defs>
		<path id="SVGID_11_" d="M-377,300.3c0-0.5,0.4-1,1-1c0.6,0,1,0.5,1,1v4c0,0.5-0.4,1-1,1c-0.6,0-1-0.5-1-1V300.3z"/>
	</defs>
	<clipPath id="SVGID_12_">
		<use xlink:href="#SVGID_11_"  style="overflow:visible;"/>
	</clipPath>
	<rect x="-382" y="294.3" class="st5" width="12" height="16"/>
</g>
<g>
	<defs>
		<path id="SVGID_13_" d="M-383,309.3c0-0.6,0.4-1,1-1h1c0.6,0,1,0.4,1,1v1c0,0.6-0.4,1-1,1h-1c-0.6,0-1-0.4-1-1V309.3z"/>
	</defs>
	<clipPath id="SVGID_14_">
		<use xlink:href="#SVGID_13_"  style="overflow:visible;"/>
	</clipPath>
	<rect x="-388" y="303.3" class="st6" width="13" height="13"/>
</g>
<g>
	<defs>
		<path id="SVGID_15_" d="M-378,309.3c0-0.6,0.4-1,1-1h1c0.6,0,1,0.4,1,1v1c0,0.6-0.4,1-1,1h-1c-0.6,0-1-0.4-1-1V309.3z"/>
	</defs>
	<clipPath id="SVGID_16_">
		<use xlink:href="#SVGID_15_"  style="overflow:visible;"/>
	</clipPath>
	<rect x="-383" y="303.3" class="st7" width="13" height="13"/>
</g>
<g>
	<defs>
		<path id="SVGID_17_" d="M-401,302.3c0-1.7,1.3-3,3-3h6c1.7,0,3,1.3,3,3v6c0,1.7-1.3,3-3,3h-6c-1.7,0-3-1.3-3-3V302.3z M-399,302.3
			v6c0,0.6,0.4,1,1,1h6c0.6,0,1-0.4,1-1v-6c0-0.6-0.4-1-1-1h-6C-398.6,301.3-399,301.7-399,302.3z"/>
	</defs>
	<clipPath id="SVGID_18_">
		<use xlink:href="#SVGID_17_"  style="overflow:visible;"/>
	</clipPath>
	<rect x="-406" y="294.3" class="st8" width="22" height="22"/>
</g>
<g>
	<defs>
		<circle id="SVGID_19_" cx="-395" cy="291.3" r="2"/>
	</defs>
	<clipPath id="SVGID_20_">
		<use xlink:href="#SVGID_19_"  style="overflow:visible;"/>
	</clipPath>
	<rect x="-402" y="284.3" class="st9" width="14" height="14"/>
</g>
<g>
	<defs>
		<circle id="SVGID_21_" cx="-395" cy="305.3" r="2"/>
	</defs>
	<clipPath id="SVGID_22_">
		<use xlink:href="#SVGID_21_"  style="overflow:visible;"/>
	</clipPath>
	<rect x="-402" y="298.3" class="st10" width="14" height="14"/>
</g>
<g>
	<defs>
		<circle id="SVGID_23_" cx="-381" cy="291.3" r="2"/>
	</defs>
	<clipPath id="SVGID_24_">
		<use xlink:href="#SVGID_23_"  style="overflow:visible;"/>
	</clipPath>
	<rect x="-388" y="284.3" class="st11" width="14" height="14"/>
</g>
</svg>
