<?xml version="1.0" encoding="utf-8"?>
<!-- Generator: Adobe Illustrator 19.0.0, SVG Export Plug-In . SVG Version: 6.00 Build 0)  -->
<svg version="1.1" id="icons" xmlns="http://www.w3.org/2000/svg" xmlns:xlink="http://www.w3.org/1999/xlink" x="0px" y="0px"
	 width="18px" height="18px" viewBox="-411 289.3 18 18" style="enable-background:new -411 289.3 18 18;" xml:space="preserve">
<style type="text/css">
	.st0{clip-path:url(#SVGID_2_);fill:#4DA1FF;}
	.st1{clip-path:url(#SVGID_4_);fill:#4DA1FF;}
	.st2{clip-path:url(#SVGID_6_);fill:#4DA1FF;}
	.st3{clip-path:url(#SVGID_8_);fill:#4DA1FF;}
	.st4{clip-path:url(#SVGID_10_);fill:#4DA1FF;}
	.st5{clip-path:url(#SVGID_12_);fill:#4DA1FF;}
	.st6{clip-path:url(#SVGID_14_);fill:#4DA1FF;}
	.st7{clip-path:url(#SVGID_16_);fill:#4DA1FF;}
	.st8{clip-path:url(#SVGID_18_);fill:#4DA1FF;}
</style>
<g>
	<defs>
		<circle id="SVGID_1_" cx="-402" cy="293.3" r="3"/>
	</defs>
	<clipPath id="SVGID_2_">
		<use xlink:href="#SVGID_1_"  style="overflow:visible;"/>
	</clipPath>
	<rect x="-410" y="285.3" class="st0" width="16" height="16"/>
</g>
<g>
	<defs>
		<circle id="SVGID_3_" cx="-407" cy="304.3" r="2"/>
	</defs>
	<clipPath id="SVGID_4_">
		<use xlink:href="#SVGID_3_"  style="overflow:visible;"/>
	</clipPath>
	<rect x="-414" y="297.3" class="st1" width="14" height="14"/>
</g>
<g>
	<defs>
		<circle id="SVGID_5_" cx="-402" cy="304.3" r="2"/>
	</defs>
	<clipPath id="SVGID_6_">
		<use xlink:href="#SVGID_5_"  style="overflow:visible;"/>
	</clipPath>
	<rect x="-409" y="297.3" class="st2" width="14" height="14"/>
</g>
<g>
	<defs>
		<circle id="SVGID_7_" cx="-397" cy="304.3" r="2"/>
	</defs>
	<clipPath id="SVGID_8_">
		<use xlink:href="#SVGID_7_"  style="overflow:visible;"/>
	</clipPath>
	<rect x="-404" y="297.3" class="st3" width="14" height="14"/>
</g>
<g>
	<defs>
		<path id="SVGID_9_" d="M-408,299.3c0-0.6,0.5-1,1-1h10c0.6,0,1,0.4,1,1c0,0.6-0.5,1-1,1h-10C-407.6,300.3-408,299.8-408,299.3z"/>
	</defs>
	<clipPath id="SVGID_10_">
		<use xlink:href="#SVGID_9_"  style="overflow:visible;"/>
	</clipPath>
	<rect x="-413" y="293.3" class="st4" width="22" height="12"/>
</g>
<g>
	<defs>
		<path id="SVGID_11_" d="M-402,295.3c0.6,0,1,0.4,1,1v3c0,0.6-0.4,1-1,1c-0.6,0-1-0.4-1-1v-3C-403,295.7-402.6,295.3-402,295.3z"/>
	</defs>
	<clipPath id="SVGID_12_">
		<use xlink:href="#SVGID_11_"  style="overflow:visible;"/>
	</clipPath>
	<rect x="-408" y="290.3" class="st5" width="12" height="15"/>
</g>
<g>
	<defs>
		<path id="SVGID_13_" d="M-407,298.3c0.6,0,1,0.4,1,1v3c0,0.6-0.4,1-1,1c-0.6,0-1-0.4-1-1v-3C-408,298.7-407.6,298.3-407,298.3z"/>
	</defs>
	<clipPath id="SVGID_14_">
		<use xlink:href="#SVGID_13_"  style="overflow:visible;"/>
	</clipPath>
	<rect x="-413" y="293.3" class="st6" width="12" height="15"/>
</g>
<g>
	<defs>
		<path id="SVGID_15_" d="M-402,298.3c0.6,0,1,0.4,1,1v3c0,0.6-0.4,1-1,1c-0.6,0-1-0.4-1-1v-3C-403,298.7-402.6,298.3-402,298.3z"/>
	</defs>
	<clipPath id="SVGID_16_">
		<use xlink:href="#SVGID_15_"  style="overflow:visible;"/>
	</clipPath>
	<rect x="-408" y="293.3" class="st7" width="12" height="15"/>
</g>
<g>
	<defs>
		<path id="SVGID_17_" d="M-397,298.3c0.6,0,1,0.4,1,1v3c0,0.6-0.4,1-1,1c-0.6,0-1-0.4-1-1v-3C-398,298.7-397.6,298.3-397,298.3z"/>
	</defs>
	<clipPath id="SVGID_18_">
		<use xlink:href="#SVGID_17_"  style="overflow:visible;"/>
	</clipPath>
	<rect x="-403" y="293.3" class="st8" width="12" height="15"/>
</g>
</svg>
