<?xml version="1.0" encoding="utf-8"?>
<!-- Generator: Adobe Illustrator 19.0.0, SVG Export Plug-In . SVG Version: 6.00 Build 0)  -->
<svg version="1.1" id="icons" xmlns="http://www.w3.org/2000/svg" xmlns:xlink="http://www.w3.org/1999/xlink" x="0px" y="0px"
	 width="36px" height="36px" viewBox="-181 183 36 36" style="enable-background:new -181 183 36 36;" xml:space="preserve">
<style type="text/css">
	.st0{fill:#FFFFFF;}
</style>
<path id="XMLID_209_" class="st0" d="M-153,199.6v-9.2v-2.7c0-0.1-0.1-0.3-0.2-0.3l-2.3-1.3c-0.1-0.1-0.3-0.1-0.4,0l-2.3,1.3
	c-0.1,0.1-0.2,0.2-0.2,0.3v2.7v5.4l-4-2.3c-0.4-0.2-0.9-0.2-1.3,0l-8.7,5c-0.4,0.2-0.7,0.7-0.7,1.2v10c0,0.5,0.3,0.9,0.7,1.2l8.7,5
	c0.4,0.2,0.9,0.2,1.3,0l8.7-5c0.4-0.2,0.7-0.7,0.7-1.2V199.6L-153,199.6z M-157.5,207.8l-5.5,3.2l-5.5-3.2v-6.4l5.5-3.2l5.5,3.2
	V207.8z"/>
</svg>
