<?xml version="1.0" encoding="utf-8"?>
<!-- Generator: Adobe Illustrator 19.0.0, SVG Export Plug-In . SVG Version: 6.00 Build 0)  -->
<svg version="1.1" id="icons" xmlns="http://www.w3.org/2000/svg" xmlns:xlink="http://www.w3.org/1999/xlink" x="0px" y="0px"
	 width="36px" height="36px" viewBox="-199 183 36 36" style="enable-background:new -199 183 36 36;" xml:space="preserve">
<style type="text/css">
	.st0{fill-rule:evenodd;clip-rule:evenodd;fill:#FFFFFF;}
</style>
<g>
	<path class="st0" d="M-165.1,209.8c0.1-0.2,0.1-0.4,0.1-0.6v-16.5c0-0.2,0-0.4-0.1-0.5l-10.4,8.3L-165.1,209.8L-165.1,209.8z"/>
	<path class="st0" d="M-181,202.5l2.7-2.1l1.4-1l10.5-8.3c-0.2,0-0.4-0.1-0.5-0.1h-28.2c-0.2,0-0.4,0-0.5,0.1l10.5,8.3l1.4,1
		L-181,202.5L-181,202.5z"/>
	<path class="st0" d="M-166.9,211c0.2,0,0.4,0,0.5-0.1l-10.5-9.4l-4.1,3.1l-4.1-3.1l-10.5,9.4c0.2,0,0.3,0.1,0.5,0.1L-166.9,211
		L-166.9,211L-166.9,211z"/>
	<path class="st0" d="M-196.9,192.3c-0.1,0.2-0.1,0.3-0.1,0.5v16.5c0,0.2,0,0.4,0.1,0.6l10.4-9.3L-196.9,192.3L-196.9,192.3z"/>
</g>
</svg>
