<?xml version="1.0" encoding="utf-8"?>
<!-- Generator: Adobe Illustrator 19.0.0, SVG Export Plug-In . SVG Version: 6.00 Build 0)  -->
<svg version="1.1" id="图层_1" xmlns="http://www.w3.org/2000/svg" xmlns:xlink="http://www.w3.org/1999/xlink" x="0px" y="0px"
	 width="32px" height="32px" viewBox="-404 282.3 32 32" style="enable-background:new -404 282.3 32 32;" xml:space="preserve">
<style type="text/css">
	.st0{fill:#4DA1FF;}
	.st1{fill:#FFFFFF;}
</style>
<title>jindu-qx_icon</title>
<desc>Created with Sketch.</desc>
<g id="Page-1">
	<g id="jindu-qx_icon">
		<circle id="Oval-2" class="st0" cx="-388" cy="298.3" r="16"/>
		<path id="Rectangle-13" class="st1" d="M-392.9,291.9l11.3,11.3c0.4,0.4,0.4,1,0,1.4l0,0c-0.4,0.4-1,0.4-1.4,0l-11.3-11.3
			c-0.4-0.4-0.4-1,0-1.4l0,0C-394,291.5-393.3,291.5-392.9,291.9z"/>
		<path id="Rectangle-13-Copy" class="st1" d="M-394.4,303.2l11.3-11.3c0.4-0.4,1-0.4,1.4,0l0,0c0.4,0.4,0.4,1,0,1.4l-11.3,11.3
			c-0.4,0.4-1,0.4-1.4,0l0,0C-394.8,304.3-394.8,303.6-394.4,303.2z"/>
	</g>
</g>
</svg>
