<?xml version="1.0" encoding="utf-8"?>
<!-- Generator: Adobe Illustrator 19.0.0, SVG Export Plug-In . SVG Version: 6.00 Build 0)  -->
<svg version="1.1" id="icons" xmlns="http://www.w3.org/2000/svg" xmlns:xlink="http://www.w3.org/1999/xlink" x="0px" y="0px"
	 width="220px" height="70px" viewBox="-289 266 220 70" style="enable-background:new -289 266 220 70;" xml:space="preserve">
<style type="text/css">
	.st0{fill:#FFFFFF;}
</style>
<path id="XMLID_209_" class="st0" d="M-240.5,298.5v-16.6v-4.8c0-0.2-0.1-0.5-0.3-0.6l-4.1-2.4c-0.2-0.1-0.5-0.1-0.7,0l-4.1,2.4
	c-0.2,0.1-0.3,0.4-0.3,0.6v4.8v9.6l-7.1-4.1c-0.7-0.4-1.7-0.4-2.4,0l-15.6,9c-0.7,0.4-1.2,1.2-1.2,2.1v18c0,0.9,0.5,1.6,1.2,2.1
	l15.6,9c0.7,0.4,1.7,0.4,2.4,0l15.6-9c0.7-0.4,1.2-1.2,1.2-2.1L-240.5,298.5L-240.5,298.5z M-248.6,313.3l-10,5.8l-10-5.8v-11.5
	l10-5.8l10,5.8L-248.6,313.3L-248.6,313.3z"/>
<g id="XMLID_284_">
	<g id="XMLID_293_">
		<path id="XMLID_297_" class="st0" d="M-218.4,289.4c-0.3,0-0.5-0.2-0.5-0.5v-0.8c0-2.4,2-4.4,4.4-4.4h3.9c0.3,0,0.5,0.2,0.5,0.5
			v4.7c0,0.3-0.2,0.5-0.5,0.5H-218.4z"/>
		<path id="XMLID_295_" class="st0" d="M-215.3,319.1c-0.3,0-0.5-0.2-0.5-0.5V298h-5.8c-0.3,0-0.5-0.2-0.5-0.5v-0.8
			c0-2.4,2-4.4,4.4-4.4h7c0.3,0,0.5,0.2,0.5,0.5v20.6h4.2c0.3,0,0.5,0.2,0.5,0.5v0.8c0,2.4-2,4.4-4.4,4.4H-215.3z"/>
		<path id="XMLID_294_" class="st0" d="M-196,319.1c-0.2,0-0.3-0.1-0.4-0.3l-2.3-4.7c-0.1-0.1-0.1-0.3,0-0.5
			c0.1-0.1,0.2-0.2,0.4-0.2h5c1.9,0,3.4-1.5,3.4-3.4v-20.6h-15.2c-0.3,0-0.5-0.2-0.5-0.5v-0.8c0-2.4,2-4.4,4.4-4.4h21.1
			c0.3,0,0.5,0.2,0.5,0.5v4.7c0,0.3-0.2,0.5-0.5,0.5h-4.2V310c0,5-4.1,9.1-9.1,9.1H-196z"/>
	</g>
	<g id="XMLID_288_">
		<path id="XMLID_292_" class="st0" d="M-169.6,296.4c-0.3,0-0.5-0.2-0.5-0.5v-7.3h-2.7c-0.3,0-0.5-0.2-0.5-0.5v-0.8
			c0-2.4,2-4.4,4.4-4.4h5.5c0.3,0,0.5,0.2,0.5,0.5v4.7c0,0.3-0.2,0.5-0.5,0.5h-1.1v7.3c0,0.3-0.2,0.5-0.5,0.5H-169.6z"/>
		<path id="XMLID_291_" class="st0" d="M-153.8,296.4c-0.3,0-0.5-0.2-0.5-0.5v-7.3h-2.9c-0.3,0-0.5-0.2-0.5-0.5v-0.8
			c0-2.4,2-4.4,4.4-4.4h21.1c0.3,0,0.5,0.2,0.5,0.5v4.7c0,0.3-0.2,0.5-0.5,0.5h-16.5v2.2h16.5c0.3,0,0.5,0.2,0.5,0.5v4.7
			c0,0.3-0.2,0.5-0.5,0.5H-153.8z"/>
		<path id="XMLID_290_" class="st0" d="M-136.8,311.2c-0.3,0-0.5-0.2-0.5-0.5v-6.6h-27.2v6.6c0,0.3-0.2,0.5-0.5,0.5h-4.7
			c-0.3,0-0.5-0.2-0.5-0.5V299c0-0.3,0.2-0.5,0.5-0.5h37.5c0.3,0,0.5,0.2,0.5,0.5v11.7c0,0.3-0.2,0.5-0.5,0.5H-136.8z"/>
		<path id="XMLID_289_" class="st0" d="M-144.6,319.1c-2.2,0-4.4-0.8-6-2.3l-0.2-0.2l-0.2,0.2c-1.7,1.5-3.8,2.3-6,2.3h-11.2
			c-0.2,0-0.3-0.1-0.4-0.3l-2.3-4.7c-0.1-0.1-0.1-0.3,0-0.5c0.1-0.1,0.2-0.2,0.4-0.2h13.6c1.9,0,3.4-1.5,3.4-3.4v-3.3
			c0-0.3,0.2-0.5,0.5-0.5h4.7c0.3,0,0.5,0.2,0.5,0.5v3.3c0,1.9,1.5,3.4,3.4,3.4h13.6c0.2,0,0.3,0.1,0.4,0.2c0.1,0.1,0.1,0.3,0,0.5
			l-2.3,4.7c-0.1,0.2-0.2,0.3-0.4,0.3H-144.6z"/>
	</g>
	<g id="XMLID_285_">
		<path id="XMLID_287_" class="st0" d="M-120.5,304.4c-0.1,0-0.2,0-0.3-0.1l-3.3-3.3c-0.1-0.1-0.1-0.2-0.1-0.3s0-0.2,0.1-0.3l16-16
			c0.8-0.8,1.9-1.3,3.1-1.3c1.2,0,2.3,0.5,3.1,1.3l0.6,0.6c0.1,0.1,0.1,0.2,0.1,0.3c0,0.1,0,0.2-0.1,0.3l-18.8,18.8
			C-120.3,304.3-120.4,304.4-120.5,304.4z"/>
		<path id="XMLID_286_" class="st0" d="M-122.8,319.1c-0.3,0-0.5-0.2-0.5-0.5c0-0.1,0-0.2,0-0.3c0.1-2.3,1.1-4.6,2.9-6.1l0,0
			l24.3-24.3c0.8-0.8,1.9-1.3,3.1-1.3s2.3,0.5,3.1,1.3l0.6,0.6c0.2,0.2,0.2,0.5,0,0.7l-24.4,24.4h26.3v-4.5c0-0.3,0.2-0.5,0.5-0.5
			c0.1,0,0.1,0,0.2,0.1l4.7,2.3c0.2,0.1,0.3,0.2,0.3,0.4v7.3c0,0.3-0.2,0.5-0.5,0.5H-122.8z"/>
	</g>
</g>
</svg>
