<?xml version="1.0" encoding="utf-8"?>
<!-- Generator: Adobe Illustrator 19.0.0, SVG Export Plug-In . SVG Version: 6.00 Build 0)  -->
<svg version="1.1" id="icons" xmlns="http://www.w3.org/2000/svg" xmlns:xlink="http://www.w3.org/1999/xlink" x="0px" y="0px"
	 width="18px" height="18px" viewBox="-411 289.3 18 18" style="enable-background:new -411 289.3 18 18;" xml:space="preserve">
<style type="text/css">
	.st0{clip-path:url(#SVGID_2_);fill:#4DA1FF;}
</style>
<g>
	<defs>
		<path id="SVGID_1_" d="M-405.2,297.7c-0.3-0.4-1-0.5-1.4-0.2c-0.4,0.3-0.5,1-0.2,1.4l3.2,4.3c0.3,0.4,0.9,0.4,1.2,0l5.2-7.3
			c0.3-0.4,0.2-1.1-0.2-1.4s-1.1-0.2-1.4,0.2l-4.2,5.9L-405.2,297.7z M-410,298.3c0-4.4,3.6-8,8-8c4.4,0,8,3.6,8,8c0,4.4-3.6,8-8,8
			C-406.4,306.3-410,302.7-410,298.3z"/>
	</defs>
	<clipPath id="SVGID_2_">
		<use xlink:href="#SVGID_1_"  style="overflow:visible;"/>
	</clipPath>
	<rect x="-415" y="285.3" class="st0" width="26" height="26"/>
</g>
</svg>
