<?xml version="1.0" encoding="utf-8"?>
<!-- Generator: Adobe Illustrator 19.0.0, SVG Export Plug-In . SVG Version: 6.00 Build 0)  -->
<svg version="1.1" id="图层_1" xmlns="http://www.w3.org/2000/svg" xmlns:xlink="http://www.w3.org/1999/xlink" x="0px" y="0px"
	 width="16px" height="16px" viewBox="-412 290.3 16 16" style="enable-background:new -412 290.3 16 16;" xml:space="preserve">
<style type="text/css">
	.st0{fill:#999999;}
</style>
<title>_icon</title>
<desc>Created with Sketch.</desc>
<path class="st0" d="M-401.2,301.8l-6.4-6.4c-0.2-0.2-0.2-0.5,0-0.7l0,0c0.2-0.2,0.5-0.2,0.7,0l6.4,6.4c0.2,0.2,0.2,0.5,0,0.7l0,0
	C-400.7,302-401,302-401.2,301.8z"/>
<path class="st0" d="M-400.5,295.5l-6.4,6.4c-0.2,0.2-0.5,0.2-0.7,0l0,0c-0.2-0.2-0.2-0.5,0-0.7l6.4-6.4c0.2-0.2,0.5-0.2,0.7,0l0,0
	C-400.2,295-400.2,295.3-400.5,295.5z"/>
</svg>
