<?xml version="1.0" encoding="utf-8"?>
<!-- Generator: Adobe Illustrator 19.0.0, SVG Export Plug-In . SVG Version: 6.00 Build 0)  -->
<svg version="1.1" id="icons" xmlns="http://www.w3.org/2000/svg" xmlns:xlink="http://www.w3.org/1999/xlink" x="0px" y="0px"
	 width="18px" height="18px" viewBox="-411 289.3 18 18" style="enable-background:new -411 289.3 18 18;" xml:space="preserve">
<style type="text/css">
	.st0{clip-path:url(#SVGID_2_);fill:#999999;}
	.st1{clip-path:url(#SVGID_4_);fill:#999999;}
	.st2{clip-path:url(#SVGID_6_);fill:#999999;}
	.st3{clip-path:url(#SVGID_8_);fill:#999999;}
</style>
<g>
	<defs>
		<path id="SVGID_1_" d="M-399,301.3v2h2v-2H-399z M-399,297.3v2h2v-2H-399z M-403,301.3v2h2v-2H-403z M-403,297.3v2h2v-2H-403z
			 M-407,301.3v2h2v-2H-407z M-407,297.3v2h2v-2H-407z M-409,296.3c0-0.5,0.4-1,1-1h12c0.6,0,1,0.5,1,1v8c0,0.5-0.4,1-1,1h-12
			c-0.6,0-1-0.5-1-1V296.3z"/>
	</defs>
	<clipPath id="SVGID_2_">
		<use xlink:href="#SVGID_1_"  style="overflow:visible;"/>
	</clipPath>
	<rect x="-414" y="290.3" class="st0" width="24" height="20"/>
</g>
<g>
	<defs>
		<path id="SVGID_3_" d="M-409,293.3c0-0.6,0.4-1,1-1h12c0.6,0,1,0.4,1,1c0,0.6-0.4,1-1,1h-12C-408.5,294.3-409,293.8-409,293.3z"/>
	</defs>
	<clipPath id="SVGID_4_">
		<use xlink:href="#SVGID_3_"  style="overflow:visible;"/>
	</clipPath>
	<rect x="-414" y="287.3" class="st1" width="24" height="12"/>
</g>
<g>
	<defs>
		<path id="SVGID_5_" d="M-406,292.3c0-0.6,0.4-1,1-1c0.6,0,1,0.4,1,1v1c0,0.6-0.4,1-1,1c-0.6,0-1-0.4-1-1V292.3z"/>
	</defs>
	<clipPath id="SVGID_6_">
		<use xlink:href="#SVGID_5_"  style="overflow:visible;"/>
	</clipPath>
	<rect x="-411" y="286.3" class="st2" width="12" height="13"/>
</g>
<g>
	<defs>
		<path id="SVGID_7_" d="M-400,292.3c0-0.6,0.4-1,1-1c0.6,0,1,0.4,1,1v1c0,0.6-0.4,1-1,1c-0.6,0-1-0.4-1-1V292.3z"/>
	</defs>
	<clipPath id="SVGID_8_">
		<use xlink:href="#SVGID_7_"  style="overflow:visible;"/>
	</clipPath>
	<rect x="-405" y="286.3" class="st3" width="12" height="13"/>
</g>
</svg>
