<?xml version="1.0" encoding="utf-8"?>
<!-- Generator: Adobe Illustrator 19.0.0, SVG Export Plug-In . SVG Version: 6.00 Build 0)  -->
<svg version="1.1" id="icons" xmlns="http://www.w3.org/2000/svg" xmlns:xlink="http://www.w3.org/1999/xlink" x="0px" y="0px"
	 width="18px" height="18px" viewBox="-190 192 18 18" style="enable-background:new -190 192 18 18;" xml:space="preserve">
<style type="text/css">
	.st0{clip-path:url(#SVGID_2_);fill:#FFFFFF;}
</style>
<g>
	<defs>
		<path id="SVGID_1_" d="M-181,209c-4.4,0-8-3.6-8-8s3.6-8,8-8s8,3.6,8,8S-176.6,209-181,209z M-181,198v0.3c0,0.8,0.6,0.9,1.3,0.4
			l1.1-0.8c0.8-0.5,0.7-1.4,0-1.9l-1.1-0.8c-0.8-0.5-1.3-0.3-1.3,0.4v0.3c-2.8,0-5,2.2-5,5c0,2.8,2.2,5,5,5c2.8,0,5-2.2,5-5
			c0-0.6-0.4-1-1-1s-1,0.4-1,1c0,1.7-1.3,3-3,3s-3-1.3-3-3S-182.7,198-181,198z"/>
	</defs>
	<clipPath id="SVGID_2_">
		<use xlink:href="#SVGID_1_"  style="overflow:visible;"/>
	</clipPath>
	<rect x="-194" y="188" class="st0" width="26" height="26"/>
</g>
</svg>
