<?xml version="1.0" encoding="utf-8"?>
<!-- Generator: Adobe Illustrator 19.0.0, SVG Export Plug-In . SVG Version: 6.00 Build 0)  -->
<svg version="1.1" id="icons" xmlns="http://www.w3.org/2000/svg" xmlns:xlink="http://www.w3.org/1999/xlink" x="0px" y="0px"
	 width="18px" height="18px" viewBox="-411 289.3 18 18" style="enable-background:new -411 289.3 18 18;" xml:space="preserve">
<style type="text/css">
	.st0{clip-path:url(#SVGID_2_);fill:#999999;}
</style>
<g>
	<defs>
		<path id="SVGID_1_" d="M-402,296.3c1.1,0,2-0.9,2-2s-0.9-2-2-2s-2,0.9-2,2S-403.1,296.3-402,296.3z M-399.2,297.1
			c-1.5,2.9,2.2,5.2,2.2,5.2h1c0.6,0,1,0.4,1,1v2c0,0.6-0.4,1-1,1h-12c-0.6,0-1-0.4-1-1v-2c0-0.6,0.4-1,1-1h1c0,0,3.7-2.3,2.2-5.1
			c-0.8-0.7-1.2-1.7-1.2-2.9c0-2.2,1.8-4,4-4s4,1.8,4,4C-398,295.4-398.4,296.4-399.2,297.1z"/>
	</defs>
	<clipPath id="SVGID_2_">
		<use xlink:href="#SVGID_1_"  style="overflow:visible;"/>
	</clipPath>
	<rect x="-414" y="285.3" class="st0" width="24" height="26"/>
</g>
</svg>
