<?xml version="1.0" encoding="utf-8"?>
<!-- Generator: Adobe Illustrator 19.0.0, SVG Export Plug-In . SVG Version: 6.00 Build 0)  -->
<svg version="1.1" id="icons" xmlns="http://www.w3.org/2000/svg" xmlns:xlink="http://www.w3.org/1999/xlink" x="0px" y="0px"
	 width="18px" height="18px" viewBox="-190 192 18 18" style="enable-background:new -190 192 18 18;" xml:space="preserve">
<style type="text/css">
	.st0{clip-path:url(#SVGID_2_);fill:#FFFFFF;}
</style>
<g>
	<defs>
		<path id="SVGID_1_" d="M-181,209c-4.4,0-8-3.6-8-8s3.6-8,8-8s8,3.6,8,8S-176.6,209-181,209z M-182,200h-4c-0.5,0-1,0.4-1,1
			c0,0.6,0.4,1,1,1h4v4c0,0.5,0.4,1,1,1c0.6,0,1-0.4,1-1v-4h4c0.5,0,1-0.4,1-1c0-0.6-0.4-1-1-1h-4v-4c0-0.5-0.4-1-1-1
			c-0.6,0-1,0.4-1,1V200z"/>
	</defs>
	<clipPath id="SVGID_2_">
		<use xlink:href="#SVGID_1_"  style="overflow:visible;"/>
	</clipPath>
	<rect x="-194" y="188" class="st0" width="26" height="26"/>
</g>
</svg>
