<?xml version="1.0" encoding="utf-8"?>
<!-- Generator: Adobe Illustrator 19.0.0, SVG Export Plug-In . SVG Version: 6.00 Build 0)  -->
<svg version="1.1" id="icons" xmlns="http://www.w3.org/2000/svg" xmlns:xlink="http://www.w3.org/1999/xlink" x="0px" y="0px"
	 width="18px" height="18px" viewBox="-190 192 18 18" style="enable-background:new -190 192 18 18;" xml:space="preserve">
<style type="text/css">
	.st0{clip-path:url(#SVGID_2_);fill:#108EE9;}
</style>
<g>
	<defs>
		<path id="SVGID_1_" d="M-179.9,204.8h-0.8h-0.8h-0.7c-0.2,0-0.4-0.2-0.4-0.4s0.2-0.4,0.4-0.4h0.7v-3.8h-0.7
			c-0.2,0-0.4-0.2-0.4-0.4s0.2-0.4,0.4-0.4h0.7h0.4c0.2,0,0.4,0.2,0.4,0.4v4.2h0.8c0.2,0,0.4,0.2,0.4,0.4S-179.7,204.8-179.9,204.8z
			 M-181,197.2c0.2,0,0.4,0.2,0.4,0.4s-0.2,0.4-0.4,0.4s-0.4-0.2-0.4-0.4S-181.2,197.2-181,197.2z M-181,195c-3.3,0-6,2.7-6,6
			s2.7,6,6,6s6-2.7,6-6S-177.7,195-181,195z"/>
	</defs>
	<clipPath id="SVGID_2_">
		<use xlink:href="#SVGID_1_"  style="overflow:visible;"/>
	</clipPath>
	<rect x="-192" y="190" class="st0" width="22" height="22"/>
</g>
</svg>
