<?xml version="1.0" encoding="utf-8"?>
<!-- Generator: Adobe Illustrator 19.0.0, SVG Export Plug-In . SVG Version: 6.00 Build 0)  -->
<svg version="1.1" id="icons" xmlns="http://www.w3.org/2000/svg" xmlns:xlink="http://www.w3.org/1999/xlink" x="0px" y="0px"
	 width="32px" height="32px" viewBox="-404 282.3 32 32" style="enable-background:new -404 282.3 32 32;" xml:space="preserve">
<style type="text/css">
	.st0{clip-path:url(#SVGID_2_);fill:#BBBBBB;}
</style>
<g>
	<defs>
		<path id="SVGID_1_" d="M-392,308.3c0,2.2,1.8,4,4,4s4-1.8,4-4H-392z M-379,297.5c0-0.1,0-0.1,0-0.2v-1c0-4.4-3.2-8.1-7.4-8.9
			c0.2-0.3,0.4-0.7,0.4-1.1c0-1.1-0.9-2-2-2s-2,0.9-2,2c0,0.4,0.1,0.8,0.4,1.1c-4.2,0.8-7.4,4.4-7.4,8.9v1c0,0.1,0,0.1,0,0.2
			c0,0,0,0.1,0,0.2c0,5.5-3,6.7-3,6.7h3.2h-3.2v1c0,0.6,0.4,1,1,1h7.3h7.5h7.3c0.6,0,1-0.4,1-1v-1h-3.2h3.2c0,0-3-1.2-3-6.7
			C-379,297.5-379,297.5-379,297.5z"/>
	</defs>
	<clipPath id="SVGID_2_">
		<use xlink:href="#SVGID_1_"  style="overflow:visible;"/>
	</clipPath>
	<rect x="-405" y="279.3" class="st0" width="34" height="38"/>
</g>
</svg>
