<?xml version="1.0" encoding="UTF-8"?>
<svg width="200px" height="200px" viewBox="0 0 200 200" version="1.1" xmlns="http://www.w3.org/2000/svg" xmlns:xlink="http://www.w3.org/1999/xlink">
    <!-- Generator: Sketch 46.2 (44496) - http://www.bohemiancoding.com/sketch -->
    <title>wancheng</title>
    <desc>Created with Sketch.</desc>
    <defs></defs>
    <g id="Page-1" stroke="none" stroke-width="1" fill="none" fill-rule="evenodd">
        <g id="wancheng">
            <path d="M193,101.148148 C193,48.6364444 151.363556,7 98.8518519,7 C48.6364444,7 7,48.6364444 7,101.148148 C7,151.363556 48.6364444,193 98.8518519,193 C151.363556,193 193,151.363556 193,101.148148 Z" id="Fill-" fill="#09BB07"></path>
            <path d="M53.8454367,106.130965 C53.4613576,105.733462 53.4095087,105.058114 53.7463562,104.599772 L57.9340602,98.9016439 C58.2634186,98.4534922 58.8849672,98.3619364 59.3234585,98.6980149 L84.235698,117.791818 C84.6736832,118.127508 85.3783653,118.108373 85.7923496,117.763491 L146.433531,67.2444817 C146.855261,66.8931466 147.517597,66.9248152 147.911618,67.3139492 L151.863079,71.2163988 C152.257674,71.6060997 152.261351,72.2332082 151.864636,72.6236355 L85.7396811,137.700468 C85.3459457,138.087963 84.7112645,138.075567 84.3313233,137.682347 L53.8454367,106.130965 Z" id="Fill-" fill="#FFFFFF"></path>
        </g>
    </g>
</svg>