<?xml version="1.0" encoding="utf-8"?>
<!-- Generator: Adobe Illustrator 19.0.0, SVG Export Plug-In . SVG Version: 6.00 Build 0)  -->
<svg version="1.1" id="icons" xmlns="http://www.w3.org/2000/svg" xmlns:xlink="http://www.w3.org/1999/xlink" x="0px" y="0px"
	 width="36px" height="36px" viewBox="-181 183 36 36" style="enable-background:new -181 183 36 36;" xml:space="preserve">
<style type="text/css">
	.st0{fill-rule:evenodd;clip-rule:evenodd;fill:#FFFFFF;}
</style>
<g>
	<path class="st0" d="M-148.5,199.4L-148.5,199.4c-0.1,0.9-0.6,1-1.1,1c-0.6,0-1.2-0.4-1.2-1.1c0-0.6,0.2-1.1,0.2-1.1
		c0.1-0.2,0.6-1.7-0.4-3.9c-1.8-3-5.4-3.1-5.8-2.9c-0.4,0.2-1.1,0.3-1.1,0.3c-0.7,0-1.2-0.5-1.2-1.2c0-0.5,0.4-1,0.9-1.1
		c0,0,0,0,0,0c0,0,0.1,0,0.1,0c0.5-0.1,2.3-0.4,4,0C-150.8,189.9-146.6,192.9-148.5,199.4L-148.5,199.4z M-157,195
		c-0.4,0-0.8-0.4-0.8-0.8c0-0.5,0.4-0.8,0.8-0.8c0,0,5.1-0.9,4.4,4.5c0,0,0,0.1,0,0.1c-0.1,0.4-0.4,0.7-0.8,0.7
		c-0.4,0-0.8-0.4-0.8-0.8C-154.2,197.9-153.4,194.2-157,195L-157,195z M-156.6,196.6c1.4,1.4,0.2,3.3,0.2,3.3s-0.6,0.6,0.6,0.9
		c1.2,0.2,4.9,1.9,2.8,6.3c-2,4.3-8.7,6.4-13.7,6c-4.7-0.4-10.8-1.9-11.4-7.6c0,0-0.3-2.6,2.2-5.9c0,0,3.6-5,7.8-6.5
		c4.2-1.4,4.7,1,4.7,2.4c-0.2,1.2-0.6,1.9,0.9,1.4C-162.4,196.8-158.3,194.9-156.6,196.6L-156.6,196.6z M-166.2,199.7
		c-4.9,0.2-8.9,2.9-8.9,6.1c0,3.3,4,5.7,8.9,5.5c4.9-0.2,8.9-3.3,8.9-6.6C-157.3,201.5-161.3,199.5-166.2,199.7L-166.2,199.7z
		 M-170.3,209.3c-1.4-0.7-1.3-2.2-1.3-2.2s-0.6-4.6,4.4-5.2c4.9-0.6,5.8,4.2,4.3,6.1C-164.4,209.9-167.4,210.8-170.3,209.3
		L-170.3,209.3z M-168.6,205.5c-0.9,0.1-1.6,0.9-1.6,1.7c0,0.8,0.7,1.3,1.7,1.2c0.9-0.1,1.7-0.8,1.7-1.6
		C-166.8,206-167.5,205.4-168.6,205.5L-168.6,205.5z M-165.3,204.9c-0.2-0.3-0.5-0.4-0.9-0.1c-0.3,0.2-0.4,0.7-0.2,0.9
		c0.2,0.3,0.5,0.3,0.9,0.1C-165.3,205.6-165.1,205.2-165.3,204.9L-165.3,204.9z"/>
</g>
</svg>
