<?xml version="1.0" encoding="utf-8"?>
<!-- Generator: Adobe Illustrator 19.0.0, SVG Export Plug-In . SVG Version: 6.00 Build 0)  -->
<svg version="1.1" id="icons" xmlns="http://www.w3.org/2000/svg" xmlns:xlink="http://www.w3.org/1999/xlink" x="0px" y="0px"
	 width="36px" height="36px" viewBox="-181 183 36 36" style="enable-background:new -181 183 36 36;" xml:space="preserve">
<style type="text/css">
	.st0{fill-rule:evenodd;clip-rule:evenodd;fill:#FFFFFF;}
</style>
<g>
	<path class="st0" d="M-157.7,196.3c0.3,0,0.7,0,1,0.1c-0.9-4.2-5.5-7.3-10.7-7.3c-5.8,0-10.6,3.9-10.6,8.9c0,2.9,1.6,5.2,4.2,7
		l-1.1,3.1l3.7-1.8c1.3,0.3,2.4,0.5,3.7,0.5c0.3,0,0.7,0,1,0c-0.2-0.7-0.3-1.4-0.3-2.2C-166.7,200-162.7,196.3-157.7,196.3
		L-157.7,196.3z M-163.4,193.4c0.8,0,1.3,0.5,1.3,1.3c0,0.8-0.5,1.3-1.3,1.3c-0.8,0-1.6-0.5-1.6-1.3
		C-165,193.9-164.2,193.4-163.4,193.4L-163.4,193.4L-163.4,193.4z M-170.8,196c-0.8,0-1.6-0.5-1.6-1.3c0-0.8,0.8-1.3,1.6-1.3
		c0.8,0,1.3,0.5,1.3,1.3C-169.5,195.5-170,196-170.8,196L-170.8,196L-170.8,196z"/>
	<path class="st0" d="M-148,204.4c0-4.2-4.2-7.6-9-7.6c-5.1,0-9,3.4-9,7.6c0,4.2,4,7.6,9,7.6c1.1,0,2.1-0.3,3.2-0.5l2.9,1.6
		l-0.8-2.6C-149.6,208.8-148,206.7-148,204.4L-148,204.4z M-160,203.1c-0.5,0-1.1-0.5-1.1-1c0-0.5,0.5-1,1.1-1c0.8,0,1.3,0.5,1.3,1
		C-158.6,202.6-159.1,203.1-160,203.1L-160,203.1L-160,203.1z M-154.1,203.1c-0.5,0-1.1-0.5-1.1-1c0-0.5,0.5-1,1.1-1
		c0.8,0,1.3,0.5,1.3,1C-152.8,202.6-153.3,203.1-154.1,203.1L-154.1,203.1z"/>
</g>
</svg>
