<?xml version="1.0" encoding="utf-8"?>
<!-- Generator: Adobe Illustrator 19.0.0, SVG Export Plug-In . SVG Version: 6.00 Build 0)  -->
<svg version="1.1" id="icons" xmlns="http://www.w3.org/2000/svg" xmlns:xlink="http://www.w3.org/1999/xlink" x="0px" y="0px"
	 width="18px" height="18px" viewBox="-190 192 18 18" style="enable-background:new -190 192 18 18;" xml:space="preserve">
<style type="text/css">
	.st0{clip-path:url(#SVGID_2_);fill:#FFFFFF;}
	.st1{clip-path:url(#SVGID_4_);fill:#66C6BC;}
</style>
<g>
	<defs>
		<path id="SVGID_1_" d="M-182.7,209.6c-0.5,0.4-1.3,0.2-1.5-0.4l-0.7-1.9l-2.1,0.1c-0.7,0-1.2-0.6-1-1.2l0.4-2l-1.8-1
			c-0.6-0.3-0.7-1.1-0.2-1.6l1.5-1.5l-1-1.8c-0.3-0.6,0-1.3,0.7-1.5l2-0.4l0.2-2.1c0-0.7,0.7-1.1,1.3-0.9l1.9,0.7l1.2-1.6
			c0.4-0.5,1.2-0.5,1.6,0l1.2,1.6l1.9-0.7c0.6-0.2,1.3,0.2,1.3,0.9l0.2,2.1l2,0.4c0.6,0.1,1,0.9,0.7,1.5l-1,1.8l1.5,1.5
			c0.5,0.5,0.4,1.3-0.2,1.6l-1.8,1l0.4,2c0.1,0.7-0.4,1.3-1,1.2l-2.1-0.1l-0.7,1.9c-0.2,0.6-1,0.8-1.5,0.4l-1.7-1.2L-182.7,209.6z"
			/>
	</defs>
	<clipPath id="SVGID_2_">
		<use xlink:href="#SVGID_1_"  style="overflow:visible;"/>
	</clipPath>
	<rect x="-194.9" y="187.2" class="st0" width="27.8" height="27.7"/>
</g>
<g>
	<defs>
		<path id="SVGID_3_" d="M-183.2,200.6c-0.3-0.5-0.9-0.6-1.4-0.3c-0.5,0.3-0.6,0.9-0.3,1.4l2,3c0.4,0.6,1.3,0.6,1.7,0l3.4-5.3
			c0.3-0.5,0.2-1.1-0.3-1.4c-0.5-0.3-1.1-0.2-1.4,0.3l-2.6,4L-183.2,200.6z M-181,207.1l-2.3,1.7l-1-2.7l-2.8,0.2l0.6-2.8l-2.5-1.3
			l2-2l-1.4-2.5l2.8-0.6l0.2-2.8l2.6,1l1.7-2.3l1.7,2.3l2.6-1l0.2,2.8l2.8,0.6l-1.4,2.5l2,2l-2.5,1.3l0.6,2.8l-2.8-0.2l-1,2.7
			L-181,207.1z"/>
	</defs>
	<clipPath id="SVGID_4_">
		<use xlink:href="#SVGID_3_"  style="overflow:visible;"/>
	</clipPath>
	<rect x="-193.9" y="188.2" class="st1" width="25.8" height="25.7"/>
</g>
</svg>
