<?xml version="1.0" encoding="utf-8"?>
<!-- Generator: Adobe Illustrator 19.0.0, SVG Export Plug-In . SVG Version: 6.00 Build 0)  -->
<svg version="1.1" id="icons" xmlns="http://www.w3.org/2000/svg" xmlns:xlink="http://www.w3.org/1999/xlink" x="0px" y="0px"
	 width="18px" height="18px" viewBox="-411 289.3 18 18" style="enable-background:new -411 289.3 18 18;" xml:space="preserve">
<style type="text/css">
	.st0{clip-path:url(#SVGID_2_);fill:#999999;}
</style>
<g>
	<defs>
		<path id="SVGID_1_" d="M-401,295.3v6c0,0.5,0.4,1,1,1c0.6,0,1-0.4,1-1v-6c0-0.5-0.4-1-1-1C-400.6,294.3-401,294.7-401,295.3z
			 M-405,295.3v6c0,0.5,0.4,1,1,1c0.6,0,1-0.4,1-1v-6c0-0.5-0.4-1-1-1C-404.6,294.3-405,294.7-405,295.3z M-402,306.3
			c-4.4,0-8-3.6-8-8s3.6-8,8-8s8,3.6,8,8S-397.6,306.3-402,306.3z"/>
	</defs>
	<clipPath id="SVGID_2_">
		<use xlink:href="#SVGID_1_"  style="overflow:visible;"/>
	</clipPath>
	<rect x="-415" y="285.3" class="st0" width="26" height="26"/>
</g>
</svg>
