<?xml version="1.0" encoding="utf-8"?>
<!-- Generator: Adobe Illustrator 19.0.0, SVG Export Plug-In . SVG Version: 6.00 Build 0)  -->
<svg version="1.1" id="icons" xmlns="http://www.w3.org/2000/svg" xmlns:xlink="http://www.w3.org/1999/xlink" x="0px" y="0px"
	 width="32px" height="32px" viewBox="-404 282.3 32 32" style="enable-background:new -404 282.3 32 32;" xml:space="preserve">
<style type="text/css">
	.st0{clip-path:url(#SVGID_2_);fill:#FFFFFF;}
</style>
<g>
	<defs>
		<path id="SVGID_1_" d="M-396,299.3c0,4.4,3.6,8,8,8s8-3.6,8-8c0-0.6-0.4-1-1-1s-1,0.4-1,1c0,3.3-2.7,6-6,6s-6-2.7-6-6
			c0-0.6-0.4-1-1-1S-396,298.7-396,299.3z M-399.6,292.5c0.4-1.1,0.6-2.1,0.6-3.2c0-1.3-0.7-2.7-2-4c1.3,0,3.3,0,6,0s5,0,7,0
			c7.2,0,13,5.8,13,13s-5.8,13-13,13s-13-5.8-13-13C-401,296.2-400.5,294.2-399.6,292.5z"/>
	</defs>
	<clipPath id="SVGID_2_">
		<use xlink:href="#SVGID_1_"  style="overflow:visible;"/>
	</clipPath>
	<rect x="-406" y="280.3" class="st0" width="36" height="36"/>
</g>
</svg>
