<?xml version="1.0" encoding="UTF-8"?>
<svg width="24px" height="24px" viewBox="0 0 24 24" version="1.1" xmlns="http://www.w3.org/2000/svg" xmlns:xlink="http://www.w3.org/1999/xlink">
    <!-- Generator: Sketch 42 (36781) - http://www.bohemiancoding.com/sketch -->
    <title>mima-a</title>
    <desc>Created with Sketch.</desc>
    <defs></defs>
    <g id="Page-1" stroke="none" stroke-width="1" fill="none" fill-rule="evenodd">
        <g id="mima-a" fill="#DDDDDD">
            <path d="M14.40047,10.8539051 C12.80049,10.824947 11.20051,10.824947 9.60052999,10.8539051 L9.60052999,8.47855862 C9.60052999,7.18170553 10.6749166,6.13060492 12.0005,6.13060492 C13.3260834,6.13060492 14.40047,7.18170553 14.40047,8.47855862 L14.40047,10.8539051 Z M13.60048,16.6963965 C13.60048,17.5604435 12.883689,18.261699 12.0005,18.261699 C11.116511,18.261699 10.40052,17.5604435 10.40052,16.6963965 L10.40052,14.3484429 C10.40052,13.4836132 11.116511,12.7831404 12.0005,12.7831404 C12.883689,12.7831404 13.60048,13.4836132 13.60048,14.3484429 L13.60048,16.6963965 Z M19.8740016,12.0709278 C19.837202,11.4729822 19.3380083,10.9963476 18.7268159,10.9673895 C18.5516181,10.959563 17.7756278,10.9572151 17.60043,10.9493886 L17.60043,8.47855862 C17.60043,5.45282896 15.0932613,3 12.0005,3 C8.90773865,3 6.40056999,5.45282896 6.40056999,8.47855862 L6.40056999,10.9493886 C6.22537218,10.9572151 5.44858189,10.959563 5.27258409,10.9673895 C4.66219172,10.9963476 4.16299796,11.4729822 4.12539843,12.0709278 C3.95820052,14.7601174 3.95820052,17.0665906 4.12539843,19.7557802 C4.16299796,20.3529431 4.66219172,20.8303603 5.27258409,20.8585358 C9.35493306,21.0471547 14.6452669,21.0471547 18.7268159,20.8585358 C19.3380083,20.8303603 19.837202,20.3529431 19.8740016,19.7557802 C20.0419995,17.0665906 20.0419995,14.7601174 19.8740016,12.0709278 L19.8740016,12.0709278 Z" id="Icon"></path>
        </g>
    </g>
</svg>