<?xml version="1.0" encoding="UTF-8"?>
<svg width="24px" height="24px" viewBox="0 0 24 24" version="1.1" xmlns="http://www.w3.org/2000/svg" xmlns:xlink="http://www.w3.org/1999/xlink">
    <!-- Generator: Sketch 42 (36781) - http://www.bohemiancoding.com/sketch -->
    <title>yonghuming-b</title>
    <desc>Created with Sketch.</desc>
    <defs></defs>
    <g id="Page-1" stroke="none" stroke-width="1" fill="none" fill-rule="evenodd">
        <g id="yonghuming-b" fill="#4DA1FF">
            <path d="M12.000375,13.5000368 C16.3631091,13.5000368 20.1408454,15.8791918 20.9643424,19.3133416 C21.1458417,20.0708379 20.6103436,20.8166676 19.9053462,20.8450008 C14.7296151,21.0516664 9.27038494,21.0516664 4.09465379,20.8450008 C3.38965636,20.8166676 2.85415831,20.0708379 3.03565765,19.3133416 C3.85915465,15.8791918 7.63689089,13.5000368 12.000375,13.5000368 Z M11.999925,11.9999672 C9.92918254,11.9999672 8.24993866,9.98547456 8.24993866,7.49998361 C8.24993866,5.01449266 9.92918254,3 11.999925,3 C14.0706675,3 15.7499113,5.01449266 15.7499113,7.49998361 C15.7499113,9.98547456 14.0706675,11.9999672 11.999925,11.9999672 Z" id="Icon"></path>
        </g>
    </g>
</svg>