<?xml version="1.0" encoding="UTF-8"?>
<svg width="150px" height="50px" viewBox="0 0 150 50" version="1.1" xmlns="http://www.w3.org/2000/svg" xmlns:xlink="http://www.w3.org/1999/xlink">
    <!-- Generator: Sketch 46.2 (44496) - http://www.bohemiancoding.com/sketch -->
    <title>dinghuome-logo-hui</title>
    <desc>Created with Sketch.</desc>
    <defs></defs>
    <g id="Page-1" stroke="none" stroke-width="1" fill="none" fill-rule="evenodd">
        <g id="dinghuome-logo-hui" fill="#EEEEEE">
            <g id="Page-1-Copy" transform="translate(7.000000, 4.000000)">
                <path d="M2.1226953,-9.25817383e-05 L2.1226953,8.14432294 L12.9205477,12.0762694 L12.9205477,3.93092803 L2.1226953,-9.25817383e-05 Z M15.3201718,1.77840261 L15.3201718,8.14432294 L30.6416215,8.14432294 L30.6416215,35.2920661 L21.3196886,35.2920661 L21.3196886,41.518188 L37.4717423,41.518188 L37.4717423,8.14432294 L43.7469101,8.14432294 L43.7469101,1.77840261 L15.3201718,1.77840261 Z M-0.000365100671,13.0122707 L-0.000365100671,19.3781911 L3.96827919,19.3781911 L3.96827919,32.4840619 L1.93740671,33.8885269 L1.93740671,41.7987106 L17.0744805,32.5775695 L17.0744805,24.4340798 L10.7984,28.4595338 L10.7984,13.0122707 L-0.000365100671,13.0122707 Z" id="Fill-1"></path>
                <path d="M67.6995221,0.654830635 L67.6995221,5.99124203 L58.3775893,8.42521593 L58.3775893,14.6041211 L67.6995221,12.1692214 L67.6995221,18.1611115 L86.1580993,18.1611115 L89.110851,9.64173997 L82.5591195,9.64173997 L81.5441396,12.1692214 L74.529643,12.1692214 L74.529643,10.3907262 L87.2652671,7.11425852 L87.2652671,0.935353302 L74.529643,4.21274684 L74.529643,0.654830635 L67.6995221,0.654830635 Z M52.1936966,0.654830635 L46.1950926,10.8591898 L49.4253208,10.8591898 L49.4253208,18.2546191 L56.2545289,18.2546191 L56.2545289,7.86324478 L55.4239248,7.86324478 L59.7622336,0.654830635 L52.1936966,0.654830635 Z M47.6710121,19.5655765 L47.6710121,32.7649549 L54.5011329,32.7649549 L54.5011329,25.5565408 L80.528247,25.5565408 L80.528247,32.3899989 L87.3583678,32.3899989 L87.3583678,19.5655765 L47.6710121,19.5655765 Z M63.9152537,27.0545133 L63.9152537,32.1094762 L46.7482201,35.7609 L46.7482201,41.7990809 L67.4229584,37.2588725 L88.4655356,41.7990809 L88.4655356,35.572959 L70.9297503,31.9224611 L70.9297503,27.0545133 L63.9152537,27.0545133 Z" id="Fill-2"></path>
                <path d="M109.649042,1.12310907 L90.1754846,25.5572814 L98.5737128,25.5572814 L118.324746,1.12310907 L109.649042,1.12310907 Z M117.58633,9.36103214 L92.2054443,41.0499095 L135.122115,41.0499095 L128.569471,25.275833 L121.277498,25.275833 L125.153954,35.0117286 L106.049149,35.0117286 L126.262035,9.36103214 L117.58633,9.36103214 Z" id="Fill-3"></path>
            </g>
        </g>
    </g>
</svg>