<?xml version="1.0" encoding="utf-8"?>
<!-- Generator: Adobe Illustrator 19.0.0, SVG Export Plug-In . SVG Version: 6.00 Build 0)  -->
<svg version="1.1" id="icons" xmlns="http://www.w3.org/2000/svg" xmlns:xlink="http://www.w3.org/1999/xlink" x="0px" y="0px"
	 width="44px" height="44px" viewBox="-398 276.3 44 44" style="enable-background:new -398 276.3 44 44;" xml:space="preserve">
<style type="text/css">
	.st0{clip-path:url(#SVGID_2_);}
	.st1{clip-path:url(#SVGID_4_);fill:#DDDDDD;}
</style>
<g>
	<defs>
		<path id="SVGID_1_" d="M-382,302.3h12c6.6,0,12,5.4,12,12c0,2.2-1.8,4-4,4h-28c-2.2,0-4-1.8-4-4C-394,307.7-388.6,302.3-382,302.3
			z M-376,298.3c-5.5,0-10-4.5-10-10s4.5-10,10-10s10,4.5,10,10S-370.5,298.3-376,298.3z"/>
	</defs>
	<clipPath id="SVGID_2_">
		<use xlink:href="#SVGID_1_"  style="overflow:visible;"/>
	</clipPath>
	<g class="st0">
		<defs>
			<rect id="SVGID_3_" x="-901" y="-778.7" width="750" height="1334"/>
		</defs>
		<clipPath id="SVGID_4_">
			<use xlink:href="#SVGID_3_"  style="overflow:visible;"/>
		</clipPath>
		<rect x="-399" y="273.3" class="st1" width="46" height="50"/>
	</g>
</g>
</svg>
