<?xml version="1.0" encoding="utf-8"?>
<!-- Generator: Adobe Illustrator 19.0.0, SVG Export Plug-In . SVG Version: 6.00 Build 0)  -->
<svg version="1.1" id="icons" xmlns="http://www.w3.org/2000/svg" xmlns:xlink="http://www.w3.org/1999/xlink" x="0px" y="0px"
	 width="44px" height="44px" viewBox="-398 276.3 44 44" style="enable-background:new -398 276.3 44 44;" xml:space="preserve">
<style type="text/css">
	.st0{clip-path:url(#SVGID_2_);}
	.st1{clip-path:url(#SVGID_4_);fill:#FFFFFF;}
	.st2{clip-path:url(#SVGID_6_);}
	.st3{clip-path:url(#SVGID_8_);fill:#FFFFFF;}
</style>
<g>
	<defs>
		<path id="SVGID_1_" d="M-388.7,308.2l22.6-22.6c0.8-0.8,2-0.8,2.8,0c0.8,0.8,0.8,2,0,2.8l-22.6,22.6c-0.8,0.8-2,0.8-2.8,0
			C-389.5,310.2-389.5,309-388.7,308.2z"/>
	</defs>
	<clipPath id="SVGID_2_">
		<use xlink:href="#SVGID_1_"  style="overflow:visible;"/>
	</clipPath>
	<g class="st0">
		<defs>
			<rect id="SVGID_3_" x="-1096" y="-432.7" width="750" height="1334"/>
		</defs>
		<clipPath id="SVGID_4_">
			<use xlink:href="#SVGID_3_"  style="overflow:visible;"/>
		</clipPath>
		
			<rect x="-399" y="291.3" transform="matrix(-0.7071 0.7071 -0.7071 -0.7071 -430.9564 775.0679)" class="st1" width="46" height="14"/>
	</g>
</g>
<g>
	<defs>
		<path id="SVGID_5_" d="M-385.9,285.6l22.6,22.6c0.8,0.8,0.8,2,0,2.8c-0.8,0.8-2,0.8-2.8,0l-22.6-22.6c-0.8-0.8-0.8-2,0-2.8
			C-387.9,284.8-386.7,284.8-385.9,285.6z"/>
	</defs>
	<clipPath id="SVGID_6_">
		<use xlink:href="#SVGID_5_"  style="overflow:visible;"/>
	</clipPath>
	<g class="st2">
		<defs>
			<rect id="SVGID_7_" x="-1096" y="-432.7" width="750" height="1334"/>
		</defs>
		<clipPath id="SVGID_8_">
			<use xlink:href="#SVGID_7_"  style="overflow:visible;"/>
		</clipPath>
		
			<rect x="-399" y="291.3" transform="matrix(-0.7071 -0.7071 0.7071 -0.7071 -852.788 243.3237)" class="st3" width="46" height="14"/>
	</g>
</g>
</svg>
