<?xml version="1.0" encoding="utf-8"?>
<!-- Generator: Adobe Illustrator 19.0.0, SVG Export Plug-In . SVG Version: 6.00 Build 0)  -->
<svg version="1.1" id="icons" xmlns="http://www.w3.org/2000/svg" xmlns:xlink="http://www.w3.org/1999/xlink" x="0px" y="0px"
	 width="44px" height="44px" viewBox="-398 276.3 44 44" style="enable-background:new -398 276.3 44 44;" xml:space="preserve">
<style type="text/css">
	.st0{clip-path:url(#SVGID_2_);}
	.st1{clip-path:url(#SVGID_4_);fill:#D8D8D8;}
</style>
<g>
	<defs>
		<path id="SVGID_1_" d="M-386,288.3v3c0,5.5,4.5,10,10,10c5.5,0,10-4.5,10-10v-3c0-1.1-0.9-2-2-2c-1.1,0-2,0.9-2,2v3
			c0,3.3-2.7,6-6,6c-3.3,0-6-2.7-6-6v-3c0-1.1-0.9-2-2-2C-385.1,286.3-386,287.2-386,288.3z M-388.1,278.3h24.3c1,0,1.9,0.8,2,1.9
			l2.7,36c0.1,1.1-0.7,2.1-1.8,2.1c0,0-0.1,0-0.1,0h-29.7c-1.1,0-2-0.9-2-2c0,0,0-0.1,0-0.1l2.7-36
			C-390.1,279.1-389.2,278.3-388.1,278.3z"/>
	</defs>
	<clipPath id="SVGID_2_">
		<use xlink:href="#SVGID_1_"  style="overflow:visible;"/>
	</clipPath>
	<g class="st0">
		<defs>
			<rect id="SVGID_3_" x="-1051" y="-778.7" width="750" height="1334"/>
		</defs>
		<clipPath id="SVGID_4_">
			<use xlink:href="#SVGID_3_"  style="overflow:visible;"/>
		</clipPath>
		<rect x="-397.8" y="273.3" class="st1" width="43.7" height="50"/>
	</g>
</g>
</svg>
