<?xml version="1.0" encoding="utf-8"?>
<!-- Generator: Adobe Illustrator 19.0.0, SVG Export Plug-In . SVG Version: 6.00 Build 0)  -->
<svg version="1.1" id="icons" xmlns="http://www.w3.org/2000/svg" xmlns:xlink="http://www.w3.org/1999/xlink" x="0px" y="0px"
	 width="44px" height="44px" viewBox="-398 276.3 44 44" style="enable-background:new -398 276.3 44 44;" xml:space="preserve">
<style type="text/css">
	.st0{clip-path:url(#SVGID_2_);}
	.st1{clip-path:url(#SVGID_4_);fill:none;stroke:#333333;stroke-width:8;stroke-linejoin:round;stroke-miterlimit:10;}
	.st2{clip-path:url(#SVGID_6_);}
	.st3{clip-path:url(#SVGID_8_);fill:#333333;}
	.st4{clip-path:url(#SVGID_10_);}
	.st5{clip-path:url(#SVGID_12_);fill:#333333;}
	.st6{clip-path:url(#SVGID_14_);}
	.st7{clip-path:url(#SVGID_16_);fill:#333333;}
	.st8{clip-path:url(#SVGID_18_);}
	.st9{clip-path:url(#SVGID_20_);fill:#333333;}
</style>
<g>
	<defs>
		<polyline id="SVGID_1_" points="-363,290.3 -363,317.3 -389,317.3 -389,290.3 		"/>
	</defs>
	<clipPath id="SVGID_2_">
		<use xlink:href="#SVGID_1_"  style="overflow:visible;"/>
	</clipPath>
	<g class="st0">
		<defs>
			<rect id="SVGID_3_" x="-1001" y="-204.7" width="750" height="1576"/>
		</defs>
		<clipPath id="SVGID_4_">
			<use xlink:href="#SVGID_3_"  style="overflow:visible;"/>
		</clipPath>
		<polyline class="st1" points="-363,290.3 -363,317.3 -389,317.3 -389,290.3 		"/>
	</g>
</g>
<g>
	<defs>
		<path id="SVGID_5_" d="M-393,283.3h34c1.1,0,2,0.9,2,2c0,1.1-0.9,2-2,2h-34c-1.1,0-2-0.9-2-2C-395,284.2-394.1,283.3-393,283.3z"
			/>
	</defs>
	<clipPath id="SVGID_6_">
		<use xlink:href="#SVGID_5_"  style="overflow:visible;"/>
	</clipPath>
	<g class="st2">
		<defs>
			<rect id="SVGID_7_" x="-1001" y="-204.7" width="750" height="1576"/>
		</defs>
		<clipPath id="SVGID_8_">
			<use xlink:href="#SVGID_7_"  style="overflow:visible;"/>
		</clipPath>
		<rect x="-400" y="278.3" class="st3" width="48" height="14"/>
	</g>
</g>
<g>
	<defs>
		<rect id="SVGID_9_" x="-379" y="279.3" width="6" height="4"/>
	</defs>
	<clipPath id="SVGID_10_">
		<use xlink:href="#SVGID_9_"  style="overflow:visible;"/>
	</clipPath>
	<g class="st4">
		<defs>
			<rect id="SVGID_11_" x="-1001" y="-204.7" width="750" height="1576"/>
		</defs>
		<clipPath id="SVGID_12_">
			<use xlink:href="#SVGID_11_"  style="overflow:visible;"/>
		</clipPath>
		<rect x="-384" y="274.3" class="st5" width="16" height="14"/>
	</g>
</g>
<g>
	<defs>
		<path id="SVGID_13_" d="M-380,292.3L-380,292.3c1.1,0,2,0.9,2,2v14c0,1.1-0.9,2-2,2s-2-0.9-2-2v-14
			C-382,293.2-381.1,292.3-380,292.3z"/>
	</defs>
	<clipPath id="SVGID_14_">
		<use xlink:href="#SVGID_13_"  style="overflow:visible;"/>
	</clipPath>
	<g class="st6">
		<defs>
			<rect id="SVGID_15_" x="-1001" y="-204.7" width="750" height="1576"/>
		</defs>
		<clipPath id="SVGID_16_">
			<use xlink:href="#SVGID_15_"  style="overflow:visible;"/>
		</clipPath>
		<rect x="-387" y="287.3" class="st7" width="14" height="28"/>
	</g>
</g>
<g>
	<defs>
		<path id="SVGID_17_" d="M-372,292.3L-372,292.3c1.1,0,2,0.9,2,2v14c0,1.1-0.9,2-2,2s-2-0.9-2-2v-14
			C-374,293.2-373.1,292.3-372,292.3z"/>
	</defs>
	<clipPath id="SVGID_18_">
		<use xlink:href="#SVGID_17_"  style="overflow:visible;"/>
	</clipPath>
	<g class="st8">
		<defs>
			<rect id="SVGID_19_" x="-1001" y="-204.7" width="750" height="1576"/>
		</defs>
		<clipPath id="SVGID_20_">
			<use xlink:href="#SVGID_19_"  style="overflow:visible;"/>
		</clipPath>
		<rect x="-379" y="287.3" class="st9" width="14" height="28"/>
	</g>
</g>
</svg>
