<?xml version="1.0" encoding="utf-8"?>
<!-- Generator: Adobe Illustrator 19.0.0, SVG Export Plug-In . SVG Version: 6.00 Build 0)  -->
<svg version="1.1" id="icons" xmlns="http://www.w3.org/2000/svg" xmlns:xlink="http://www.w3.org/1999/xlink" x="0px" y="0px"
	 width="24px" height="24px" viewBox="-408 286.3 24 24" style="enable-background:new -408 286.3 24 24;" xml:space="preserve">
<style type="text/css">
	.st0{clip-path:url(#SVGID_2_);fill:#4DA1FF;}
</style>
<g>
	<defs>
		<path id="SVGID_1_" d="M-389.8,306.3c-0.1,0-0.1,0-0.2,0h-12c-0.1,0-0.1,0-0.2,0c-0.1,0-0.2,0-0.3,0c-2.5,0-4.5-2-4.5-4.5
			c0-2,1.3-3.7,3.1-4.3c0.4-2.4,2.4-4.2,4.9-4.2c0.3,0,0.7,0,1,0.1c1.1-1.9,3.2-3.1,5.5-3.1c3.6,0,6.5,2.9,6.5,6.5
			c0,0.6-0.1,1.3-0.3,1.9c0.8,0.8,1.3,1.9,1.3,3.1c0,2.5-2,4.5-4.5,4.5C-389.6,306.3-389.7,306.3-389.8,306.3z M-395,300.7l2.3,2.3
			c0.4,0.4,1,0.4,1.4,0c0.4-0.4,0.4-1,0-1.4l-4.7-4.7l-4.7,4.7c-0.4,0.4-0.4,1,0,1.4c0.4,0.4,1,0.4,1.4,0l2.3-2.3v5.6h2V300.7z"/>
	</defs>
	<clipPath id="SVGID_2_">
		<use xlink:href="#SVGID_1_"  style="overflow:visible;"/>
	</clipPath>
	<rect x="-412" y="285.3" class="st0" width="32" height="26"/>
</g>
</svg>
