<?xml version="1.0" encoding="utf-8"?>
<!-- Generator: Adobe Illustrator 19.0.0, SVG Export Plug-In . SVG Version: 6.00 Build 0)  -->
<svg version="1.1" id="icons" xmlns="http://www.w3.org/2000/svg" xmlns:xlink="http://www.w3.org/1999/xlink" x="0px" y="0px"
	 width="44px" height="44px" viewBox="-398 276.3 44 44" style="enable-background:new -398 276.3 44 44;" xml:space="preserve">
<style type="text/css">
	.st0{clip-path:url(#SVGID_2_);fill:none;stroke:#333333;stroke-width:8;stroke-miterlimit:10;}
	.st1{clip-path:url(#SVGID_4_);fill:#333333;}
	.st2{clip-path:url(#SVGID_6_);fill:#333333;}
</style>
<g>
	<defs>
		<path id="SVGID_1_" d="M-362,304c3-2.6,5-6.4,5-10.7c0-7.7-6.3-14-14-14c-5.2,0-9.8,2.9-12.2,7.2c-0.6-0.1-1.2-0.2-1.8-0.2
			c-5.5,0-10,4.5-10,10c0,3.3,1.6,6.2,4,8"/>
	</defs>
	<clipPath id="SVGID_2_">
		<use xlink:href="#SVGID_1_"  style="overflow:visible;"/>
	</clipPath>
	<path class="st0" d="M-362,304c3-2.6,5-6.4,5-10.7c0-7.7-6.3-14-14-14c-5.2,0-9.8,2.9-12.2,7.2c-0.6-0.1-1.2-0.2-1.8-0.2
		c-5.5,0-10,4.5-10,10c0,3.3,1.6,6.2,4,8"/>
</g>
<g>
	<defs>
		<path id="SVGID_3_" d="M-376,298.3L-376,298.3c1.1,0,2,0.9,2,2v15c0,1.1-0.9,2-2,2s-2-0.9-2-2v-15
			C-378,299.2-377.1,298.3-376,298.3z"/>
	</defs>
	<clipPath id="SVGID_4_">
		<use xlink:href="#SVGID_3_"  style="overflow:visible;"/>
	</clipPath>
	<rect x="-383" y="293.3" class="st1" width="14" height="29"/>
</g>
<g>
	<defs>
		<path id="SVGID_5_" d="M-368.5,308.5c0.7,0.9,2,1,2.8,0.3s1-2,0.3-2.8l-10.5-12.8L-387,306c-0.7,0.8-0.6,2.1,0.2,2.8
			c0.8,0.7,2.1,0.6,2.8-0.2l7.9-9.2L-368.5,308.5z"/>
	</defs>
	<clipPath id="SVGID_6_">
		<use xlink:href="#SVGID_5_"  style="overflow:visible;"/>
	</clipPath>
	<rect x="-392.5" y="288.2" class="st2" width="32.5" height="26.1"/>
</g>
</svg>
