<?xml version="1.0" encoding="utf-8"?>
<!-- Generator: Adobe Illustrator 19.0.0, SVG Export Plug-In . SVG Version: 6.00 Build 0)  -->
<svg version="1.1" id="icons" xmlns="http://www.w3.org/2000/svg" xmlns:xlink="http://www.w3.org/1999/xlink" x="0px" y="0px"
	 width="44px" height="44px" viewBox="-398 276.3 44 44" style="enable-background:new -398 276.3 44 44;" xml:space="preserve">
<style type="text/css">
	.st0{clip-path:url(#SVGID_2_);fill:#333333;}
	.st1{clip-path:url(#SVGID_4_);fill:#333333;}
	.st2{clip-path:url(#SVGID_6_);fill:#FFFFFF;}
	.st3{clip-path:url(#SVGID_8_);fill:#333333;}
	.st4{clip-path:url(#SVGID_10_);fill:#FFFFFF;}
	.st5{clip-path:url(#SVGID_12_);fill:#333333;}
	.st6{clip-path:url(#SVGID_14_);fill:#FFFFFF;}
</style>
<g>
	<defs>
		<path id="SVGID_1_" d="M-393,307.3h34c1.1,0,2,0.9,2,2c0,1.1-0.9,2-2,2h-34c-1.1,0-2-0.9-2-2C-395,308.2-394.1,307.3-393,307.3z
			 M-393,296.3h34c1.1,0,2,0.9,2,2s-0.9,2-2,2h-34c-1.1,0-2-0.9-2-2S-394.1,296.3-393,296.3z M-393,285.3h34c1.1,0,2,0.9,2,2
			s-0.9,2-2,2h-34c-1.1,0-2-0.9-2-2S-394.1,285.3-393,285.3z"/>
	</defs>
	<clipPath id="SVGID_2_">
		<use xlink:href="#SVGID_1_"  style="overflow:visible;"/>
	</clipPath>
	<rect x="-400" y="280.3" class="st0" width="48" height="36"/>
</g>
<g>
	<defs>
		<circle id="SVGID_3_" cx="-367" cy="287.3" r="6"/>
	</defs>
	<clipPath id="SVGID_4_">
		<use xlink:href="#SVGID_3_"  style="overflow:visible;"/>
	</clipPath>
	<rect x="-378" y="276.3" class="st1" width="22" height="22"/>
</g>
<g>
	<defs>
		<circle id="SVGID_5_" cx="-367" cy="287.3" r="2"/>
	</defs>
	<clipPath id="SVGID_6_">
		<use xlink:href="#SVGID_5_"  style="overflow:visible;"/>
	</clipPath>
	<rect x="-374" y="280.3" class="st2" width="14" height="14"/>
</g>
<g>
	<defs>
		<circle id="SVGID_7_" cx="-385" cy="298.3" r="6"/>
	</defs>
	<clipPath id="SVGID_8_">
		<use xlink:href="#SVGID_7_"  style="overflow:visible;"/>
	</clipPath>
	<rect x="-396" y="287.3" class="st3" width="22" height="22"/>
</g>
<g>
	<defs>
		<circle id="SVGID_9_" cx="-385" cy="298.3" r="2"/>
	</defs>
	<clipPath id="SVGID_10_">
		<use xlink:href="#SVGID_9_"  style="overflow:visible;"/>
	</clipPath>
	<rect x="-392" y="291.3" class="st4" width="14" height="14"/>
</g>
<g>
	<defs>
		<circle id="SVGID_11_" cx="-367" cy="309.3" r="6"/>
	</defs>
	<clipPath id="SVGID_12_">
		<use xlink:href="#SVGID_11_"  style="overflow:visible;"/>
	</clipPath>
	<rect x="-378" y="298.3" class="st5" width="22" height="22"/>
</g>
<g>
	<defs>
		<circle id="SVGID_13_" cx="-367" cy="309.3" r="2"/>
	</defs>
	<clipPath id="SVGID_14_">
		<use xlink:href="#SVGID_13_"  style="overflow:visible;"/>
	</clipPath>
	<rect x="-374" y="302.3" class="st6" width="14" height="14"/>
</g>
</svg>
