<?xml version="1.0" encoding="UTF-8"?>
<svg width="44px" height="44px" viewBox="0 0 44 44" version="1.1" xmlns="http://www.w3.org/2000/svg" xmlns:xlink="http://www.w3.org/1999/xlink">
    <!-- Generator: Sketch 46.2 (44496) - http://www.bohemiancoding.com/sketch -->
    <title>Artboard</title>
    <desc>Created with Sketch.</desc>
    <defs>
        <linearGradient x1="3.061617e-15%" y1="50%" x2="100%" y2="50%" id="linearGradient-1">
            <stop stop-color="#00C2F8" offset="0%"></stop>
            <stop stop-color="#4DA1FF" offset="100%"></stop>
        </linearGradient>
    </defs>
    <g id="Page-1" stroke="none" stroke-width="1" fill="none" fill-rule="evenodd">
        <g id="Artboard" fill="url(#linearGradient-1)">
            <g id="message-copy">
                <path d="M22,3 L41,14 L41,14 C40.9038751,15.1534988 40.5394878,16.268567 39.9359109,17.2562382 C37.796881,20.756469 33.2253569,21.8599403 29.7251261,19.7209104 L29.7251261,19.7209104 L22,15 L14.2748739,19.7209104 C13.2872027,20.3244872 12.1721345,20.6888746 11.0186357,20.7849994 C6.93072474,21.1256587 3.34065925,18.087911 3,14 L3,14 L22,3 Z M9,25.5 C9.98957578,25.584202 10.9895758,25.584202 12,25.5 C13.0104242,25.415798 14.0104242,25.0824646 15,24.5 L22,20 L29,24.5 C30.0211443,25.0850954 31.0211443,25.4184287 32,25.5 C32.9788557,25.5815713 33.9788557,25.5815713 35,25.5 L35,39 C35,40.1045695 34.1045695,41 33,41 L11,41 L11,41 C9.8954305,41 9,40.1045695 9,39 L9,25.5 Z M22,31 C21.3367187,31.664974 20.6700521,32.164974 20,32.5 C19.3299479,32.835026 18.6632813,33.0016927 18,33 L18,41 L22,41 L26,41 L26,33 C25.336849,33.0017578 24.6701823,32.8350911 24,32.5 C23.3298177,32.1649089 22.663151,31.6649089 22,31 Z" id="Combined-Shape"></path>
            </g>
        </g>
    </g>
</svg>