<?xml version="1.0" encoding="utf-8"?>
<!-- Generator: Adobe Illustrator 19.0.0, SVG Export Plug-In . SVG Version: 6.00 Build 0)  -->
<svg version="1.1" id="icons" xmlns="http://www.w3.org/2000/svg" xmlns:xlink="http://www.w3.org/1999/xlink" x="0px" y="0px"
	 width="44px" height="44px" viewBox="-398 276.3 44 44" style="enable-background:new -398 276.3 44 44;" xml:space="preserve">
<style type="text/css">
	.st0{clip-path:url(#SVGID_2_);fill:#333333;}
	.st1{clip-path:url(#SVGID_4_);fill:#FFFFFF;}
</style>
<g>
	<defs>
		<path id="SVGID_1_" d="M-365.9,305.5l7.9,7.9c0.8,0.8,0.8,2,0,2.8c-0.8,0.8-2,0.8-2.8,0l-7.9-7.9c-2.7,2.1-6.1,3.4-9.8,3.4
			c-8.8,0-16-7.2-16-16c0-8.8,7.2-16,16-16c8.8,0,16,7.2,16,16C-362.5,299.4-363.8,302.8-365.9,305.5z"/>
	</defs>
	<clipPath id="SVGID_2_">
		<use xlink:href="#SVGID_1_"  style="overflow:visible;"/>
	</clipPath>
	<rect x="-399.5" y="274.7" class="st0" width="47.1" height="47.1"/>
</g>
<g>
	<defs>
		<circle id="SVGID_3_" cx="-378.5" cy="295.7" r="12"/>
	</defs>
	<clipPath id="SVGID_4_">
		<use xlink:href="#SVGID_3_"  style="overflow:visible;"/>
	</clipPath>
	<rect x="-395.5" y="278.7" class="st1" width="34" height="34"/>
</g>
</svg>
