<?xml version="1.0" encoding="utf-8"?>
<!-- Generator: Adobe Illustrator 19.0.0, SVG Export Plug-In . SVG Version: 6.00 Build 0)  -->
<svg version="1.1" id="icons" xmlns="http://www.w3.org/2000/svg" xmlns:xlink="http://www.w3.org/1999/xlink" x="0px" y="0px"
	 width="44px" height="44px" viewBox="-398 276.3 44 44" style="enable-background:new -398 276.3 44 44;" xml:space="preserve">
<style type="text/css">
	.st0{clip-path:url(#SVGID_2_);}
	.st1{clip-path:url(#SVGID_4_);fill:none;stroke:#333333;stroke-width:8;stroke-miterlimit:10;}
	.st2{clip-path:url(#SVGID_6_);}
	.st3{clip-path:url(#SVGID_8_);fill:#333333;}
</style>
<g>
	<defs>
		<path id="SVGID_1_" d="M-384,285.3c-5.4,2.9-9,8.5-9,15c0,9.4,7.6,17,17,17s17-7.6,17-17c0-6.5-3.6-12.1-9-15"/>
	</defs>
	<clipPath id="SVGID_2_">
		<use xlink:href="#SVGID_1_"  style="overflow:visible;"/>
	</clipPath>
	<g class="st0">
		<defs>
			<rect id="SVGID_3_" x="-1055" y="-469.7" width="750" height="1334"/>
		</defs>
		<clipPath id="SVGID_4_">
			<use xlink:href="#SVGID_3_"  style="overflow:visible;"/>
		</clipPath>
		<path class="st1" d="M-384,285.3c-5.4,2.9-9,8.5-9,15c0,9.4,7.6,17,17,17s17-7.6,17-17c0-6.5-3.6-12.1-9-15"/>
	</g>
</g>
<g>
	<defs>
		<path id="SVGID_5_" d="M-376,279.3L-376,279.3c1.1,0,2,0.9,2,2v16c0,1.1-0.9,2-2,2s-2-0.9-2-2v-16
			C-378,280.2-377.1,279.3-376,279.3z"/>
	</defs>
	<clipPath id="SVGID_6_">
		<use xlink:href="#SVGID_5_"  style="overflow:visible;"/>
	</clipPath>
	<g class="st2">
		<defs>
			<rect id="SVGID_7_" x="-1055" y="-469.7" width="750" height="1334"/>
		</defs>
		<clipPath id="SVGID_8_">
			<use xlink:href="#SVGID_7_"  style="overflow:visible;"/>
		</clipPath>
		<rect x="-383" y="274.3" class="st3" width="14" height="30"/>
	</g>
</g>
</svg>
