<?xml version="1.0" encoding="utf-8"?>
<!-- Generator: Adobe Illustrator 19.0.0, SVG Export Plug-In . SVG Version: 6.00 Build 0)  -->
<svg version="1.1" id="icons" xmlns="http://www.w3.org/2000/svg" xmlns:xlink="http://www.w3.org/1999/xlink" x="0px" y="0px"
	 width="18px" height="18px" viewBox="-190 192 18 18" style="enable-background:new -190 192 18 18;" xml:space="preserve">
<style type="text/css">
	.st0{clip-path:url(#SVGID_2_);fill:#FFD480;}
</style>
<g>
	<defs>
		<path id="SVGID_1_" d="M-180.6,202.9c0,0.2-0.2,0.4-0.4,0.4s-0.4-0.2-0.4-0.4v-5.2c0-0.2,0.2-0.4,0.4-0.4s0.4,0.2,0.4,0.4V202.9z
			 M-180.6,204.4c0,0.2-0.2,0.4-0.4,0.4s-0.4-0.2-0.4-0.4s0.2-0.4,0.4-0.4S-180.6,204.2-180.6,204.4z M-181,195c-3.3,0-6,2.7-6,6
			s2.7,6,6,6s6-2.7,6-6S-177.7,195-181,195z"/>
	</defs>
	<clipPath id="SVGID_2_">
		<use xlink:href="#SVGID_1_"  style="overflow:visible;"/>
	</clipPath>
	<rect x="-192" y="190" class="st0" width="22" height="22"/>
</g>
</svg>
