<?xml version="1.0" encoding="utf-8"?>
<!-- Generator: Adobe Illustrator 19.0.0, SVG Export Plug-In . SVG Version: 6.00 Build 0)  -->
<svg version="1.1" id="icons" xmlns="http://www.w3.org/2000/svg" xmlns:xlink="http://www.w3.org/1999/xlink" x="0px" y="0px"
	 width="44px" height="44px" viewBox="-398 276.3 44 44" style="enable-background:new -398 276.3 44 44;" xml:space="preserve">
<style type="text/css">
	.st0{clip-path:url(#SVGID_2_);}
	.st1{clip-path:url(#SVGID_4_);fill:#4DA1FF;}
</style>
<g>
	<defs>
		<path id="SVGID_1_" d="M-376,299.2c-4.8,0-8.7-4.7-8.7-10.5c0-5.8,3.9-10.5,8.7-10.5c4.8,0,8.7,4.7,8.7,10.5
			C-367.3,294.5-371.2,299.2-376,299.2z M-355.1,314.9c0.4,1.6-0.8,3.2-2.5,3.2c-12.1,0.4-24.8,0.4-36.9,0c-1.6-0.1-2.9-1.6-2.5-3.2
			c1.9-7.2,10.7-12.2,20.9-12.2C-365.8,302.7-357,307.7-355.1,314.9z"/>
	</defs>
	<clipPath id="SVGID_2_">
		<use xlink:href="#SVGID_1_"  style="overflow:visible;"/>
	</clipPath>
	<g class="st0">
		<defs>
			<rect id="SVGID_3_" x="-501" y="-44.8" width="750" height="1334"/>
		</defs>
		<clipPath id="SVGID_4_">
			<use xlink:href="#SVGID_3_"  style="overflow:visible;"/>
		</clipPath>
		<rect x="-402" y="273.2" class="st1" width="52" height="50.3"/>
	</g>
</g>
</svg>
